<?xml version="1.0" standalone="no"?>
<!DOCTYPE svg PUBLIC "-//W3C//DTD SVG 1.1//EN" "http://www.w3.org/Graphics/SVG/1.1/DTD/svg11.dtd" >
<svg xmlns="http://www.w3.org/2000/svg" width="100%" height="100%">
<metadata>
Created by FontXChange 20110222 at Sun Aug  6 19:14:18 2017
 By jasecoop
Copyright 1997 International Typeface Corporation. All rights reserved. "Compacta" is a trademark of International Typeface Corporation and may be registered in certain jurisdictions.
</metadata>
<defs>
<font id="CompactaStd" horiz-adv-x="387" >
  <font-face 
    font-family="CompactaStd"
    font-weight="400"
    font-stretch="normal"
    units-per-em="1000"
    panose-1="2 0 5 8 5 0 0 2 0 4"
    ascent="800"
    descent="-200"
    x-height="543"
    cap-height="667"
    bbox="-37 -235 1040 872"
    underline-thickness="0"
    underline-position="0"
    stemh="90"
    stemv="113"
    unicode-range="U+0020-FB02"
  />
<missing-glyph horiz-adv-x="500" 
d="M12 0v665h475v-665h-475zM88 618l162 -243l161 243h-323zM60 575v-484c0 -1 161 242 161 242zM440 575l-162 -242l162 -243v485zM411 48l-161 242l-162 -242h323z" />
    <glyph glyph-name="f_i" unicode="fi" horiz-adv-x="323" 
d="M293 543v-543h-100v463h-60v-463h-100v463h-26v80h26v19v14c0 64 24 91 84 91h10h36v-77h-6c-19 0 -24 -5 -24 -26v-5v-16h160zM193 590v77h100v-77h-100z" />
    <glyph glyph-name="f_l" unicode="fl" horiz-adv-x="323" 
d="M33 0v463h-26v80h26v19v14c0 64 24 91 84 91h10h36v-77h-6c-19 0 -24 -5 -24 -26v-5v-16h60v124h100v-667h-100v463h-60v-463h-100z" />
    <glyph glyph-name=".notdef" horiz-adv-x="500" 
d="M12 0v665h475v-665h-475zM88 618l162 -243l161 243h-323zM60 575v-484c0 -1 161 242 161 242zM440 575l-162 -242l162 -243v485zM411 48l-161 242l-162 -242h323z" />
    <glyph glyph-name="space" unicode=" " horiz-adv-x="160" 
 />
    <glyph glyph-name="exclam" unicode="!" horiz-adv-x="233" 
d="M60 0v113h113v-113h-113zM73 153l-13 514h113l-13 -514h-87z" />
    <glyph glyph-name="quotedbl" unicode="&#x22;" horiz-adv-x="279" 
d="M42 667h79v-107l-27 -96h-25l-27 96v107zM157 667h79v-107l-26 -96h-26l-27 96v107z" />
    <glyph glyph-name="dollar" unicode="$" horiz-adv-x="333" 
d="M207 -50h-80v49h-4c-62 5 -90 35 -90 100v12v166h114v-154c0 -23 6 -34 20 -34s20 11 20 36v123c0 36 -2 39 -24 52l-6 4l-66 39c-48 28 -58 46 -58 107v106v8c0 69 27 99 90 103h4v53h80v-52l3 -1c63 -5 90 -35 90 -101v-13v-116h-113v102c0 32 -5 41 -20 41
s-20 -10 -20 -38v-3v-91c0 -23 1 -24 16 -34l92 -57c36 -23 45 -41 45 -94v-7v-147c0 -38 -3 -54 -14 -71c-15 -24 -37 -35 -76 -38l-3 -1v-49z" />
    <glyph glyph-name="percent" unicode="%" horiz-adv-x="541" 
d="M33 398v204v10c0 29 6 42 22 49c12 5 23 7 65 7s54 -2 65 -7c16 -8 22 -20 22 -49v-10v-204v-10c0 -29 -6 -42 -22 -49c-12 -5 -25 -7 -65 -7c-75 0 -87 8 -87 56v10zM334 65v204v10c0 29 6 41 22 49c12 5 23 6 65 6s54 -1 65 -6c16 -8 22 -20 22 -49v-10v-204v-10
c0 -29 -6 -42 -22 -49c-12 -6 -25 -7 -65 -7c-75 0 -87 7 -87 56v10zM95 0l278 667h72l-278 -667h-72zM137 402v198v-2v8c0 12 -4 15 -16 15c-14 0 -17 -3 -17 -15v-8v-196v-8c-1 -12 3 -15 17 -15c12 0 16 3 16 14v9zM438 69v198v-2v8c0 11 -4 15 -16 15
c-14 0 -17 -3 -17 -15v-8v-196v-8c-1 -12 3 -15 17 -15c12 0 16 3 16 14v9z" />
    <glyph glyph-name="ampersand" unicode="&#x26;" horiz-adv-x="350" 
d="M300 527v-117h43v-90h-43v-320h-107h-23c-67 1 -77 3 -98 19c-24 18 -32 38 -32 88v10v147v12c0 44 13 65 48 82c-38 20 -48 40 -48 92v9v93v18c1 64 33 97 95 97h13h116v-90h-71h-4h-10c-22 0 -26 -5 -26 -31v-4v-92v-5v-10c0 -19 7 -25 29 -25h11v117h107zM193 90v230
h-11c-22 0 -29 -7 -29 -30v-6v-154v-3l1 -10c0 -20 6 -27 22 -27h4h13z" />
    <glyph glyph-name="quotesingle" unicode="'" horiz-adv-x="163" 
d="M42 667h79v-107l-27 -96h-25l-27 96v107z" />
    <glyph glyph-name="parenleft" unicode="(" horiz-adv-x="247" 
d="M197 730v-90c-21 -3 -27 -12 -27 -42v-13v-16v-471v-16v-10c0 -33 6 -43 27 -45v-90c-10 -2 -14 -2 -21 -2c-38 0 -69 14 -87 40c-15 22 -19 39 -19 83v18v515v20c0 45 6 66 24 88c18 21 48 33 82 33c7 0 11 -1 21 -2z" />
    <glyph glyph-name="parenright" unicode=")" horiz-adv-x="247" 
d="M50 -63v90c20 2 26 12 27 42v13v16v471v16v10c0 33 -6 42 -27 45v90c9 1 14 2 21 2c38 0 69 -15 87 -40c15 -22 19 -39 19 -84v-17v-515v-20c0 -45 -6 -66 -25 -88c-18 -21 -47 -33 -81 -33c-7 0 -12 0 -21 2z" />
    <glyph glyph-name="asterisk" unicode="*" horiz-adv-x="331" 
d="M191 667v-100l91 31l15 -51l-90 -31l57 -82l-42 -32l-56 82l-57 -82l-42 32l57 82l-91 31l16 51l91 -31v100h51z" />
    <glyph glyph-name="plus" unicode="+" 
d="M347 256h-113v-168h-80v168h-115v80h115v172h80v-172h113v-80z" />
    <glyph glyph-name="comma" unicode="," horiz-adv-x="163" 
d="M40 0v113h83v-112v-10c0 -60 -23 -85 -83 -91v51c20 4 30 17 30 37v11v1h-30z" />
    <glyph glyph-name="hyphen" unicode="-" horiz-adv-x="200" 
d="M40 237v90h120v-90h-120z" />
    <glyph glyph-name="period" unicode="." horiz-adv-x="163" 
d="M40 0v113h83v-113h-83z" />
    <glyph glyph-name="slash" unicode="/" horiz-adv-x="250" 
d="M0 -63l158 793h92l-158 -793h-92z" />
    <glyph glyph-name="zero" unicode="0" horiz-adv-x="327" 
d="M30 120v426v25c0 42 12 67 40 83c20 11 39 14 93 14c66 0 87 -5 109 -25c14 -14 21 -30 24 -53c1 -10 1 -14 1 -44v-426c0 -45 -1 -55 -7 -69c-9 -23 -30 -41 -55 -47c-14 -4 -34 -6 -72 -6c-54 0 -73 3 -93 15c-28 16 -40 41 -40 83v24zM183 137v393v14
c0 25 -6 34 -20 34c-10 0 -16 -6 -18 -17c-1 -5 -2 -12 -2 -31v-393c0 -22 1 -28 2 -33c3 -10 9 -16 18 -16c14 0 20 11 20 35v14z" />
    <glyph glyph-name="one" unicode="1" horiz-adv-x="210" 
d="M64 0v487h-64v90c54 7 78 33 87 90h90v-667h-113z" />
    <glyph glyph-name="two" unicode="2" horiz-adv-x="320" 
d="M27 0v104l144 304c6 12 9 20 9 23v19v92v7c0 19 -8 29 -20 29c-13 0 -20 -10 -20 -27v-7v-107h-113v120v18c0 43 15 68 48 83c17 8 36 10 80 10c65 0 85 -3 105 -19c25 -18 33 -41 33 -92v-92c0 -51 -5 -73 -23 -112l-127 -263h150v-90h-266z" />
    <glyph glyph-name="three" unicode="3" horiz-adv-x="320" 
d="M27 277h113v-151v-5c0 -22 6 -33 20 -33s20 11 20 34v4v151v7c0 20 -9 30 -29 29h-6h-29v90h24c36 0 40 4 40 37v9v89v10c0 21 -7 30 -20 30c-14 0 -20 -10 -20 -33v-8v-100h-113v106v17c-1 49 7 69 31 89c12 9 32 16 54 18c8 1 24 1 48 1c64 0 86 -4 107 -24
c20 -18 25 -36 26 -84v-13v-90v-10c0 -49 -11 -69 -49 -88c39 -20 49 -39 49 -94v-142v-16c-1 -54 -10 -77 -41 -95c-18 -11 -37 -14 -94 -14s-80 5 -100 20c-22 18 -31 40 -31 80v10v169z" />
    <glyph glyph-name="four" unicode="4" horiz-adv-x="303" 
d="M157 0v143h-144v85l90 439h160v-434h34v-90h-34v-143h-106zM117 233h40v261z" />
    <glyph glyph-name="five" unicode="5" horiz-adv-x="320" 
d="M27 277h113v-150c0 -28 5 -39 20 -39c14 0 20 10 20 36v4v237c0 24 -5 32 -20 32c-12 0 -20 -9 -20 -22v-9v-23h-113v324h266v-90h-153v-118c19 20 40 29 65 29c56 0 88 -43 88 -115v-11v-249v-17c0 -39 -11 -66 -34 -80c-21 -14 -42 -18 -96 -18s-74 3 -94 13
c-27 14 -42 43 -42 80v17v169z" />
    <glyph glyph-name="six" unicode="6" horiz-adv-x="327" 
d="M297 437h-114v110c0 21 -6 31 -20 31c-12 0 -20 -10 -20 -26v-7v-162c24 19 41 25 65 25c55 0 89 -44 89 -115v-9v-173v-18c-1 -45 -17 -72 -52 -86c-18 -7 -32 -9 -84 -9c-61 0 -79 4 -99 20c-25 20 -32 40 -32 86v13v422v20c0 59 13 85 52 101c16 7 32 8 82 8
c56 0 75 -3 95 -15c27 -17 38 -43 38 -87v-9v-120zM183 136v146c0 26 -5 35 -20 35c-14 0 -20 -9 -20 -35v-152c0 -32 5 -42 20 -42c16 0 20 10 20 41v7z" />
    <glyph glyph-name="seven" unicode="7" horiz-adv-x="287" 
d="M13 0l144 577h-133v90h243v-114l-140 -553h-114z" />
    <glyph glyph-name="eight" unicode="8" horiz-adv-x="327" 
d="M79 357c-38 18 -49 38 -49 88v9v94v21c0 47 14 72 46 88c17 9 36 11 91 11c57 0 78 -4 98 -19c24 -19 32 -41 32 -88v-8v-101v-9c0 -44 -14 -68 -49 -86c38 -20 49 -41 49 -90v-15v-139v-15c0 -42 -11 -66 -37 -83c-19 -13 -40 -17 -101 -17c-62 0 -86 7 -107 29
c-18 19 -22 35 -22 86v131v21c0 54 9 71 49 92zM183 436v108v6c0 18 -7 28 -20 28s-20 -10 -20 -29v-5v-108v-5c1 -19 7 -29 20 -29s21 11 20 29v5zM183 126v145v6c0 25 -5 35 -20 35c-13 0 -20 -11 -20 -34v-6v-144v-6c1 -24 7 -34 20 -34c15 0 20 10 20 35v3z" />
    <glyph glyph-name="nine" unicode="9" horiz-adv-x="327" 
d="M30 233h113v-97v-6c0 -32 5 -42 20 -42s20 10 20 39v8v154c-25 -22 -39 -27 -62 -27c-27 0 -53 12 -70 32c-15 18 -21 40 -21 77v11v176c0 49 5 66 25 85c22 21 42 25 110 25c55 0 75 -3 94 -15c28 -19 38 -42 38 -88v-13v-439v-9c0 -43 -7 -64 -25 -80
c-23 -20 -45 -26 -98 -26c-74 0 -97 5 -117 24c-20 18 -27 39 -27 76v8v127zM143 540v-150v-3c0 -25 6 -35 20 -35c15 0 20 9 20 37v152c0 28 -5 37 -20 37c-14 0 -20 -10 -20 -35v-3z" />
    <glyph glyph-name="colon" unicode=":" horiz-adv-x="163" 
d="M40 350v113h83v-113h-83zM40 0v113h83v-113h-83z" />
    <glyph glyph-name="semicolon" unicode=";" horiz-adv-x="163" 
d="M40 350v113h83v-113h-83zM40 0v113h83v-112v-10c0 -60 -23 -85 -83 -91v51c20 4 30 17 30 37v11v1h-30z" />
    <glyph glyph-name="less" unicode="&#x3c;" 
d="M337 109l-286 150v69l286 150v-84l-190 -100v-2l190 -100v-83z" />
    <glyph glyph-name="equal" unicode="=" 
d="M347 367h-307v80h307v-80zM347 146h-307v80h307v-80z" />
    <glyph glyph-name="greater" unicode="&#x3e;" 
d="M337 260l-286 -152v84l190 99v2l-190 101v84l286 -150v-68z" />
    <glyph glyph-name="question" unicode="?" horiz-adv-x="340" 
d="M110 0v113h113v-113h-113zM110 153v109v10v6v5v8c0 14 1 17 11 35l54 97c8 14 12 29 12 47v9v65v4c0 20 -7 30 -20 30c-14 0 -20 -10 -20 -33v-108h-114v106v12c0 53 6 71 28 90c21 18 42 23 100 23c65 0 84 -3 105 -18c26 -18 34 -40 34 -90v-14v-83v-10
c0 -31 -3 -42 -17 -68l-45 -80l-5 -9c-9 -15 -10 -19 -10 -30v-4v-3v0v-1v-9v-13v-83h-113z" />
    <glyph glyph-name="A" unicode="A" horiz-adv-x="295" 
d="M7 0l61 667h154l67 -667h-113l-8 140h-51l-10 -140h-100zM123 230h40l-16 239c0 2 0 3 -1 5l-1 25c-1 8 -2 15 -2 20l-1 7v-7c-1 -8 -2 -16 -2 -23c-1 -12 -2 -21 -2 -22v-5z" />
    <glyph glyph-name="B" unicode="B" horiz-adv-x="328" 
d="M33 0v667h135h26c74 0 106 -30 106 -96v-21v-93v-14c0 -46 -10 -63 -48 -87c37 -17 48 -37 48 -86v-16v-143c0 -49 -6 -68 -25 -87c-19 -18 -39 -24 -78 -24h-17h-147zM147 403h6h7c22 0 27 6 27 31v9v92v5c0 30 -6 37 -29 37h-5h-6v-174zM147 90h11c23 0 29 5 29 27v9
v145c0 35 -6 42 -31 42h-9v-223z" />
    <glyph glyph-name="C" unicode="C" horiz-adv-x="325" 
d="M30 120v427v25c0 41 13 66 40 82c19 12 39 14 97 14c61 0 81 -5 103 -24c15 -13 23 -31 26 -55c1 -10 1 -16 1 -43v-109h-114v93v13c0 25 -6 35 -20 35c-13 0 -20 -10 -20 -33v-14v-395c0 -21 1 -27 2 -32c3 -10 9 -16 18 -16c14 0 20 11 20 35v14v140h114v-157
c0 -45 -1 -55 -7 -69c-9 -23 -30 -41 -55 -47c-14 -4 -34 -6 -72 -6c-54 0 -73 3 -93 15c-28 16 -40 41 -40 83v24z" />
    <glyph glyph-name="D" unicode="D" horiz-adv-x="330" 
d="M33 0v667h142h23c70 -1 102 -31 102 -96v-25v-416v-28c0 -73 -31 -102 -104 -102h-19h-144zM147 90h6h5c24 0 29 6 29 34v13v400v5c0 29 -4 35 -23 35h-6h-11v-487z" />
    <glyph glyph-name="E" unicode="E" horiz-adv-x="247" 
d="M33 0v667h187v-90h-73v-167h73v-90h-73v-230h73v-90h-187z" />
    <glyph glyph-name="F" unicode="F" horiz-adv-x="233" 
d="M33 0v667h184v-90h-70v-167h70v-90h-70v-320h-114z" />
    <glyph glyph-name="G" unicode="G" horiz-adv-x="325" 
d="M297 340v-340h-40l-24 48c-21 -37 -46 -50 -97 -50c-46 0 -77 14 -94 42c-10 17 -12 30 -12 72v436c0 55 2 67 18 86c21 27 45 34 115 34c64 0 88 -5 108 -24c19 -19 26 -39 26 -85v-20v-102h-114v106c0 25 -5 35 -20 35c-11 0 -19 -8 -19 -23v-7c-1 -3 -1 -5 -1 -5v-413
v-5c1 -28 5 -37 20 -37s20 10 20 37v2v123h-26v90h140z" />
    <glyph glyph-name="H" unicode="H" horiz-adv-x="333" 
d="M33 0v667h114v-257h40v257h113v-667h-113v320h-40v-320h-114z" />
    <glyph glyph-name="I" unicode="I" horiz-adv-x="180" 
d="M33 0v667h114v-667h-114z" />
    <glyph glyph-name="J" unicode="J" horiz-adv-x="308" 
d="M20 278h103v-149v-4c0 -27 6 -37 20 -37c15 0 20 10 20 37v4v538h114v-553v-11c-1 -40 -6 -58 -22 -76c-21 -22 -45 -29 -105 -29s-82 5 -103 24c-22 19 -27 37 -27 88v9v159z" />
    <glyph glyph-name="K" unicode="K" horiz-adv-x="313" 
d="M34 0v667h113v-253l43 253h103l-59 -288l73 -379h-110l-50 311v-311h-113z" />
    <glyph glyph-name="L" unicode="L" horiz-adv-x="223" 
d="M33 0v667h114v-577h70v-90h-184z" />
    <glyph glyph-name="M" unicode="M" horiz-adv-x="447" 
d="M33 0v667h160l30 -320l30 320h160v-667h-103v378l-50 -378h-73l-50 378v-378h-104z" />
    <glyph glyph-name="N" unicode="N" horiz-adv-x="347" 
d="M33 0v667h117l63 -313v313h100v-667h-116l-64 335v-335h-100z" />
    <glyph glyph-name="O" unicode="O" horiz-adv-x="327" 
d="M30 120v426v25c0 42 12 67 40 83c20 11 39 14 93 14c66 0 87 -5 109 -25c14 -14 21 -30 24 -53c1 -10 1 -14 1 -44v-426c0 -45 -1 -55 -7 -69c-9 -23 -30 -41 -55 -47c-14 -4 -34 -6 -72 -6c-54 0 -73 3 -93 15c-28 16 -40 41 -40 83v24zM183 137v393v14
c0 25 -6 34 -20 34c-10 0 -16 -6 -18 -17c-1 -5 -2 -12 -2 -31v-393c0 -22 1 -28 2 -33c3 -10 9 -16 18 -16c14 0 20 11 20 35v14z" />
    <glyph glyph-name="P" unicode="P" horiz-adv-x="320" 
d="M33 0v667h154h25c36 -2 63 -17 78 -44c8 -14 10 -30 10 -68v-14v-178v-12v-13c0 -36 -4 -53 -15 -69c-17 -26 -39 -36 -83 -36h-15h-40v-233h-114zM147 323h12h5c15 1 23 9 23 27v7v186v9c0 18 -7 25 -25 25h-5h-10v-254z" />
    <glyph glyph-name="Q" unicode="Q" horiz-adv-x="327" 
d="M292 -7l-40 -69c-50 13 -86 35 -125 75c-66 3 -97 33 -97 97v24v426v25c0 42 12 67 40 83c20 11 39 14 93 14c66 0 87 -5 109 -25c14 -14 21 -30 24 -53c1 -10 1 -14 1 -44v-426c0 -57 -2 -67 -17 -87s-36 -30 -66 -33c18 -5 32 -7 58 -7h14h6zM183 137v393v14
c0 25 -6 34 -20 34c-10 0 -16 -6 -18 -17c-1 -5 -2 -12 -2 -31v-393c0 -22 1 -28 2 -33c3 -10 9 -16 18 -16c14 0 20 11 20 35v14z" />
    <glyph glyph-name="R" unicode="R" horiz-adv-x="328" 
d="M33 0v667h147h20c40 -1 63 -10 81 -31c16 -19 19 -33 19 -83v-17v-119c0 -54 -7 -68 -48 -89c34 -12 48 -34 48 -77v-12v-239h-113v236v4l-1 11c0 25 -8 32 -32 32h-7v-283h-114zM147 577v-204h12h5c15 1 23 9 23 27v7v136v9c0 18 -7 25 -25 25h-5h-10z" />
    <glyph glyph-name="S" unicode="S" horiz-adv-x="323" 
d="M28 277h114v-154c0 -23 6 -34 20 -34s20 11 20 36v123c0 36 -2 39 -24 52l-6 4l-66 39c-48 28 -58 46 -58 107v106v8c0 49 10 72 39 89c21 12 40 15 101 15c54 0 72 -3 93 -18c25 -18 34 -41 34 -84v-13v-116h-113v102c0 32 -5 40 -20 40s-20 -9 -20 -37v-3v-91
c0 -23 1 -25 15 -34l93 -57c36 -23 45 -41 45 -94v-7v-147c0 -48 -6 -68 -27 -87c-20 -19 -43 -24 -110 -24c-51 0 -68 3 -87 13c-31 17 -43 42 -43 88v12v166z" />
    <glyph glyph-name="T" unicode="T" horiz-adv-x="253" 
d="M70 0v577h-63v90h240v-90h-63v-577h-114z" />
    <glyph glyph-name="U" unicode="U" horiz-adv-x="330" 
d="M298 667v-555v-13c0 -43 -9 -65 -35 -83c-22 -15 -39 -18 -105 -18c-59 0 -82 6 -103 28c-18 18 -23 36 -23 83v558h113v-539c0 -30 5 -40 20 -40s20 11 20 39v540h113z" />
    <glyph glyph-name="V" unicode="V" horiz-adv-x="288" 
d="M71 0l-64 667h113l25 -447l36 447h100l-64 -667h-146z" />
    <glyph glyph-name="W" unicode="W" horiz-adv-x="476" 
d="M69 0l-62 667h113l21 -365l27 365h144l24 -365l27 365h107l-64 -667h-127l-40 362l-43 -362h-127z" />
    <glyph glyph-name="X" unicode="X" horiz-adv-x="298" 
d="M10 0l53 351l-45 316h114l27 -240l26 240h103l-50 -316l49 -351h-114l-28 292l-32 -292h-103z" />
    <glyph glyph-name="Y" unicode="Y" horiz-adv-x="287" 
d="M90 0v267l-87 400h114l30 -259l30 259h106l-80 -400v-267h-113z" />
    <glyph glyph-name="Z" unicode="Z" horiz-adv-x="263" 
d="M17 0v83l116 494h-106v90h220v-84l-117 -493h117v-90h-230z" />
    <glyph glyph-name="bracketleft" unicode="[" horiz-adv-x="247" 
d="M72 -63v793h143v-90h-43v-613h43v-90h-143z" />
    <glyph glyph-name="backslash" unicode="\" horiz-adv-x="250" 
d="M250 -63h-92l-158 793h92z" />
    <glyph glyph-name="bracketright" unicode="]" horiz-adv-x="247" 
d="M32 -63v90h43v613h-43v90h143v-793h-143z" />
    <glyph glyph-name="asciicircum" unicode="^" 
d="M386 363h-96l-99 250h-2l-93 -250h-96l159 349h61z" />
    <glyph glyph-name="underscore" unicode="_" horiz-adv-x="500" 
d="M0 -223v90h500v-90h-500z" />
    <glyph glyph-name="grave" unicode="`" horiz-adv-x="257" 
d="M113 612l-46 103h96l27 -103h-77z" />
    <glyph glyph-name="a" unicode="a" horiz-adv-x="282" 
d="M123 357h-100v92c0 37 5 53 20 70c19 21 37 26 98 26c59 0 78 -6 96 -30c13 -17 17 -31 17 -66v-449h-100v23c-14 -16 -33 -25 -55 -25c-27 0 -52 14 -65 35c-8 14 -11 28 -11 65v94c0 56 3 61 47 91l84 58v95v7c0 17 -4 23 -15 23s-15 -5 -16 -19v-11v-79zM154 251
l-17 -12c-13 -9 -14 -10 -14 -22v-7v-7v-98c0 -22 4 -28 16 -28c11 0 15 6 15 26v148z" />
    <glyph glyph-name="b" unicode="b" horiz-adv-x="287" 
d="M30 0v667h100v-154c21 24 37 32 60 32c24 0 46 -11 58 -30c10 -15 13 -29 13 -73v-7v-340v-9c-1 -33 -3 -44 -14 -59c-13 -18 -34 -29 -59 -29c-22 0 -37 8 -58 29v-27h-100zM161 111v322v5c0 23 -3 28 -16 28c-12 0 -15 -5 -15 -28v-5v-322v-6c0 -23 3 -28 15 -28
c13 0 16 6 16 28v6z" />
    <glyph glyph-name="c" unicode="c" horiz-adv-x="282" 
d="M257 223v-121c0 -41 -3 -55 -15 -72c-17 -25 -38 -32 -96 -32c-62 0 -78 4 -96 22s-23 36 -23 78v9v335c0 36 2 49 10 65c17 29 39 38 99 38c72 0 92 -7 109 -37c10 -17 12 -27 12 -63v-135h-100v125v6v7c0 12 -5 18 -15 18c-12 0 -16 -6 -16 -26v-4v-324v-4v-7
c0 -18 5 -24 16 -24c13 0 15 5 15 30v5v111h100z" />
    <glyph glyph-name="d" unicode="d" horiz-adv-x="287" 
d="M157 667h100v-667h-100v27c-23 -23 -34 -29 -58 -29c-22 0 -42 10 -56 27c-12 16 -16 35 -16 71v10v327v12c0 41 2 52 12 68c12 21 34 32 59 32c24 0 40 -8 59 -32v154zM157 111v322v5c0 23 -3 28 -15 28s-16 -5 -16 -28v-5v-322v-6c0 -23 4 -28 16 -28s15 6 15 28v6z
" />
    <glyph glyph-name="e" unicode="e" horiz-adv-x="284" 
d="M157 200h100v-100c0 -45 -3 -59 -19 -76c-19 -21 -38 -26 -96 -26c-47 0 -71 5 -86 17c-20 16 -29 39 -29 70v10v358c0 31 5 50 19 66c18 21 36 26 100 26c49 0 68 -4 85 -19c18 -15 26 -36 26 -65v-8v-203h-131v-144c0 -22 4 -29 16 -29s15 6 15 25v3v95zM157 330v103v5
c0 23 -2 28 -15 28c-12 0 -16 -5 -16 -28v-5v-103h31z" />
    <glyph glyph-name="f" unicode="f" horiz-adv-x="197" 
d="M34 0v463h-27v80h27v19v14c-1 64 23 91 83 91h10h70v-77h-27h-13c-19 0 -24 -5 -24 -26v-5v-16h64v-80h-64v-463h-99z" />
    <glyph glyph-name="g" unicode="g" horiz-adv-x="287" 
d="M27 -127v77h91h6h4c27 0 29 2 29 24v8v45c-23 -23 -34 -29 -58 -29c-22 0 -42 10 -56 27c-12 16 -16 35 -16 71v10v327v12c0 41 2 52 12 68c12 21 34 32 59 32c24 0 40 -8 59 -32v30h100v-576c0 -66 -24 -93 -86 -93h-7zM157 111v322v7c0 20 -3 26 -15 26s-16 -5 -16 -28
v-5v-322v-6c0 -23 4 -28 16 -28s16 7 15 26v8z" />
    <glyph glyph-name="h" unicode="h" horiz-adv-x="289" 
d="M30 0v667h100v-152c22 22 39 30 61 30c41 0 70 -32 70 -78v-13v-454h-100v432v6c0 23 -3 28 -16 28c-12 0 -15 -6 -15 -26v-5v-435h-100z" />
    <glyph glyph-name="i" unicode="i" horiz-adv-x="160" 
d="M30 0v543h100v-543h-100zM30 584v83h100v-83h-100z" />
    <glyph glyph-name="j" unicode="j" horiz-adv-x="160" 
d="M-37 -127v77h31h4c26 0 32 6 32 35v7v551h100v-571v-15c-1 -35 -13 -59 -37 -74c-11 -7 -22 -9 -52 -9zM30 584v83h100v-83h-100z" />
    <glyph glyph-name="k" unicode="k" horiz-adv-x="280" 
d="M30 0v667h100v-338l40 214h103l-63 -243l63 -300h-103l-40 261v-261h-100z" />
    <glyph glyph-name="l" unicode="l" horiz-adv-x="160" 
d="M30 0v667h100v-667h-100z" />
    <glyph glyph-name="m" unicode="m" horiz-adv-x="420" 
d="M30 0v543h100v-29c20 23 37 31 62 31c26 0 45 -10 63 -35c21 25 39 35 63 35c27 0 51 -14 63 -35c8 -14 10 -27 10 -58v-17v-7v-428h-100v437v7c0 16 -4 22 -15 22c-12 0 -16 -6 -16 -29v-437h-99v442v5c0 14 -5 19 -15 19c-11 0 -16 -6 -16 -18v-5v-443h-100z" />
    <glyph glyph-name="n" unicode="n" horiz-adv-x="289" 
d="M30 0v543h100v-31c22 25 37 33 60 33c24 0 44 -10 57 -29c11 -16 14 -26 14 -61v-10v-445h-100v442v3c0 17 -4 23 -15 23s-16 -7 -16 -23v-3v-442h-100z" />
    <glyph glyph-name="o" unicode="o" horiz-adv-x="284" 
d="M257 445v-343c0 -41 -3 -55 -15 -72c-17 -25 -38 -32 -96 -32c-62 0 -78 4 -96 22s-23 36 -23 78v9v335c0 36 2 49 10 65c17 29 39 38 99 38c72 0 92 -7 109 -37c10 -17 12 -27 12 -63zM158 435l-1 6v7c0 12 -5 18 -15 18c-12 0 -15 -6 -15 -26v-4v-324v-4v-7
c0 -18 4 -24 15 -24c13 0 16 5 16 30v328z" />
    <glyph glyph-name="p" unicode="p" horiz-adv-x="289" 
d="M30 -127v670h100v-30c22 24 37 32 60 32c24 0 46 -11 58 -30c10 -15 13 -32 13 -69v-11v-340v-10c0 -30 -3 -44 -14 -58c-13 -18 -34 -29 -59 -29c-21 0 -36 8 -58 29v-154h-100zM161 111v322v5c0 23 -3 28 -16 28c-10 0 -15 -6 -15 -22v-6v-5v-322v-6
c0 -22 3 -28 15 -28s16 6 16 23v5v6z" />
    <glyph glyph-name="q" unicode="q" horiz-adv-x="289" 
d="M159 -127v156c-17 -22 -34 -31 -59 -31c-45 0 -72 32 -72 85v12v343v15c0 31 4 48 13 62c12 18 36 30 59 30c24 0 40 -9 59 -32v30h100v-670h-100zM159 111v322v7c0 20 -4 26 -16 26s-15 -5 -15 -28v-5v-322v-6c0 -23 3 -28 16 -28c11 0 15 7 15 26v8z" />
    <glyph glyph-name="r" unicode="r" horiz-adv-x="264" 
d="M30 0v543h100v-31c14 23 30 33 53 33c26 0 50 -14 61 -37c5 -11 7 -21 7 -44v-144h-90v123v6c0 12 -5 17 -15 17s-16 -6 -16 -17v-6v-443h-100z" />
    <glyph glyph-name="s" unicode="s" horiz-adv-x="284" 
d="M27 200h99v-93v-5c1 -18 5 -25 16 -25c12 0 15 6 15 25v5v83v17c0 15 0 15 -26 29l-60 35c-35 20 -44 38 -44 85v7v88v8c0 33 12 57 34 72c16 11 34 14 76 14c57 0 76 -4 93 -18s27 -38 27 -61v-9v-100h-100v85v6c1 12 -5 18 -14 18c-11 0 -17 -7 -17 -20v-3v-75v-8
c1 -18 3 -22 25 -34l61 -35c37 -21 45 -36 45 -78v-13v-101v-8c0 -40 -7 -59 -29 -76c-15 -12 -37 -17 -83 -17c-56 0 -76 5 -93 21c-18 17 -25 35 -25 65v20v6v90z" />
    <glyph glyph-name="t" unicode="t" horiz-adv-x="190" 
d="M7 463v80h27v124h99v-124h44v-80h-44v-347v-5c0 -32 2 -34 26 -34h6h12v-77h-51h-6c-31 0 -47 5 -62 19c-19 17 -24 35 -25 78l1 9v357h-27z" />
    <glyph glyph-name="u" unicode="u" horiz-adv-x="289" 
d="M259 543v-543h-100v31c-22 -25 -37 -33 -60 -33c-24 0 -44 11 -57 29c-11 16 -14 26 -14 61v10v445h100v-442v-3c0 -17 4 -23 15 -23s16 7 16 23v3v442h100z" />
    <glyph glyph-name="v" unicode="v" horiz-adv-x="263" 
d="M73 0l-70 543h107l22 -336l21 336h107l-70 -543h-117z" />
    <glyph glyph-name="w" unicode="w" horiz-adv-x="397" 
d="M70 0l-67 543h107l21 -305l22 305h91l21 -305l22 305h106l-60 -543h-106l-28 257l-22 -257h-107z" />
    <glyph glyph-name="x" unicode="x" horiz-adv-x="273" 
d="M3 0l60 290l-43 253h97l20 -192l17 192h96l-38 -253l58 -290h-107l-26 222l-27 -222h-107z" />
    <glyph glyph-name="y" unicode="y" horiz-adv-x="265" 
d="M-3 -127v77h44h5c27 0 37 8 37 29c0 6 -1 21 -3 35l-1 8l-74 521h107l21 -336l22 336h106l-78 -557l-2 -14c-5 -42 -10 -57 -23 -72c-16 -19 -37 -27 -72 -27h-7h-82z" />
    <glyph glyph-name="z" unicode="z" horiz-adv-x="260" 
d="M14 0v91l133 372h-114v80h214v-86l-134 -377h134v-80h-233z" />
    <glyph glyph-name="bar" unicode="|" horiz-adv-x="137" 
d="M104 -235h-71v1000h71v-1000z" />
    <glyph glyph-name="asciitilde" unicode="~" 
d="M369 307c-25 -49 -55 -80 -98 -80c-29 0 -60 9 -84 28c-23 17 -43 28 -65 28c-23 0 -43 -28 -55 -58l-50 58c22 43 53 79 102 79c29 0 50 -6 81 -28c31 -21 44 -27 66 -27s41 25 54 58z" />
    <glyph glyph-name="uni00A0" unicode="&#xa0;" horiz-adv-x="160" 
 />
    <glyph glyph-name="exclamdown" unicode="&#xa1;" horiz-adv-x="233" 
d="M60 667h113v-113h-113v113zM73 513h87l13 -513h-113z" />
    <glyph glyph-name="cent" unicode="&#xa2;" horiz-adv-x="297" 
d="M187 13h-80v54c-22 1 -38 8 -51 21c-17 17 -23 35 -23 78v8v335c0 42 4 56 17 74s28 25 57 28v56h80v-56c32 -2 52 -12 65 -35c10 -17 12 -28 12 -64v-134h-100v125v5v8c-1 12 -5 18 -15 18c-12 0 -16 -6 -16 -26v-5v-324v-3v-8c0 -17 5 -24 16 -24c12 0 15 6 15 31v4
v112h100v-122c0 -40 -3 -55 -15 -72c-13 -19 -34 -29 -62 -31v-53z" />
    <glyph glyph-name="sterling" unicode="&#xa3;" horiz-adv-x="357" 
d="M323 277v-166v-15c0 -64 -32 -96 -96 -96h-10h-154v313h-43v90h43v134v23c0 48 8 71 33 89c20 16 40 19 98 19c64 0 88 -6 109 -30c17 -19 20 -35 20 -85v-116h-106v102v3c0 27 -6 36 -21 36c-14 0 -19 -9 -19 -35v-4v-136h100v-90h-100v-223h11h3c23 0 26 4 26 40v4v143
h106z" />
    <glyph glyph-name="yen" unicode="&#xa5;" horiz-adv-x="320" 
d="M107 0v250h-77v73h64l-8 40h-56v74h40l-50 230h113l29 -259l31 259h100l-42 -230h42v-74h-55l-8 -40h63v-73h-73v-250h-113z" />
    <glyph glyph-name="brokenbar" unicode="&#xa6;" horiz-adv-x="137" 
d="M104 343h-71v422h71v-422zM104 -235h-71v424h71v-424z" />
    <glyph glyph-name="dieresis" unicode="&#xa8;" horiz-adv-x="343" 
d="M67 623v80h86v-80h-86zM190 623v80h87v-80h-87z" />
    <glyph glyph-name="guillemotleft" unicode="&#xab;" horiz-adv-x="307" 
d="M267 50h-77l-37 230l37 230h77l-37 -230zM160 50h-77l-36 230l36 230h77l-37 -230z" />
    <glyph glyph-name="logicalnot" unicode="&#xac;" 
d="M347 139h-80v188h-227v80h307v-268z" />
    <glyph glyph-name="uni00AD" unicode="&#xad;" horiz-adv-x="200" 
d="M40 237v90h120v-90h-120z" />
    <glyph glyph-name="plusminus" unicode="&#xb1;" 
d="M347 0h-308v80h308v-80zM347 334h-114v-194h-80v194h-114v80h114v194h80v-194h114v-80z" />
    <glyph glyph-name="acute" unicode="&#xb4;" horiz-adv-x="257" 
d="M143 612h-76l26 103h97z" />
    <glyph glyph-name="periodcentered" unicode="&#xb7;" horiz-adv-x="163" 
d="M40 277v113h83v-113h-83z" />
    <glyph glyph-name="guillemotright" unicode="&#xbb;" horiz-adv-x="307" 
d="M40 50l37 230l-37 230h77l36 -230l-36 -230h-77zM147 50l36 230l-36 230h76l37 -230l-37 -230h-76z" />
    <glyph glyph-name="questiondown" unicode="&#xbf;" horiz-adv-x="340" 
d="M117 554v113h113v-113h-113zM117 513h113v-109v-9v-7v-5v-7c0 -14 -1 -17 -11 -35l-54 -97c-8 -14 -12 -29 -12 -48v-8v-65v-4c1 -20 7 -31 21 -31c13 0 19 11 19 33v109h114v-106v-12c0 -53 -6 -71 -28 -91c-21 -18 -42 -23 -100 -23c-64 0 -83 4 -105 19
c-26 18 -34 39 -34 89v14v84v9c0 31 3 43 17 68l45 81l5 9c9 15 10 19 10 30v4v4v9v12v83z" />
    <glyph glyph-name="Agrave" unicode="&#xc0;" horiz-adv-x="295" 
d="M7 0l61 667h154l67 -667h-113l-8 140h-51l-10 -140h-100zM123 230h40l-16 239c0 2 0 3 -1 5l-1 25c-1 8 -2 15 -2 20l-1 7v-7c-1 -8 -2 -16 -2 -23c-1 -12 -2 -21 -2 -22v-5zM105 735l-46 103h96l27 -103h-77z" />
    <glyph glyph-name="Aacute" unicode="&#xc1;" horiz-adv-x="295" 
d="M7 0l61 667h154l67 -667h-113l-8 140h-51l-10 -140h-100zM123 230h40l-16 239c0 2 0 3 -1 5l-1 25c-1 8 -2 15 -2 20l-1 7v-7c-1 -8 -2 -16 -2 -23c-1 -12 -2 -21 -2 -22v-5zM183 735h-76l26 103h97z" />
    <glyph glyph-name="Acircumflex" unicode="&#xc2;" horiz-adv-x="295" 
d="M7 0l61 667h154l67 -667h-113l-8 140h-51l-10 -140h-100zM123 230h40l-16 239c0 2 0 3 -1 5l-1 25c-1 8 -2 15 -2 20l-1 7v-7c-1 -8 -2 -16 -2 -23c-1 -12 -2 -21 -2 -22v-5zM40 735l46 103h120l47 -103h-83l-22 61l-25 -61h-83z" />
    <glyph glyph-name="Atilde" unicode="&#xc3;" horiz-adv-x="295" 
d="M7 0l61 667h154l67 -667h-113l-8 140h-51l-10 -140h-100zM123 230h40l-16 239c0 2 0 3 -1 5l-1 25c-1 8 -2 15 -2 20l-1 7v-7c-1 -8 -2 -16 -2 -23c-1 -12 -2 -21 -2 -22v-5zM108 742h-67c-1 9 -2 16 -2 21c0 41 25 64 66 64c13 0 27 -2 43 -6l16 -5c3 -1 6 -1 8 -1
c8 0 13 6 14 16h67c2 -10 2 -16 2 -23c0 -35 -22 -60 -54 -60c-12 0 -24 1 -45 6l-19 4c-4 1 -8 2 -11 2c-11 0 -18 -7 -18 -18z" />
    <glyph glyph-name="Adieresis" unicode="&#xc4;" horiz-adv-x="295" 
d="M7 0l61 667h154l67 -667h-113l-8 140h-51l-10 -140h-100zM123 230h40l-16 239c0 2 0 3 -1 5l-1 25c-1 8 -2 15 -2 20l-1 7v-7c-1 -8 -2 -16 -2 -23c-1 -12 -2 -21 -2 -22v-5zM43 746v80h86v-80h-86zM166 746v80h87v-80h-87z" />
    <glyph glyph-name="Aring" unicode="&#xc5;" horiz-adv-x="295" 
d="M7 0l61 667h154l67 -667h-113l-8 140h-51l-10 -140h-100zM123 230h40l-16 239c0 2 0 3 -1 5l-1 25c-1 8 -2 15 -2 20l-1 7v-7c-1 -8 -2 -16 -2 -23c-1 -12 -2 -21 -2 -22v-5zM67 792c0 45 35 80 80 80c44 0 80 -35 80 -80c0 -44 -36 -80 -80 -80c-45 0 -80 36 -80 80z
M107 792c0 -22 18 -40 40 -40s40 18 40 40s-18 40 -40 40s-40 -18 -40 -40z" />
    <glyph glyph-name="AE" unicode="&#xc6;" horiz-adv-x="353" 
d="M0 0l60 667h267v-90h-67v-167h67v-90h-67v-230h67v-90h-180v140h-36l-11 -140h-100zM118 230h29v354z" />
    <glyph glyph-name="Ccedilla" unicode="&#xc7;" horiz-adv-x="325" 
d="M180 -103h-71l29 102c-76 1 -108 30 -108 98v23v427v25c0 41 13 66 40 82c19 12 39 14 97 14c61 0 81 -5 103 -24c15 -13 23 -31 26 -55c1 -10 1 -16 1 -43v-109h-114v93v13c0 25 -6 35 -20 35c-13 0 -20 -10 -20 -33v-14v-395c0 -39 4 -47 20 -47c15 0 20 9 20 35v13
v140h114v-157v-24c-1 -67 -33 -96 -105 -97z" />
    <glyph glyph-name="Egrave" unicode="&#xc8;" horiz-adv-x="247" 
d="M33 0v667h187v-90h-73v-167h73v-90h-73v-230h73v-90h-187zM86 735l-46 103h96l27 -103h-77z" />
    <glyph glyph-name="Eacute" unicode="&#xc9;" horiz-adv-x="247" 
d="M33 0v667h187v-90h-73v-167h73v-90h-73v-230h73v-90h-187zM162 735h-76l26 103h97z" />
    <glyph glyph-name="Ecircumflex" unicode="&#xca;" horiz-adv-x="247" 
d="M33 0v667h187v-90h-73v-167h73v-90h-73v-230h73v-90h-187zM13 735l46 103h120l47 -103h-83l-22 61l-25 -61h-83z" />
    <glyph glyph-name="Edieresis" unicode="&#xcb;" horiz-adv-x="247" 
d="M33 0v667h187v-90h-73v-167h73v-90h-73v-230h73v-90h-187zM20 746v80h86v-80h-86zM143 746v80h87v-80h-87z" />
    <glyph glyph-name="Igrave" unicode="&#xcc;" horiz-adv-x="180" 
d="M33 0v667h114v-667h-114zM46 735l-46 103h96l27 -103h-77z" />
    <glyph glyph-name="Iacute" unicode="&#xcd;" horiz-adv-x="180" 
d="M33 0v667h114v-667h-114zM126 735h-76l26 103h97z" />
    <glyph glyph-name="Icircumflex" unicode="&#xce;" horiz-adv-x="180" 
d="M33 0v667h114v-667h-114zM-17 735l46 103h120l47 -103h-83l-22 61l-25 -61h-83z" />
    <glyph glyph-name="Idieresis" unicode="&#xcf;" horiz-adv-x="180" 
d="M33 0v667h114v-667h-114zM-15 746v80h86v-80h-86zM108 746v80h87v-80h-87z" />
    <glyph glyph-name="Ntilde" unicode="&#xd1;" horiz-adv-x="347" 
d="M33 0v667h117l63 -313v313h100v-667h-116l-64 335v-335h-100zM133 742h-67c-1 9 -2 16 -2 21c0 41 25 64 66 64c13 0 27 -2 43 -6l16 -5c3 -1 6 -1 8 -1c8 0 13 6 14 16h67c2 -10 2 -16 2 -23c0 -35 -22 -60 -54 -60c-12 0 -24 1 -45 6l-19 4c-4 1 -8 2 -11 2
c-11 0 -18 -7 -18 -18z" />
    <glyph glyph-name="Ograve" unicode="&#xd2;" horiz-adv-x="327" 
d="M30 120v426v25c0 42 12 67 40 83c20 11 39 14 93 14c66 0 87 -5 109 -25c14 -14 21 -30 24 -53c1 -10 1 -14 1 -44v-426c0 -45 -1 -55 -7 -69c-9 -23 -30 -41 -55 -47c-14 -4 -34 -6 -72 -6c-54 0 -73 3 -93 15c-28 16 -40 41 -40 83v24zM183 137v393v14
c0 25 -6 34 -20 34c-10 0 -16 -6 -18 -17c-1 -5 -2 -12 -2 -31v-393c0 -22 1 -28 2 -33c3 -10 9 -16 18 -16c14 0 20 11 20 35v14zM126 735l-46 103h96l27 -103h-77z" />
    <glyph glyph-name="Oacute" unicode="&#xd3;" horiz-adv-x="327" 
d="M30 120v426v25c0 42 12 67 40 83c20 11 39 14 93 14c66 0 87 -5 109 -25c14 -14 21 -30 24 -53c1 -10 1 -14 1 -44v-426c0 -45 -1 -55 -7 -69c-9 -23 -30 -41 -55 -47c-14 -4 -34 -6 -72 -6c-54 0 -73 3 -93 15c-28 16 -40 41 -40 83v24zM183 137v393v14
c0 25 -6 34 -20 34c-10 0 -16 -6 -18 -17c-1 -5 -2 -12 -2 -31v-393c0 -22 1 -28 2 -33c3 -10 9 -16 18 -16c14 0 20 11 20 35v14zM200 737h-76l26 103h97z" />
    <glyph glyph-name="Ocircumflex" unicode="&#xd4;" horiz-adv-x="327" 
d="M40 120v426v25c0 42 12 67 40 83c20 11 39 14 93 14c66 0 87 -5 109 -25c14 -14 21 -30 24 -53c1 -10 1 -14 1 -44v-426c0 -45 -1 -55 -7 -69c-9 -23 -30 -41 -55 -47c-14 -4 -34 -6 -72 -6c-54 0 -73 3 -93 15c-28 16 -40 41 -40 83v24zM193 137v393v14
c0 25 -6 34 -20 34c-10 0 -16 -6 -18 -17c-1 -5 -2 -12 -2 -31v-393c0 -22 1 -28 2 -33c3 -10 9 -16 18 -16c14 0 20 11 20 35v14zM67 735l46 103h120l47 -103h-83l-22 61l-25 -61h-83z" />
    <glyph glyph-name="Otilde" unicode="&#xd5;" horiz-adv-x="327" 
d="M30 120v426v25c0 42 12 67 40 83c20 11 39 14 93 14c66 0 87 -5 109 -25c14 -14 21 -30 24 -53c1 -10 1 -14 1 -44v-426c0 -45 -1 -55 -7 -69c-9 -23 -30 -41 -55 -47c-14 -4 -34 -6 -72 -6c-54 0 -73 3 -93 15c-28 16 -40 41 -40 83v24zM183 137v393v14
c0 25 -6 34 -20 34c-10 0 -16 -6 -18 -17c-1 -5 -2 -12 -2 -31v-393c0 -22 1 -28 2 -33c3 -10 9 -16 18 -16c14 0 20 11 20 35v14zM123 742h-67c-1 9 -2 16 -2 21c0 41 25 64 66 64c13 0 27 -2 43 -6l16 -5c3 -1 6 -1 8 -1c8 0 13 6 14 16h67c2 -10 2 -16 2 -23
c0 -35 -22 -60 -54 -60c-12 0 -24 1 -45 6l-19 4c-4 1 -8 2 -11 2c-11 0 -18 -7 -18 -18z" />
    <glyph glyph-name="Odieresis" unicode="&#xd6;" horiz-adv-x="327" 
d="M30 120v426v25c0 42 12 67 40 83c20 11 39 14 93 14c66 0 87 -5 109 -25c14 -14 21 -30 24 -53c1 -10 1 -14 1 -44v-426c0 -45 -1 -55 -7 -69c-9 -23 -30 -41 -55 -47c-14 -4 -34 -6 -72 -6c-54 0 -73 3 -93 15c-28 16 -40 41 -40 83v24zM183 137v393v14
c0 25 -6 34 -20 34c-10 0 -16 -6 -18 -17c-1 -5 -2 -12 -2 -31v-393c0 -22 1 -28 2 -33c3 -10 9 -16 18 -16c14 0 20 11 20 35v14zM58 746v80h86v-80h-86zM181 746v80h87v-80h-87z" />
    <glyph glyph-name="multiply" unicode="&#xd7;" 
d="M382 171l-58 -57l-129 130l-131 -131l-59 58l131 129l-121 122l56 59l124 -122l123 122l57 -59l-123 -122z" />
    <glyph glyph-name="Oslash" unicode="&#xd8;" horiz-adv-x="327" 
d="M33 63c-2 12 -3 21 -3 33v24v426v25c0 42 12 67 40 83c20 12 38 14 96 14c30 0 45 -1 62 -3l15 46l80 -26l-28 -86c2 -14 2 -18 2 -53v-426c0 -45 -1 -55 -7 -69c-9 -23 -30 -41 -55 -47c-15 -4 -34 -6 -73 -6c-30 0 -46 1 -61 4l-15 -46l-80 25zM183 137v393v14
c0 25 -6 34 -20 34c-10 0 -16 -6 -18 -17c-1 -5 -2 -12 -2 -31v-393c0 -22 1 -28 2 -33c3 -10 9 -16 18 -16c14 0 20 11 20 35v14z" />
    <glyph glyph-name="Ugrave" unicode="&#xd9;" horiz-adv-x="330" 
d="M298 667v-555v-13c0 -43 -9 -65 -35 -83c-22 -15 -39 -18 -105 -18c-59 0 -82 6 -103 28c-18 18 -23 36 -23 83v558h113v-539c0 -30 5 -40 20 -40s20 11 20 39v540h113zM121 735l-46 103h96l27 -103h-77z" />
    <glyph glyph-name="Uacute" unicode="&#xda;" horiz-adv-x="330" 
d="M298 667v-555v-13c0 -43 -9 -65 -35 -83c-22 -15 -39 -18 -105 -18c-59 0 -82 6 -103 28c-18 18 -23 36 -23 83v558h113v-539c0 -30 5 -40 20 -40s20 11 20 39v540h113zM200 735h-76l26 103h97z" />
    <glyph glyph-name="Ucircumflex" unicode="&#xdb;" horiz-adv-x="330" 
d="M298 667v-555v-13c0 -43 -9 -65 -35 -83c-22 -15 -39 -18 -105 -18c-59 0 -82 6 -103 28c-18 18 -23 36 -23 83v558h113v-539c0 -30 5 -40 20 -40s20 11 20 39v540h113zM59 735l46 103h120l47 -103h-83l-22 61l-25 -61h-83z" />
    <glyph glyph-name="Udieresis" unicode="&#xdc;" horiz-adv-x="330" 
d="M298 667v-555v-13c0 -43 -9 -65 -35 -83c-22 -15 -39 -18 -105 -18c-59 0 -82 6 -103 28c-18 18 -23 36 -23 83v558h113v-539c0 -30 5 -40 20 -40s20 11 20 39v540h113zM60 746v80h86v-80h-86zM183 746v80h87v-80h-87z" />
    <glyph glyph-name="germandbls" unicode="&#xdf;" horiz-adv-x="290" 
d="M30 0v556c0 53 3 66 18 84c19 23 38 28 95 28c65 0 85 -6 104 -31c13 -18 16 -32 16 -77v-115v-11c1 -38 -9 -56 -42 -76c35 -18 42 -33 42 -82v-12v-168c0 -34 -1 -43 -9 -57c-16 -27 -40 -40 -73 -39h-13h-25v90c16 0 20 5 20 26v8v159v12c0 11 -6 18 -17 18h-3v90
c16 1 20 7 20 27v12v102v10c0 17 -4 22 -15 22c-14 0 -18 -5 -18 -22v-10v-544h-100z" />
    <glyph glyph-name="agrave" unicode="&#xe0;" horiz-adv-x="282" 
d="M123 357h-100v92c0 37 5 53 20 70c19 21 37 26 98 26c59 0 78 -6 96 -30c13 -17 17 -31 17 -66v-449h-100v23c-14 -16 -33 -25 -55 -25c-27 0 -52 14 -65 35c-8 14 -11 28 -11 65v94c0 56 3 61 47 91l84 58v95v7c0 17 -4 23 -15 23s-15 -5 -16 -19v-11v-79zM154 251
l-17 -12c-13 -9 -14 -10 -14 -22v-7v-7v-98c0 -22 4 -28 16 -28c11 0 15 6 15 26v148zM102 612l-46 103h96l27 -103h-77z" />
    <glyph glyph-name="aacute" unicode="&#xe1;" horiz-adv-x="282" 
d="M123 357h-100v92c0 37 5 53 20 70c19 21 37 26 98 26c59 0 78 -6 96 -30c13 -17 17 -31 17 -66v-449h-100v23c-14 -16 -33 -25 -55 -25c-27 0 -52 14 -65 35c-8 14 -11 28 -11 65v94c0 56 3 61 47 91l84 58v95v7c0 17 -4 23 -15 23s-15 -5 -16 -19v-11v-79zM154 251
l-17 -12c-13 -9 -14 -10 -14 -22v-7v-7v-98c0 -22 4 -28 16 -28c11 0 15 6 15 26v148zM178 612h-76l26 103h97z" />
    <glyph glyph-name="acircumflex" unicode="&#xe2;" horiz-adv-x="282" 
d="M123 357h-100v92c0 37 5 53 20 70c19 21 37 26 98 26c59 0 78 -6 96 -30c13 -17 17 -31 17 -66v-449h-100v23c-14 -16 -33 -25 -55 -25c-27 0 -52 14 -65 35c-8 14 -11 28 -11 65v94c0 56 3 61 47 91l84 58v95v7c0 17 -4 23 -15 23s-15 -5 -16 -19v-11v-79zM154 251
l-17 -12c-13 -9 -14 -10 -14 -22v-7v-7v-98c0 -22 4 -28 16 -28c11 0 15 6 15 26v148zM34 612l46 103h120l47 -103h-83l-22 61l-25 -61h-83z" />
    <glyph glyph-name="atilde" unicode="&#xe3;" horiz-adv-x="282" 
d="M123 357h-100v92c0 37 5 53 20 70c19 21 37 26 98 26c59 0 78 -6 96 -30c13 -17 17 -31 17 -66v-449h-100v23c-14 -16 -33 -25 -55 -25c-27 0 -52 14 -65 35c-8 14 -11 28 -11 65v94c0 56 3 61 47 91l84 58v95v7c0 17 -4 23 -15 23s-15 -5 -16 -19v-11v-79zM154 251
l-17 -12c-13 -9 -14 -10 -14 -22v-7v-7v-98c0 -22 4 -28 16 -28c11 0 15 6 15 26v148zM101 619h-67c-1 9 -2 16 -2 21c0 41 25 64 66 64c13 0 27 -2 43 -6l16 -5c3 -1 6 -1 8 -1c8 0 13 6 14 16h67c2 -10 2 -16 2 -23c0 -35 -22 -60 -54 -60c-12 0 -24 1 -45 6l-19 4
c-4 1 -8 2 -11 2c-11 0 -18 -7 -18 -18z" />
    <glyph glyph-name="adieresis" unicode="&#xe4;" horiz-adv-x="282" 
d="M123 357h-100v92c0 37 5 53 20 70c19 21 37 26 98 26c59 0 78 -6 96 -30c13 -17 17 -31 17 -66v-449h-100v23c-14 -16 -33 -25 -55 -25c-27 0 -52 14 -65 35c-8 14 -11 28 -11 65v94c0 56 3 61 47 91l84 58v95v7c0 17 -4 23 -15 23s-15 -5 -16 -19v-11v-79zM154 251
l-17 -12c-13 -9 -14 -10 -14 -22v-7v-7v-98c0 -22 4 -28 16 -28c11 0 15 6 15 26v148zM36 623v80h86v-80h-86zM159 623v80h87v-80h-87z" />
    <glyph glyph-name="aring" unicode="&#xe5;" horiz-adv-x="282" 
d="M123 357h-100v92c0 37 5 53 20 70c19 21 37 26 98 26c59 0 78 -6 96 -30c13 -17 17 -31 17 -66v-449h-100v23c-14 -16 -33 -25 -55 -25c-27 0 -52 14 -65 35c-8 14 -11 28 -11 65v94c0 56 3 61 47 91l84 58v95v7c0 17 -4 23 -15 23s-15 -5 -16 -19v-11v-79zM154 251
l-17 -12c-13 -9 -14 -10 -14 -22v-7v-7v-98c0 -22 4 -28 16 -28c11 0 15 6 15 26v148zM61 663c0 45 35 80 80 80c44 0 80 -35 80 -80c0 -44 -36 -80 -80 -80c-45 0 -80 36 -80 80zM101 663c0 -22 18 -40 40 -40s40 18 40 40s-18 40 -40 40s-40 -18 -40 -40z" />
    <glyph glyph-name="ae" unicode="&#xe6;" horiz-adv-x="411" 
d="M285 200h100v-107c0 -31 -3 -45 -12 -60c-16 -25 -40 -35 -84 -35c-54 0 -69 7 -82 37c-19 -33 -28 -37 -88 -37c-46 0 -64 7 -80 29c-12 15 -16 30 -16 62v98v12c0 42 7 57 33 75l7 5l91 62v97v4c0 19 -4 24 -16 24c-11 0 -15 -6 -15 -26v-83h-100v92c0 33 3 47 14 63
c17 25 39 33 88 33c50 0 68 -8 82 -37c16 31 29 37 73 37c34 0 53 -3 68 -11c23 -13 37 -39 37 -71v-13v-200h-131v-140v-11c1 -16 5 -22 16 -22c10 0 15 7 15 22v4v97zM154 251l-17 -12c-13 -9 -14 -10 -14 -22v-7v-7v-98c0 -22 4 -28 16 -28c11 0 15 6 15 26v148zM285 330
v103v5c0 23 -3 28 -16 28c-12 0 -15 -5 -15 -28v-5v-103h31z" />
    <glyph glyph-name="ccedilla" unicode="&#xe7;" horiz-adv-x="282" 
d="M159 -103h-71l30 102h-7c-31 1 -46 6 -61 21c-18 18 -23 36 -23 78v9v335c0 36 2 49 10 65c17 29 39 38 99 38c72 0 92 -7 109 -37c10 -17 12 -27 12 -63v-135h-100v125v6v7c0 12 -5 18 -15 18c-12 0 -16 -6 -16 -26v-4v-324v-4v-7c0 -18 5 -24 16 -24c13 0 15 5 15 30v5
v111h100v-121c0 -49 -6 -68 -27 -86c-14 -11 -32 -16 -59 -17z" />
    <glyph glyph-name="egrave" unicode="&#xe8;" horiz-adv-x="284" 
d="M157 200h100v-100c0 -45 -3 -59 -19 -76c-19 -21 -38 -26 -96 -26c-47 0 -71 5 -86 17c-20 16 -29 39 -29 70v10v358c0 31 5 50 19 66c18 21 36 26 100 26c49 0 68 -4 85 -19c18 -15 26 -36 26 -65v-8v-203h-131v-144c0 -22 4 -29 16 -29s15 6 15 25v3v95zM157 330v103v5
c0 23 -2 28 -15 28c-12 0 -16 -5 -16 -28v-5v-103h31zM100 612l-46 103h96l27 -103h-77z" />
    <glyph glyph-name="eacute" unicode="&#xe9;" horiz-adv-x="284" 
d="M157 200h100v-100c0 -45 -3 -59 -19 -76c-19 -21 -38 -26 -96 -26c-47 0 -71 5 -86 17c-20 16 -29 39 -29 70v10v358c0 31 5 50 19 66c18 21 36 26 100 26c49 0 68 -4 85 -19c18 -15 26 -36 26 -65v-8v-203h-131v-144c0 -22 4 -29 16 -29s15 6 15 25v3v95zM157 330v103v5
c0 23 -2 28 -15 28c-12 0 -16 -5 -16 -28v-5v-103h31zM176 612h-76l26 103h97z" />
    <glyph glyph-name="ecircumflex" unicode="&#xea;" horiz-adv-x="284" 
d="M157 200h100v-100c0 -45 -3 -59 -19 -76c-19 -21 -38 -26 -96 -26c-47 0 -71 5 -86 17c-20 16 -29 39 -29 70v10v358c0 31 5 50 19 66c18 21 36 26 100 26c49 0 68 -4 85 -19c18 -15 26 -36 26 -65v-8v-203h-131v-144c0 -22 4 -29 16 -29s15 6 15 25v3v95zM157 330v103v5
c0 23 -2 28 -15 28c-12 0 -16 -5 -16 -28v-5v-103h31zM36 612l46 103h120l47 -103h-83l-22 61l-25 -61h-83z" />
    <glyph glyph-name="edieresis" unicode="&#xeb;" horiz-adv-x="284" 
d="M157 200h100v-100c0 -45 -3 -59 -19 -76c-19 -21 -38 -26 -96 -26c-47 0 -71 5 -86 17c-20 16 -29 39 -29 70v10v358c0 31 5 50 19 66c18 21 36 26 100 26c49 0 68 -4 85 -19c18 -15 26 -36 26 -65v-8v-203h-131v-144c0 -22 4 -29 16 -29s15 6 15 25v3v95zM157 330v103v5
c0 23 -2 28 -15 28c-12 0 -16 -5 -16 -28v-5v-103h31zM37 623v80h86v-80h-86zM160 623v80h87v-80h-87z" />
    <glyph glyph-name="igrave" unicode="&#xec;" horiz-adv-x="160" 
d="M30 0v543h100v-543h-100zM38 612l-46 103h96l27 -103h-77z" />
    <glyph glyph-name="iacute" unicode="&#xed;" horiz-adv-x="160" 
d="M30 0v543h100v-543h-100zM119 612h-76l26 103h97z" />
    <glyph glyph-name="icircumflex" unicode="&#xee;" horiz-adv-x="160" 
d="M30 0v543h100v-543h-100zM-27 612l46 103h120l47 -103h-83l-22 61l-25 -61h-83z" />
    <glyph glyph-name="idieresis" unicode="&#xef;" horiz-adv-x="160" 
d="M30 0v543h100v-543h-100zM-25 623v80h86v-80h-86zM98 623v80h87v-80h-87z" />
    <glyph glyph-name="ntilde" unicode="&#xf1;" horiz-adv-x="289" 
d="M30 0v543h100v-31c22 25 37 33 60 33c24 0 44 -10 57 -29c11 -16 14 -26 14 -61v-10v-445h-100v442v3c0 17 -4 23 -15 23s-16 -7 -16 -23v-3v-442h-100zM105 619h-67c-1 9 -2 16 -2 21c0 41 25 64 66 64c13 0 27 -2 43 -6l16 -5c3 -1 6 -1 8 -1c8 0 13 6 14 16h67
c2 -10 2 -16 2 -23c0 -35 -22 -60 -54 -60c-12 0 -24 1 -45 6l-19 4c-4 1 -8 2 -11 2c-11 0 -18 -7 -18 -18z" />
    <glyph glyph-name="ograve" unicode="&#xf2;" horiz-adv-x="284" 
d="M257 445v-343c0 -41 -3 -55 -15 -72c-17 -25 -38 -32 -96 -32c-62 0 -78 4 -96 22s-23 36 -23 78v9v335c0 36 2 49 10 65c17 29 39 38 99 38c72 0 92 -7 109 -37c10 -17 12 -27 12 -63zM158 435l-1 6v7c0 12 -5 18 -15 18c-12 0 -15 -6 -15 -26v-4v-324v-4v-7
c0 -18 4 -24 15 -24c13 0 16 5 16 30v328zM100 612l-46 103h96l27 -103h-77z" />
    <glyph glyph-name="oacute" unicode="&#xf3;" horiz-adv-x="284" 
d="M257 445v-343c0 -41 -3 -55 -15 -72c-17 -25 -38 -32 -96 -32c-62 0 -78 4 -96 22s-23 36 -23 78v9v335c0 36 2 49 10 65c17 29 39 38 99 38c72 0 92 -7 109 -37c10 -17 12 -27 12 -63zM158 435l-1 6v7c0 12 -5 18 -15 18c-12 0 -15 -6 -15 -26v-4v-324v-4v-7
c0 -18 4 -24 15 -24c13 0 16 5 16 30v328zM179 612h-76l26 103h97z" />
    <glyph glyph-name="ocircumflex" unicode="&#xf4;" horiz-adv-x="284" 
d="M257 445v-343c0 -41 -3 -55 -15 -72c-17 -25 -38 -32 -96 -32c-62 0 -78 4 -96 22s-23 36 -23 78v9v335c0 36 2 49 10 65c17 29 39 38 99 38c72 0 92 -7 109 -37c10 -17 12 -27 12 -63zM158 435l-1 6v7c0 12 -5 18 -15 18c-12 0 -15 -6 -15 -26v-4v-324v-4v-7
c0 -18 4 -24 15 -24c13 0 16 5 16 30v328zM36 612l46 103h120l47 -103h-83l-22 61l-25 -61h-83z" />
    <glyph glyph-name="otilde" unicode="&#xf5;" horiz-adv-x="284" 
d="M257 445v-343c0 -41 -3 -55 -15 -72c-17 -25 -38 -32 -96 -32c-62 0 -78 4 -96 22s-23 36 -23 78v9v335c0 36 2 49 10 65c17 29 39 38 99 38c72 0 92 -7 109 -37c10 -17 12 -27 12 -63zM158 435l-1 6v7c0 12 -5 18 -15 18c-12 0 -15 -6 -15 -26v-4v-324v-4v-7
c0 -18 4 -24 15 -24c13 0 16 5 16 30v328zM102 619h-67c-1 9 -2 16 -2 21c0 41 25 64 66 64c13 0 27 -2 43 -6l16 -5c3 -1 6 -1 8 -1c8 0 13 6 14 16h67c2 -10 2 -16 2 -23c0 -35 -22 -60 -54 -60c-12 0 -24 1 -45 6l-19 4c-4 1 -8 2 -11 2c-11 0 -18 -7 -18 -18z" />
    <glyph glyph-name="odieresis" unicode="&#xf6;" horiz-adv-x="284" 
d="M257 445v-343c0 -41 -3 -55 -15 -72c-17 -25 -38 -32 -96 -32c-62 0 -78 4 -96 22s-23 36 -23 78v9v335c0 36 2 49 10 65c17 29 39 38 99 38c72 0 92 -7 109 -37c10 -17 12 -27 12 -63zM158 435l-1 6v7c0 12 -5 18 -15 18c-12 0 -15 -6 -15 -26v-4v-324v-4v-7
c0 -18 4 -24 15 -24c13 0 16 5 16 30v328zM37 623v80h86v-80h-86zM160 623v80h87v-80h-87z" />
    <glyph glyph-name="divide" unicode="&#xf7;" 
d="M250 482c0 -35 -27 -57 -56 -57c-32 0 -59 25 -59 57c0 31 24 58 59 58c33 0 56 -25 56 -58zM347 256h-308v80h308v-80zM250 110c0 -35 -27 -57 -56 -57c-32 0 -59 25 -59 57c0 31 24 58 59 58c33 0 56 -25 56 -58z" />
    <glyph glyph-name="oslash" unicode="&#xf8;" horiz-adv-x="284" 
d="M219 581l63 -23l-27 -74c1 -10 2 -17 2 -27v-16v-338v-17c0 -36 -11 -59 -34 -74c-16 -11 -35 -14 -82 -14c-29 0 -49 2 -62 5l-14 -40l-63 23l27 72c-2 10 -3 17 -3 28v17v338v16c0 36 11 60 34 75c16 10 35 13 82 13c30 0 49 -2 62 -5zM157 111v322v5
c0 23 -3 28 -16 28c-12 0 -15 -5 -15 -28v-5v-322v-6c0 -23 3 -28 16 -28c12 0 15 6 15 28v6z" />
    <glyph glyph-name="ugrave" unicode="&#xf9;" horiz-adv-x="289" 
d="M259 543v-543h-100v31c-22 -25 -37 -33 -60 -33c-24 0 -44 11 -57 29c-11 16 -14 26 -14 61v10v445h100v-442v-3c0 -17 4 -23 15 -23s16 7 16 23v3v442h100zM99 612l-46 103h96l27 -103h-77z" />
    <glyph glyph-name="uacute" unicode="&#xfa;" horiz-adv-x="289" 
d="M259 543v-543h-100v31c-22 -25 -37 -33 -60 -33c-24 0 -44 11 -57 29c-11 16 -14 26 -14 61v10v445h100v-442v-3c0 -17 4 -23 15 -23s16 7 16 23v3v442h100zM176 612h-76l26 103h97z" />
    <glyph glyph-name="ucircumflex" unicode="&#xfb;" horiz-adv-x="289" 
d="M259 543v-543h-100v31c-22 -25 -37 -33 -60 -33c-24 0 -44 11 -57 29c-11 16 -14 26 -14 61v10v445h100v-442v-3c0 -17 4 -23 15 -23s16 7 16 23v3v442h100zM38 612l46 103h120l47 -103h-83l-22 61l-25 -61h-83z" />
    <glyph glyph-name="udieresis" unicode="&#xfc;" horiz-adv-x="289" 
d="M259 543v-543h-100v31c-22 -25 -37 -33 -60 -33c-24 0 -44 11 -57 29c-11 16 -14 26 -14 61v10v445h100v-442v-3c0 -17 4 -23 15 -23s16 7 16 23v3v442h100zM39 623v80h86v-80h-86zM162 623v80h87v-80h-87z" />
    <glyph glyph-name="ydieresis" unicode="&#xff;" horiz-adv-x="258" 
d="M-3 -127v77h44h5c27 0 37 8 37 29c0 6 -1 21 -3 35l-1 8l-74 521h107l21 -336l22 336h106l-78 -557l-2 -14c-5 -42 -10 -57 -23 -72c-16 -19 -37 -27 -72 -27h-7h-82zM24 623v80h86v-80h-86zM147 623v80h87v-80h-87z" />
    <glyph glyph-name="dotlessi" unicode="&#x131;" horiz-adv-x="160" 
d="M30 0v543h100v-543h-100z" />
    <glyph glyph-name="OE" unicode="&#x152;" horiz-adv-x="390" 
d="M363 667v-90h-66v-167h66v-90h-66v-230h66v-90h-205h-12c-52 0 -72 5 -91 24c-19 18 -25 37 -25 79v14v430v14c0 45 7 66 28 84c17 16 44 22 95 22h17h193zM183 127v408v7c0 27 -5 36 -20 36c-14 0 -20 -10 -20 -37v-8v-406v-5l1 -13c1 -13 8 -21 19 -21
c14 0 20 11 20 33v6z" />
    <glyph glyph-name="oe" unicode="&#x153;" horiz-adv-x="417" 
d="M390 250h-131v-144c0 -22 4 -29 16 -29s15 6 15 25v3v95h100v-100c0 -45 -4 -59 -20 -76c-18 -21 -37 -26 -97 -26c-27 0 -47 2 -64 7c-13 -5 -34 -7 -70 -7c-44 0 -63 3 -79 14c-22 14 -33 39 -33 74v17v338v16c0 36 11 60 33 75c17 10 35 13 85 13c36 0 52 -3 65 -11
c18 9 30 11 64 11c55 0 72 -4 90 -19s26 -36 26 -65v-8v-203zM158 111v322v5c0 23 -4 28 -16 28s-15 -5 -15 -28v-5v-322v-6c0 -23 3 -28 15 -28s16 6 16 28v6zM290 330v103v5c0 23 -3 28 -15 28c-13 0 -16 -5 -16 -28v-5v-103h31z" />
    <glyph glyph-name="Ydieresis" unicode="&#x178;" horiz-adv-x="287" 
d="M90 0v267l-87 400h114l30 -259l30 259h106l-80 -400v-267h-113zM37 746v80h86v-80h-86zM160 746v80h87v-80h-87z" />
    <glyph glyph-name="florin" unicode="&#x192;" horiz-adv-x="369" 
d="M0 -127l16 80c9 0 16 -1 20 -1c33 0 38 4 44 39l78 449h-34l14 80h35l24 133c8 47 12 56 28 66c18 12 34 14 83 14h61l-14 -80h-27c-27 0 -27 0 -32 -29l-18 -104h53l-13 -80h-55l-87 -498c-5 -27 -18 -49 -34 -59c-13 -7 -32 -10 -66 -10h-76z" />
    <glyph glyph-name="circumflex" unicode="&#x2c6;" horiz-adv-x="347" 
d="M67 612l46 103h120l47 -103h-83l-22 61l-25 -61h-83z" />
    <glyph glyph-name="ring" unicode="&#x2da;" horiz-adv-x="293" 
d="M67 663c0 45 35 80 80 80c44 0 80 -35 80 -80c0 -44 -36 -80 -80 -80c-45 0 -80 36 -80 80zM107 663c0 -22 18 -40 40 -40s40 18 40 40s-18 40 -40 40s-40 -18 -40 -40z" />
    <glyph glyph-name="tilde" unicode="&#x2dc;" horiz-adv-x="349" 
d="M135 619h-67c-1 9 -2 16 -2 21c0 41 25 64 66 64c13 0 27 -2 43 -6l16 -5c3 -1 6 -1 8 -1c8 0 13 6 14 16h67c2 -10 2 -16 2 -23c0 -35 -22 -60 -54 -60c-12 0 -24 1 -45 6l-19 4c-4 1 -8 2 -11 2c-11 0 -18 -7 -18 -18z" />
    <glyph glyph-name="uni03A9" unicode="&#x3a9;" horiz-adv-x="556" 
d="M514 0h-182v67c46 55 98 143 98 305c0 163 -54 269 -149 269c-105 0 -155 -117 -155 -269c0 -157 46 -245 100 -305v-67h-182v67h114c-44 51 -116 148 -116 319c0 183 97 326 242 326c140 0 231 -127 231 -324c0 -154 -59 -258 -114 -321h113v-67z" />
    <glyph glyph-name="pi" unicode="&#x3c0;" horiz-adv-x="466" 
d="M435 62l15 -54c-15 -11 -36 -15 -61 -15c-84 0 -109 67 -109 130v314h-87v-298c0 -61 -4 -107 -11 -139h-82c10 42 13 91 13 144v293c-20 1 -56 -8 -75 -17c-10 23 -12 31 -22 55c21 11 60 25 123 25h307v-63h-85v-305c0 -44 11 -77 48 -77c11 0 17 3 26 7z" />
    <glyph glyph-name="endash" unicode="&#x2013;" horiz-adv-x="310" 
d="M40 237v90h230v-90h-230z" />
    <glyph glyph-name="emdash" unicode="&#x2014;" horiz-adv-x="1080" 
d="M40 237v90h1000v-90h-1000z" />
    <glyph glyph-name="quoteleft" unicode="&#x2018;" horiz-adv-x="163" 
d="M121 574v-107h-78v107v9c0 56 21 79 78 85v-47c-19 -4 -29 -16 -29 -36c0 -1 0 -6 1 -10v-1h28z" />
    <glyph glyph-name="quoteright" unicode="&#x2019;" horiz-adv-x="163" 
d="M43 560v107h78v-106v-10c0 -55 -22 -79 -78 -85v48c18 3 28 16 28 35v10v1h-28z" />
    <glyph glyph-name="quotedblleft" unicode="&#x201c;" horiz-adv-x="278" 
d="M236 574v-107h-78v107v9c0 56 21 79 78 85v-47c-19 -4 -29 -16 -29 -36c0 -1 1 -6 1 -10v-1h28zM121 574v-107h-78v107v9c0 56 21 79 78 85v-47c-19 -4 -29 -16 -29 -36c0 -1 0 -6 1 -10v-1h28z" />
    <glyph glyph-name="quotedblright" unicode="&#x201d;" horiz-adv-x="278" 
d="M43 560v107h78v-106v-10c0 -55 -22 -79 -78 -85v48c18 3 28 16 28 35v10v1h-28zM158 560v107h78v-106v-10c0 -55 -22 -79 -78 -85v48c18 3 28 16 28 35v10v1h-28z" />
    <glyph glyph-name="quotedblbase" unicode="&#x201e;" horiz-adv-x="278" 
d="M42 0v107h78v-106v-10c0 -55 -21 -79 -78 -85v48c19 3 29 16 29 35v10v1h-29zM158 0v107h78v-106v-10c0 -55 -22 -79 -78 -85v48c18 3 28 16 28 35v10v1h-28z" />
    <glyph glyph-name="bullet" unicode="&#x2022;" horiz-adv-x="253" 
d="M127 420c48 0 86 -39 86 -87s-38 -86 -86 -86s-87 38 -87 86s39 87 87 87z" />
    <glyph glyph-name="ellipsis" unicode="&#x2026;" horiz-adv-x="1000" 
d="M125 0v113h83v-113h-83zM459 0v113h83v-113h-83zM792 0v113h83v-113h-83z" />
    <glyph glyph-name="perthousand" unicode="&#x2030;" horiz-adv-x="755" 
d="M33 398v204v10c0 29 6 42 22 49c12 5 23 7 65 7s54 -2 65 -7c16 -8 22 -20 22 -49v-10v-204v-10c0 -29 -6 -42 -22 -49c-12 -5 -25 -7 -65 -7c-75 0 -87 8 -87 56v10zM334 65v204v10c0 29 6 41 22 49c12 5 23 6 65 6s54 -1 65 -6c16 -8 22 -20 22 -49v-10v-204v-10
c0 -29 -6 -42 -22 -49c-12 -6 -25 -7 -65 -7c-75 0 -87 7 -87 56v10zM95 0l278 667h72l-278 -667h-72zM548 65v204v10c0 29 6 41 22 49c12 5 24 6 65 6c42 0 54 -1 65 -6c16 -8 22 -20 22 -49v-10v-204v-10c0 -29 -6 -42 -22 -49c-12 -6 -25 -7 -65 -7c-75 0 -87 7 -87 56
v10zM137 402v198v-2v8c0 12 -4 15 -16 15c-14 0 -17 -3 -17 -15v-8v-196v-8c-1 -12 3 -15 17 -15c12 0 16 3 16 14v9zM438 69v198v-2v8c0 11 -4 14 -16 14c-14 0 -17 -2 -17 -14v-8v-196v-8c-1 -12 3 -15 17 -15c12 0 16 3 16 14v9zM652 69v198v-2v8c0 11 -4 14 -16 14
c-14 0 -17 -2 -17 -14v-8v-196v-8c-1 -12 3 -15 17 -15c12 0 16 3 16 14v9z" />
    <glyph glyph-name="guilsinglleft" unicode="&#x2039;" horiz-adv-x="200" 
d="M160 50h-77l-36 230l36 230h77l-37 -230z" />
    <glyph glyph-name="guilsinglright" unicode="&#x203a;" horiz-adv-x="200" 
d="M40 50l37 230l-37 230h77l36 -230l-36 -230h-77z" />
    <glyph glyph-name="fraction" unicode="&#x2044;" horiz-adv-x="350" 
d="M0 0l278 667h72l-278 -667h-72z" />
    <glyph glyph-name="Euro" unicode="&#x20ac;" horiz-adv-x="325" 
d="M236 253h-84v-117c0 -14 -3 -48 20 -48c14 0 20 11 20 35v97h114v-100c0 -45 -1 -55 -7 -69c-21 -53 -79 -53 -127 -53c-73 0 -133 8 -133 98v157h-36v73h36v34h-36v74h36v138c0 92 66 96 137 96c63 0 120 -5 129 -79c1 -10 1 -16 1 -43v-78h-114v75c0 25 -6 35 -20 35
c-13 0 -20 -10 -20 -33v-111h84v-74h-84v-34h84v-73z" />
    <glyph glyph-name="litre" unicode="&#x2113;" horiz-adv-x="354" 
d="M320 43c-26 -29 -60 -56 -102 -56c-31 0 -54 10 -71 26c-24 24 -38 68 -38 123v113l-48 -60c-11 12 -22 23 -33 36c27 33 54 66 81 100v236c0 122 50 167 111 167c65 0 90 -56 90 -104c0 -97 -46 -184 -104 -271c-6 -8 -16 -23 -22 -31v-188c0 -68 26 -87 48 -87
c23 0 41 16 64 42c8 -16 16 -31 24 -46zM259 619c0 16 -4 48 -33 48c-18 0 -42 -9 -42 -103v-158c4 4 3 5 6 11c39 61 69 134 69 202z" />
    <glyph glyph-name="Omega" unicode="&#x2126;" horiz-adv-x="556" 
d="M514 0h-182v67c46 55 98 143 98 305c0 163 -54 269 -149 269c-105 0 -155 -117 -155 -269c0 -157 46 -245 100 -305v-67h-182v67h114c-44 51 -116 148 -116 319c0 183 97 326 242 326c140 0 231 -127 231 -324c0 -154 -59 -258 -114 -321h113v-67z" />
    <glyph glyph-name="estimated" unicode="&#x212e;" horiz-adv-x="561" 
d="M519 241h-373v-165c35 -35 80 -53 133 -53c67 0 131 31 174 109c12 -7 22 -13 34 -20c-56 -81 -116 -124 -208 -124c-149 0 -237 110 -237 253c0 142 89 253 234 253c152 0 234 -108 243 -253zM410 276v126c-40 43 -84 58 -135 58c-52 0 -93 -18 -129 -55v-129h264z" />
    <glyph glyph-name="partialdiff" unicode="&#x2202;" horiz-adv-x="443" 
d="M425 504c0 -49 -7 -124 -23 -202c-28 -139 -103 -311 -238 -311c-89 0 -146 69 -146 171c0 183 100 337 230 337c45 0 75 -26 91 -54h2c2 23 5 47 5 78c0 111 -43 141 -100 141c-22 0 -45 -7 -66 -18l-18 57c24 14 64 24 91 24c104 0 172 -66 172 -223zM332 370
c-14 46 -42 68 -81 68c-83 0 -153 -141 -153 -283c0 -68 29 -101 65 -101c80 0 139 128 169 316z" />
    <glyph glyph-name="Delta" unicode="&#x2206;" horiz-adv-x="492" 
d="M474 0h-456v40c60 220 118 440 178 660h105c57 -220 116 -440 173 -660v-40zM382 67c-42 164 -83 327 -124 491c-6 24 -9 42 -13 57h-2c-3 -14 -7 -36 -11 -56c-42 -164 -83 -328 -124 -492h274z" />
    <glyph glyph-name="product" unicode="&#x220f;" horiz-adv-x="489" 
d="M453 -230h-81v860h-254v-860h-82v930h417v-930z" />
    <glyph glyph-name="summation" unicode="&#x2211;" horiz-adv-x="469" 
d="M435 -230h-408v38c78 144 155 287 232 431c-71 139 -141 278 -212 417v44h368v-67h-283c67 -131 135 -261 202 -392c-73 -135 -145 -269 -218 -404h319v-67z" />
    <glyph glyph-name="minus" unicode="&#x2212;" 
d="M348 256h-308v80h308v-80z" />
    <glyph glyph-name="uni2215" unicode="&#x2215;" horiz-adv-x="350" 
d="M0 0l278 667h72l-278 -667h-72z" />
    <glyph glyph-name="uni2219" unicode="&#x2219;" horiz-adv-x="163" 
d="M40 277v113h83v-113h-83z" />
    <glyph glyph-name="radical" unicode="&#x221a;" horiz-adv-x="405" 
d="M381 728c-40 -247 -79 -493 -118 -740h-77c-31 110 -62 220 -94 330c-15 -8 -29 -16 -44 -24c-10 15 -20 32 -30 48c38 23 78 47 117 70c29 -104 58 -209 88 -313c32 209 65 420 97 629h61z" />
    <glyph glyph-name="infinity" unicode="&#x221e;" horiz-adv-x="581" 
d="M546 292c0 -84 -61 -144 -127 -144c-61 0 -106 41 -129 85h-2c-25 -43 -65 -85 -121 -85c-64 0 -132 49 -132 143c0 90 65 142 130 142c73 0 112 -57 124 -84h2c19 34 59 84 125 84c70 0 130 -58 130 -141zM478 294c0 45 -27 79 -68 79c-38 0 -61 -28 -90 -82
c25 -54 55 -83 88 -83c43 0 70 37 70 86zM260 292c-20 40 -50 81 -87 81c-49 0 -70 -40 -70 -83c0 -48 29 -82 69 -82c43 0 71 45 88 84z" />
    <glyph glyph-name="integral" unicode="&#x222b;" horiz-adv-x="375" 
d="M317 679c-8 3 -21 6 -30 6c-37 0 -60 -29 -60 -88v-655c0 -84 -35 -157 -133 -157c-18 0 -42 4 -52 9c5 20 9 40 14 60c10 -3 14 -4 29 -4c42 0 61 29 61 86v656c0 87 43 157 138 157c18 0 42 -5 49 -10c-6 -19 -11 -40 -16 -60z" />
    <glyph glyph-name="approxequal" unicode="&#x2248;" 
d="M369 418c-25 -49 -55 -79 -98 -79c-29 0 -60 9 -84 28c-23 16 -43 27 -65 27c-23 0 -43 -28 -55 -58l-50 59c22 43 53 79 102 79c29 0 50 -6 81 -28c31 -21 44 -27 66 -27s41 25 54 58zM369 197c-25 -49 -55 -80 -98 -80c-29 0 -60 9 -84 28c-23 17 -43 28 -65 28
c-23 0 -43 -28 -55 -59l-50 60c22 44 53 79 102 79c29 0 50 -7 81 -28s44 -28 66 -28s41 26 54 59z" />
    <glyph glyph-name="notequal" unicode="&#x2260;" 
d="M343 146h-161l-37 -107h-84l37 107h-63v80h88l50 141h-138v80h165l39 117h84l-39 -117h59v-80h-85l-51 -141h136v-80z" />
    <glyph glyph-name="lessequal" unicode="&#x2264;" 
d="M348 0h-308v80h308v-80zM348 138l-308 166v69l308 166v-85l-222 -116v-1l222 -116v-83z" />
    <glyph glyph-name="greaterequal" unicode="&#x2265;" 
d="M346 0h-307v80h307v-80zM347 305l-308 -166v85l223 115v2l-223 115v84l308 -166v-69z" />
    <glyph glyph-name="lozenge" unicode="&#x25ca;" horiz-adv-x="388" 
d="M351 350c-46 -117 -91 -233 -137 -350h-41c-45 116 -91 233 -135 349c44 117 90 234 135 351h41c46 -117 91 -233 137 -350zM290 350c-32 86 -64 172 -96 257c-32 -85 -64 -171 -96 -257c32 -86 63 -171 95 -257c33 86 64 171 97 257z" />
    </font>
</defs>
</svg>
