<svg xmlns="http://www.w3.org/2000/svg" viewBox="0 0 248.98 242.11"><defs><style>.cls-1{fill:#231f20;}</style></defs><title>Asset 1</title><g id="Layer_2" data-name="Layer 2"><g id="Layer_1-2" data-name="Layer 1"><path class="cls-1" d="M221.73,227.58H210.68c.25,8.62,7.37,14.53,19.17,14.53,10.33,0,18.94-4.2,18.94-14.53,0-5.88-4.18-9.82-10.82-11.55-6.88-1.71-15.73-1.46-15.73-5.89.49-3,3.19-3.7,7.38-3.7,6.4,0,6.64,3.45,6.9,5.65h10.55c-.73-8.1-7.38-13.76-17.95-13.76-11.07,0-17.45,5.92-17.45,13.53a11.48,11.48,0,0,0,5.9,10.33,45.41,45.41,0,0,0,10.81,2.95c4.66.48,8.86,1,9.1,4.17,0,2.23-2.23,4.93-7.13,4.93-7.12,0-8.61-3.93-8.61-6.66M98.8,194.9h10.33V184.32H98.8Zm10.32,3.93H98.79v42.27h10.33ZM56.78,150.67c17.7,13,36.86,19.65,50.89,20.64a124.21,124.21,0,0,0-.76-20.64Zm-13-9.34H205.48a32.28,32.28,0,0,0,10.07-8.84H34.41a52.82,52.82,0,0,0,9.34,8.84M148,220.21a12.17,12.17,0,1,1-12.3-12.29A12.45,12.45,0,0,1,148,220.21m0,20.9h10.33V184.32H148V202a22,22,0,1,0-12.53,40.06A23.37,23.37,0,0,0,148,238.4Zm-5.89-69.81c14.49-1,33.67-7.61,51.13-20.64H143.54a109.64,109.64,0,0,0-1.47,20.64m-32.7-20.64c5.17,9.33,10.09,16.71,15.74,22.11a99.86,99.86,0,0,0,15.49-22.11ZM26.3,122.39H223.66a41.8,41.8,0,0,0,6.66-9.58H19.91c1.47,3.2,4.92,7.61,6.39,9.58M172,220.21a12.5,12.5,0,0,1,12.32-12.29c6.36,0,11.79,5.65,11.79,12.29,0,6.4-5.43,12.05-11.79,12.05A12.46,12.46,0,0,1,172,220.21m11.8,21.9a22.58,22.58,0,0,0,12.31-3.71v2.71h10.57V198.84H196.14V202a20.66,20.66,0,0,0-12.31-3.71,21.89,21.89,0,1,0,0,43.77M58.49,220.21a12.3,12.3,0,0,1,24.59,0,12.39,12.39,0,0,1-12,12.05c-6.89,0-12.55-5.65-12.55-12.05m-10.07,0a22.15,22.15,0,0,0,22.12,21.9,24.12,24.12,0,0,0,12.54-3.71v2.71H93.64V184.32H83.08V202a22.34,22.34,0,0,0-34.67,18.16m-38.33,0a12.44,12.44,0,0,1,12-12.29,12.54,12.54,0,0,1,12.54,12.29c0,6.4-5.66,12.05-12.54,12.05a12.39,12.39,0,0,1-12-12.05M0,220.21a21.94,21.94,0,0,0,21.87,21.9,24.24,24.24,0,0,0,12.78-3.71v2.71H45V198.84H34.66V202a22.72,22.72,0,0,0-12.78-3.71A21.76,21.76,0,0,0,0,220.21M15,103.47H88c-2.7-4.66-6.4-9.09-10.07-13.52C56.78,65.13,24.09,49.89,1.73,48.42.25,64.39,5.16,83.81,15,103.47m141.57,0c.51-5.65,1-11.06,1-17.45,0-34.39-15.49-70-32.45-86C107.9,16,92.67,51.63,92.67,86c0,6.39,0,11.8,1,17.45Zm78.65,0c9.84-19.66,15-39.08,13.53-55.05C226.12,49.89,193.67,65.13,172.55,90a85.61,85.61,0,0,0-10.09,13.52Z"/></g></g></svg>