<?xml version="1.0" encoding="UTF-8"?>
<svg width="66px" height="64px" viewBox="0 0 66 64" version="1.1" xmlns="http://www.w3.org/2000/svg" xmlns:xlink="http://www.w3.org/1999/xlink">
    <!-- Generator: Sketch 45.1 (43504) - http://www.bohemiancoding.com/sketch -->
    <title>Page 1</title>
    <desc>Created with Sketch.</desc>
    <defs></defs>
    <g id="Page-1" stroke="none" stroke-width="1" fill="none" fill-rule="evenodd">
        <g id="Artboard-Copy-21" transform="translate(-888.000000, -381.000000)" fill="#FFFFFF">
            <g id="Group" transform="translate(721.000000, 298.000000)">
                <g id="Group-2">
                    <g id="Page-1" transform="translate(167.000000, 83.000000)">
                        <polygon id="Fill-3" points="26.1023549 63.4592864 28.4555915 63.4592864 28.4555915 53.6985697 26.1023549 53.6985697"></polygon>
                        <path d="M56.3232808,57.4984999 C57.1600154,57.6203594 58.3798824,57.8643328 59.060413,58.7534746 C59.3906293,59.2065681 59.5997494,59.7817754 59.5997494,60.51395 C59.5997494,61.3674753 59.1812549,62.4133299 58.4152446,62.9712378 C57.6301539,63.5286369 56.5672542,63.7377569 55.3468784,63.7377569 C54.1270114,63.7377569 53.1689261,63.459439 52.4543054,62.8834685 C51.722894,62.2919793 51.1298784,61.2453614 51.0777256,60.1824616 L53.3948369,60.1824616 C53.5876751,60.6877079 53.7263252,61.0016424 53.9700442,61.3328763 C54.2493797,61.6811554 54.807542,61.8559309 55.3827494,61.8559309 C55.9396396,61.8559309 56.4453947,61.6989636 56.7771375,61.4720353 C57.1254165,61.2453614 57.2470216,60.8973368 57.1432248,60.51395 C56.9687036,59.8685272 56.1841218,59.8341826 55.5389534,59.676961 C54.7551348,59.4678409 53.3264022,59.3279188 52.7155783,58.9801485 C52.2795299,58.7188757 51.722894,58.0388539 51.5305647,57.7076199 C51.3568068,57.376386 51.3911513,56.836032 51.3911513,56.3831929 C51.3911513,55.5988655 51.9312509,54.692933 52.6812338,54.1523246 C53.430199,53.5944168 54.5106526,53.559309 55.6089145,53.559309 C56.7593292,53.559309 57.595555,54.1345164 58.2407234,54.6051637 C58.9029369,55.0753022 59.2687698,55.9125456 59.321177,56.7668341 L57.0027938,56.7668341 C56.9687036,56.4177919 56.7593292,56.0863035 56.5848081,55.8771835 C56.3059813,55.5813117 55.8526335,55.3543833 55.3990312,55.3543833 C54.9642549,55.3543833 54.3190864,55.4243444 54.0748586,55.6159106 C53.7960319,55.8250307 53.622274,56.1387107 53.622274,56.4353458 C53.622274,57.2023737 54.8945482,57.2715716 56.3232808,57.4984999 Z" id="Fill-1"></path>
                        <path d="M22.6690208,54.9890084 C21.7974328,54.3089866 20.6821259,53.8388481 19.4625133,53.8032315 L19.340145,53.8032315 C16.638375,53.8032315 14.4431232,55.9995009 14.4431232,58.6834626 C14.4431232,61.3852327 16.638375,63.5985471 19.340145,63.5985471 L19.4625133,63.5985471 C20.6821259,63.5807388 21.7974328,63.092792 22.6514669,62.255803 L22.6690208,63.4593881 L24.9001435,63.4593881 L24.9001435,50.6837302 L22.6690208,50.6837302 L22.6690208,54.9890084 Z M19.4795584,61.5943527 L19.4625133,61.5943527 C17.8590052,61.5943527 16.5513688,60.2869708 16.5513688,58.6834626 C16.5513688,57.0969996 17.8590052,55.772827 19.4625133,55.772827 L19.4795584,55.772827 C21.0655127,55.772827 22.3899397,57.0802089 22.3899397,58.6834626 C22.3899397,60.2869708 21.0655127,61.5943527 19.4795584,61.5943527 L19.4795584,61.5943527 Z" id="Fill-6"></path>
                        <path d="M37.2742757,54.9537225 C36.4024333,54.274464 35.2871264,53.8033078 34.0675138,53.7684545 L33.9453999,53.7684545 C31.2436299,53.7684545 29.0308242,55.9817689 29.0308242,58.6659851 C29.0308242,61.3675007 31.2436299,63.5808151 33.9453999,63.5808151 L34.0675138,63.5808151 C35.2871264,63.5462162 36.3853883,63.058015 37.2567218,62.2217892 L37.2567218,63.4241023 L39.4870813,63.4241023 L39.4870813,50.6665071 L37.2567218,50.6665071 L37.2742757,54.9537225 Z M34.0675138,61.5766208 C32.4634968,61.5766208 31.1390698,60.2524482 31.1390698,58.6486856 C31.1390698,57.0629858 32.4634968,55.7556038 34.0675138,55.7556038 C35.6707675,55.7556038 36.9951945,57.0629858 36.9951945,58.6486856 C36.9951945,60.2524482 35.6707675,61.5766208 34.0675138,61.5766208 L34.0675138,61.5766208 Z" id="Fill-7"></path>
                        <path d="M11.3054575,53.6985952 L11.3054575,54.6228448 C10.8526184,54.1346436 10.6434984,53.9784395 10.1201894,53.7861101 C9.64954211,53.6120978 9.00513688,53.455385 8.37752232,53.4378311 L8.27296229,53.4378311 C7.52323383,53.4378311 6.86127473,53.5591818 6.26876792,53.8031552 C5.69381497,54.0476374 5.15346097,54.4312786 4.66525977,54.9538243 C4.22946579,55.4074266 3.88118678,55.9648256 3.61965951,56.5748863 C3.39323999,57.1846926 3.27087168,57.8123072 3.27087168,58.4920745 C3.27087168,59.9732144 3.75856407,61.2106352 4.73496646,62.1697382 C5.69381497,63.1451229 6.91368195,63.650878 8.37752232,63.650878 L8.39482179,63.650878 C8.98783742,63.650878 9.63224264,63.4763569 10.1552972,63.2847907 C10.6780973,63.0927157 11.0617385,62.9360029 11.3054575,62.5872151 L11.3054575,63.4763569 L13.5711791,63.4593118 L13.5536252,53.6815501 L11.3054575,53.6985952 Z M8.39482179,61.4375636 L8.37752232,61.4375636 C6.77401418,61.4375636 5.48469492,60.1472267 5.48469492,58.5437186 C5.48469492,56.9582731 6.77401418,55.6511456 8.37752232,55.6511456 L8.39482179,55.6511456 C9.98103047,55.6511456 11.2879036,56.9582731 11.2879036,58.5437186 C11.2879036,60.1472267 9.98103047,61.4375636 8.39482179,61.4375636 L8.39482179,61.4375636 Z" id="Fill-8"></path>
                        <path d="M48.2712938,53.6640471 L48.2883389,54.5882967 C47.8360086,54.117395 47.6090803,53.9599189 47.103834,53.7507989 C46.6153784,53.5767866 45.9885271,53.4376276 45.3611669,53.4200737 L45.2558437,53.4200737 C44.506624,53.4200737 43.8446649,53.5419332 43.2521581,53.7683527 C42.6593969,54.0123261 42.1192973,54.4135212 41.6483956,54.9190218 C41.1958109,55.3726241 40.8467687,55.9295144 40.6027953,56.5576377 C40.3761214,57.1493813 40.2369624,57.7942954 40.2369624,58.4738083 C40.2369624,59.9386663 40.7427175,61.1758328 41.7181023,62.1519808 C42.6593969,63.1103205 43.8968177,63.6163299 45.3611669,63.6163299 C45.9709732,63.6163299 46.6153784,63.4593627 47.1208791,63.2502426 C47.6444424,63.0581677 48.0451287,62.9012004 48.2883389,62.552667 L48.2883389,63.4418088 L50.5548237,63.4240005 L50.5194616,53.6640471 L48.2712938,53.6640471 Z M45.3611669,61.4198062 C43.7576588,61.4022523 42.4502768,60.1131874 42.4502768,58.5096793 C42.4502768,56.923725 43.7576588,55.6333882 45.3611669,55.6158343 C46.9639119,55.6158343 48.2712938,56.923725 48.2712938,58.5096793 C48.2712938,60.1131874 46.9639119,61.4198062 45.3611669,61.4198062 L45.3611669,61.4198062 Z" id="Fill-9"></path>
                        <path d="M28.2100153,41.758985 L16.6730502,41.758985 C20.1212415,43.8921622 24.155325,45.3076658 28.7460445,46.2583734 L28.2100153,41.758985 Z M37.0067954,41.7683979 L36.3191415,45.9948109 C40.9299588,45.1458649 44.9945708,43.8112617 48.5231537,41.7683979 L37.0067954,41.7683979 Z M35.6823684,41.7488088 L29.3423673,41.758985 C30.2322724,43.6090105 31.3646244,45.1659628 32.6587773,46.6524451 C33.9330867,45.1354343 34.7820328,43.5685603 35.6823684,41.7488088 L35.6823684,41.7488088 Z M52.7391361,38.9378995 L12.3858348,38.9178016 C11.0415642,37.8454889 10.1315613,37.2898706 9.04958126,35.8636821 L56.1265248,35.8636821 C55.0748188,37.0166408 53.8717425,38.0579162 52.7391361,38.9378995 L52.7391361,38.9378995 Z M58.7555353,32.3656276 L6.60272399,32.3857256 C5.90514834,31.4149201 5.10606551,30.0502972 4.61074101,28.9683172 L60.7475183,28.9683172 C60.2216653,30.1815697 59.5136591,31.3037455 58.7555353,32.3656276 L58.7555353,32.3656276 Z M21.4357467,25.2677572 L3.22551146,25.2774246 C1.5571303,21.4257487 0.505678746,17.4517044 -7.63211873e-05,12.5175397 C9.38310484,14.1856664 16.6226783,18.0381056 21.4357467,25.2677572 L21.4357467,25.2677572 Z M40.0904257,25.2980313 L25.1159544,25.2980313 C24.7821764,15.6619726 27.4516371,5.8844653 32.6084053,-0.000152642375 C37.8458196,5.73309494 40.5557306,15.4698976 40.0904257,25.2980313 L40.0904257,25.2980313 Z M62.2841182,25.2774246 L43.7202614,25.2881095 C48.8470099,18.0785558 56.2076797,14.0037676 65.7424856,12.5579899 C65.1453995,17.3809801 64.0336542,21.4756118 62.2841182,25.2774246 L62.2841182,25.2774246 Z" id="Fill-10"></path>
                    </g>
                </g>
            </g>
        </g>
    </g>
</svg>