<?xml version="1.0" encoding="UTF-8"?>
<svg width="3617px" height="88px" viewBox="0 0 3617 88" version="1.1" xmlns="http://www.w3.org/2000/svg" xmlns:xlink="http://www.w3.org/1999/xlink">
    <!-- Generator: Sketch 45.1 (43504) - http://www.bohemiancoding.com/sketch -->
    <title>Group 5</title>
    <desc>Created with Sketch.</desc>
    <defs></defs>
    <g id="Page-1" stroke="none" stroke-width="1" fill="none" fill-rule="evenodd">
        <g id="Group-5">
            <path d="M1627.10351,78.1999969 L1627.10351,0.160996948 L1645.94051,0.160996948 C1654.59851,0.160996948 1658.34251,3.67099695 1658.34251,11.3929969 L1658.34251,26.3689969 C1658.34251,31.7509969 1657.17251,33.7399969 1652.72651,36.5479969 C1657.05551,38.5369969 1658.34251,40.8769969 1658.34251,46.6099969 L1658.34251,65.2129969 C1658.34251,70.9459969 1657.64051,73.1689969 1655.41751,75.3919969 C1653.19451,77.4979969 1650.85451,78.1999969 1646.29151,78.1999969 L1627.10351,78.1999969 Z M1640.44151,31.0489969 L1641.96251,31.0489969 C1644.53651,31.0489969 1645.12151,30.3469969 1645.12151,27.4219969 L1645.12151,15.0199969 C1645.12151,11.5099969 1644.41951,10.6909969 1641.72851,10.6909969 L1640.44151,10.6909969 L1640.44151,31.0489969 Z M1640.44151,67.6699969 L1641.72851,67.6699969 C1644.41951,67.6699969 1645.12151,67.0849969 1645.12151,64.5109969 L1645.12151,46.4929969 C1645.12151,42.3979969 1644.41951,41.5789969 1641.49451,41.5789969 L1640.44151,41.5789969 L1640.44151,67.6699969 Z M1663.17533,78.1999969 L1685.05433,78.1999969 L1685.05433,67.6699969 L1676.51333,67.6699969 L1676.51333,40.7599969 L1685.05433,40.7599969 L1685.05433,30.2299969 L1676.51333,30.2299969 L1676.51333,10.6909969 L1685.05433,10.6909969 L1685.05433,0.160996948 L1663.17533,0.160996948 L1663.17533,78.1999969 Z M1689.77014,78.1999969 L1711.29814,78.1999969 L1711.29814,67.6699969 L1703.10814,67.6699969 L1703.10814,0.160996948 L1689.77014,0.160996948 L1689.77014,78.1999969 Z M1713.55696,78.1999969 L1713.55696,0.160996948 L1726.89496,0.160996948 L1726.89496,67.6699969 L1735.08496,67.6699969 L1735.08496,78.1999969 L1713.55696,78.1999969 Z M1739.33278,78.1999969 L1739.33278,46.9609969 L1729.15378,0.160996948 L1742.49178,0.160996948 L1746.00178,30.4639969 L1749.51178,0.160996948 L1761.91378,0.160996948 L1752.55378,46.9609969 L1752.55378,78.1999969 L1739.33278,78.1999969 Z M1779.76941,45.7909969 L1779.76941,66.6169969 C1779.76941,71.9989969 1781.17341,74.9239969 1784.80041,76.9129969 C1787.02341,78.0829969 1789.01241,78.4339969 1794.97941,78.4339969 C1802.81841,78.4339969 1805.50941,77.8489969 1807.84941,75.6259969 C1810.30641,73.4029969 1811.00841,71.0629969 1811.00841,65.4469969 L1811.00841,47.4289969 C1811.00841,41.2279969 1809.95541,39.1219969 1805.74341,36.4309969 L1794.86241,29.7619969 C1793.22441,28.7089969 1793.10741,28.4749969 1793.10741,25.7839969 L1793.10741,14.7859969 C1793.10741,11.5099969 1793.69241,10.4569969 1795.44741,10.4569969 C1797.20241,10.4569969 1797.78741,11.3929969 1797.78741,15.1369969 L1797.78741,27.0709969 L1811.00841,27.0709969 L1811.00841,11.9779969 C1811.00841,6.94699695 1809.95541,4.25599695 1807.03041,2.14999695 C1804.57341,0.394996948 1802.46741,0.0439969482 1796.14941,0.0439969482 C1789.01241,0.0439969482 1786.78941,0.394996948 1784.33241,1.79899695 C1780.93941,3.78799695 1779.76941,6.47899695 1779.76941,12.2119969 L1779.76941,25.5499969 C1779.76941,32.6869969 1780.93941,34.7929969 1786.55541,38.0689969 L1794.27741,42.6319969 L1794.97941,43.0999969 C1797.55341,44.6209969 1797.78741,44.9719969 1797.78741,49.1839969 L1797.78741,63.5749969 C1797.78741,66.4999969 1797.08541,67.7869969 1795.44741,67.7869969 C1793.80941,67.7869969 1793.10741,66.4999969 1793.10741,63.8089969 L1793.10741,45.7909969 L1779.76941,45.7909969 Z M1846.14422,79.0189969 L1841.46422,87.0919969 C1835.61422,85.5709969 1831.40222,82.9969969 1826.83922,78.3169969 C1819.11722,77.9659969 1815.49022,74.4559969 1815.49022,66.9679969 L1815.49022,11.3929969 C1815.49022,6.47899695 1816.89422,3.55399695 1820.17022,1.68199695 C1822.51022,0.394996948 1824.73322,0.0439969482 1831.05122,0.0439969482 C1838.77322,0.0439969482 1841.23022,0.628996948 1843.80422,2.96899695 C1845.44222,4.60699695 1846.26122,6.47899695 1846.61222,9.16999695 C1846.72922,10.3399969 1846.72922,10.8079969 1846.72922,14.3179969 L1846.72922,64.1599969 C1846.72922,70.8289969 1846.49522,71.9989969 1844.74022,74.3389969 C1842.98522,76.6789969 1840.52822,77.8489969 1837.01822,78.1999969 C1839.12422,78.7849969 1840.76222,79.0189969 1843.80422,79.0189969 L1846.14422,79.0189969 Z M1833.39122,14.5519969 C1833.39122,11.6269969 1832.68922,10.5739969 1831.05122,10.5739969 C1829.88122,10.5739969 1829.17922,11.2759969 1828.94522,12.5629969 C1828.82822,13.1479969 1828.71122,13.9669969 1828.71122,16.1899969 L1828.71122,62.1709969 C1828.71122,64.7449969 1828.82822,65.4469969 1828.94522,66.0319969 C1829.29622,67.2019969 1829.99822,67.9039969 1831.05122,67.9039969 C1832.68922,67.9039969 1833.39122,66.6169969 1833.39122,63.8089969 L1833.39122,14.5519969 Z M1882.80104,0.160996948 L1869.58004,0.160996948 L1869.58004,63.3409969 C1869.58004,66.6169969 1868.99504,67.9039969 1867.24004,67.9039969 C1865.48504,67.9039969 1864.90004,66.7339969 1864.90004,63.2239969 L1864.90004,0.160996948 L1851.67904,0.160996948 L1851.67904,65.4469969 C1851.67904,70.9459969 1852.26404,73.0519969 1854.37004,75.1579969 C1856.82704,77.7319969 1859.51804,78.4339969 1866.42104,78.4339969 C1874.14304,78.4339969 1876.13204,78.0829969 1878.70604,76.3279969 C1881.74804,74.2219969 1882.80104,71.6479969 1882.80104,66.6169969 L1882.80104,0.160996948 Z M1885.05986,78.1999969 L1892.19686,0.160996948 L1910.21486,0.160996948 L1918.05386,78.1999969 L1904.83286,78.1999969 L1903.89686,61.8199969 L1897.92986,61.8199969 L1896.75986,78.1999969 L1885.05986,78.1999969 Z M1898.63186,51.2899969 L1903.31186,51.2899969 L1901.43986,23.3269969 C1901.43986,23.0929969 1901.43986,22.9759969 1901.32286,22.7419969 L1901.20586,19.8169969 C1901.08886,18.8809969 1900.97186,18.0619969 1900.97186,17.4769969 L1900.85486,16.6579969 L1900.85486,17.4769969 C1900.73786,18.4129969 1900.62086,19.3489969 1900.62086,20.1679969 C1900.50386,21.5719969 1900.38686,22.6249969 1900.38686,22.7419969 L1900.38686,23.3269969 L1898.63186,51.2899969 Z M1920.31267,78.1999969 L1920.31267,0.160996948 L1939.61767,0.160996948 C1947.80767,0.277996948 1951.55167,3.78799695 1951.55167,11.3929969 L1951.55167,66.2659969 C1951.55167,74.8069969 1947.92467,78.1999969 1939.38367,78.1999969 L1920.31267,78.1999969 Z M1933.65067,67.6699969 L1934.93767,67.6699969 C1937.74567,67.6699969 1938.33067,66.9679969 1938.33067,63.6919969 L1938.33067,14.7859969 C1938.33067,11.3929969 1937.86267,10.6909969 1935.63967,10.6909969 L1933.65067,10.6909969 L1933.65067,67.6699969 Z" id="BELLY-SQUAD" fill="#FFFFFF"></path>
            <path d="M2077.978,78.1999969 L2091.199,78.1999969 L2091.199,41.8129969 L2097.049,78.1999969 L2109.919,78.1999969 L2101.378,33.8569969 L2108.281,0.160996948 L2096.23,0.160996948 L2091.199,29.7619969 L2091.199,0.160996948 L2077.978,0.160996948 L2077.978,78.1999969 Z M2110.65682,11.3929969 C2110.65682,6.47899695 2112.06082,3.55399695 2115.33682,1.68199695 C2117.67682,0.394996948 2119.89982,0.0439969482 2126.21782,0.0439969482 C2133.93982,0.0439969482 2136.39682,0.628996948 2138.97082,2.96899695 C2140.60882,4.60699695 2141.42782,6.47899695 2141.77882,9.16999695 C2141.89582,10.3399969 2141.89582,10.8079969 2141.89582,14.3179969 L2141.89582,64.1599969 C2141.89582,69.4249969 2141.77882,70.5949969 2141.07682,72.2329969 C2140.02382,74.9239969 2137.56682,77.0299969 2134.64182,77.7319969 C2133.00382,78.1999969 2130.66382,78.4339969 2126.21782,78.4339969 C2119.89982,78.4339969 2117.67682,78.0829969 2115.33682,76.6789969 C2112.06082,74.8069969 2110.65682,71.8819969 2110.65682,66.9679969 L2110.65682,11.3929969 Z M2128.55782,14.5519969 C2128.55782,11.6269969 2127.85582,10.5739969 2126.21782,10.5739969 C2125.04782,10.5739969 2124.34582,11.2759969 2124.11182,12.5629969 C2123.99482,13.1479969 2123.87782,13.9669969 2123.87782,16.1899969 L2123.87782,62.1709969 C2123.87782,64.7449969 2123.99482,65.4469969 2124.11182,66.0319969 C2124.46282,67.2019969 2125.16482,67.9039969 2126.21782,67.9039969 C2127.85582,67.9039969 2128.55782,66.6169969 2128.55782,63.8089969 L2128.55782,14.5519969 Z M2145.44163,45.6739969 L2145.44163,65.3299969 C2145.44163,71.2969969 2146.02663,73.4029969 2148.60063,75.6259969 C2151.05763,77.8489969 2153.63163,78.4339969 2160.65163,78.4339969 C2167.67163,78.4339969 2170.47963,77.6149969 2172.93663,75.0409969 C2174.80863,72.9349969 2175.39363,70.8289969 2175.51063,66.1489969 L2175.51063,0.160996948 L2162.17263,0.160996948 L2162.17263,63.5749969 C2162.17263,66.7339969 2161.58763,67.9039969 2159.83263,67.9039969 C2158.19463,67.9039969 2157.49263,66.7339969 2157.49263,63.5749969 L2157.49263,45.6739969 L2145.44163,45.6739969 Z M2180.34345,11.3929969 C2180.34345,6.47899695 2181.74745,3.55399695 2185.02345,1.68199695 C2187.36345,0.394996948 2189.58645,0.0439969482 2195.90445,0.0439969482 C2203.62645,0.0439969482 2206.08345,0.628996948 2208.65745,2.96899695 C2210.29545,4.60699695 2211.11445,6.47899695 2211.46545,9.16999695 C2211.58245,10.3399969 2211.58245,10.8079969 2211.58245,14.3179969 L2211.58245,64.1599969 C2211.58245,69.4249969 2211.46545,70.5949969 2210.76345,72.2329969 C2209.71045,74.9239969 2207.25345,77.0299969 2204.32845,77.7319969 C2202.69045,78.1999969 2200.35045,78.4339969 2195.90445,78.4339969 C2189.58645,78.4339969 2187.36345,78.0829969 2185.02345,76.6789969 C2181.74745,74.8069969 2180.34345,71.8819969 2180.34345,66.9679969 L2180.34345,11.3929969 Z M2198.24445,14.5519969 C2198.24445,11.6269969 2197.54245,10.5739969 2195.90445,10.5739969 C2194.73445,10.5739969 2194.03245,11.2759969 2193.79845,12.5629969 C2193.68145,13.1479969 2193.56445,13.9669969 2193.56445,16.1899969 L2193.56445,62.1709969 C2193.56445,64.7449969 2193.68145,65.4469969 2193.79845,66.0319969 C2194.14945,67.2019969 2194.85145,67.9039969 2195.90445,67.9039969 C2197.54245,67.9039969 2198.24445,66.6169969 2198.24445,63.8089969 L2198.24445,14.5519969 Z M2233.06508,78.1999969 L2246.40308,78.1999969 L2246.40308,40.7599969 L2254.59308,40.7599969 L2254.59308,30.2299969 L2246.40308,30.2299969 L2246.40308,10.6909969 L2254.59308,10.6909969 L2254.59308,0.160996948 L2233.06508,0.160996948 L2233.06508,78.1999969 Z M2289.0269,0.160996948 L2275.8059,0.160996948 L2275.8059,63.3409969 C2275.8059,66.6169969 2275.2209,67.9039969 2273.4659,67.9039969 C2271.7109,67.9039969 2271.1259,66.7339969 2271.1259,63.2239969 L2271.1259,0.160996948 L2257.9049,0.160996948 L2257.9049,65.4469969 C2257.9049,70.9459969 2258.4899,73.0519969 2260.5959,75.1579969 C2263.0529,77.7319969 2265.7439,78.4339969 2272.6469,78.4339969 C2280.3689,78.4339969 2282.3579,78.0829969 2284.9319,76.3279969 C2287.9739,74.2219969 2289.0269,71.6479969 2289.0269,66.6169969 L2289.0269,0.160996948 Z M2294.32771,78.1999969 L2306.02771,78.1999969 L2306.02771,39.0049969 L2313.51571,78.1999969 L2327.08771,78.1999969 L2327.08771,0.160996948 L2315.38771,0.160996948 L2315.38771,36.7819969 L2308.01671,0.160996948 L2294.32771,0.160996948 L2294.32771,78.1999969 Z M2332.62253,78.1999969 L2332.62253,0.160996948 L2351.92753,0.160996948 C2360.11753,0.277996948 2363.86153,3.78799695 2363.86153,11.3929969 L2363.86153,66.2659969 C2363.86153,74.8069969 2360.23453,78.1999969 2351.69353,78.1999969 L2332.62253,78.1999969 Z M2345.96053,67.6699969 L2347.24753,67.6699969 C2350.05553,67.6699969 2350.64053,66.9679969 2350.64053,63.6919969 L2350.64053,14.7859969 C2350.64053,11.3929969 2350.17253,10.6909969 2347.94953,10.6909969 L2345.96053,10.6909969 L2345.96053,67.6699969 Z M2368.34334,45.7909969 L2368.34334,66.6169969 C2368.34334,71.9989969 2369.74734,74.9239969 2373.37434,76.9129969 C2375.59734,78.0829969 2377.58634,78.4339969 2383.55334,78.4339969 C2391.39234,78.4339969 2394.08334,77.8489969 2396.42334,75.6259969 C2398.88034,73.4029969 2399.58234,71.0629969 2399.58234,65.4469969 L2399.58234,47.4289969 C2399.58234,41.2279969 2398.52934,39.1219969 2394.31734,36.4309969 L2383.43634,29.7619969 C2381.79834,28.7089969 2381.68134,28.4749969 2381.68134,25.7839969 L2381.68134,14.7859969 C2381.68134,11.5099969 2382.26634,10.4569969 2384.02134,10.4569969 C2385.77634,10.4569969 2386.36134,11.3929969 2386.36134,15.1369969 L2386.36134,27.0709969 L2399.58234,27.0709969 L2399.58234,11.9779969 C2399.58234,6.94699695 2398.52934,4.25599695 2395.60434,2.14999695 C2393.14734,0.394996948 2391.04134,0.0439969482 2384.72334,0.0439969482 C2377.58634,0.0439969482 2375.36334,0.394996948 2372.90634,1.79899695 C2369.51334,3.78799695 2368.34334,6.47899695 2368.34334,12.2119969 L2368.34334,25.5499969 C2368.34334,32.6869969 2369.51334,34.7929969 2375.12934,38.0689969 L2382.85134,42.6319969 L2383.55334,43.0999969 C2386.12734,44.6209969 2386.36134,44.9719969 2386.36134,49.1839969 L2386.36134,63.5749969 C2386.36134,66.4999969 2385.65934,67.7869969 2384.02134,67.7869969 C2382.38334,67.7869969 2381.68134,66.4999969 2381.68134,63.8089969 L2381.68134,45.7909969 L2368.34334,45.7909969 Z" id="KOJO-FUNDS" fill="#FFFFFF"></path>
            <path d="M2524.861,78.1999969 L2524.861,0.160996948 L2545.804,0.160996948 C2550.016,0.394996948 2553.175,2.14999695 2554.93,5.30899695 C2555.866,6.94699695 2556.1,8.81899695 2556.1,13.2649969 L2556.1,38.6539969 C2556.1,42.8659969 2555.632,44.8549969 2554.345,46.7269969 C2552.356,49.7689969 2549.782,50.9389969 2544.634,50.9389969 L2538.199,50.9389969 L2538.199,78.1999969 L2524.861,78.1999969 Z M2538.199,40.4089969 L2540.188,40.4089969 C2541.943,40.2919969 2542.879,39.3559969 2542.879,37.2499969 L2542.879,13.6159969 C2542.879,11.5099969 2542.06,10.6909969 2539.954,10.6909969 L2538.199,10.6909969 L2538.199,40.4089969 Z M2559.99682,78.1999969 L2559.99682,0.160996948 L2579.53582,0.160996948 C2584.21582,0.277996948 2586.90682,1.33099695 2589.01282,3.78799695 C2590.88482,6.01099695 2591.23582,7.64899695 2591.23582,13.4989969 L2591.23582,29.4109969 C2591.23582,35.7289969 2590.41682,37.3669969 2585.61982,39.8239969 C2589.59782,41.2279969 2591.23582,43.8019969 2591.23582,48.8329969 L2591.23582,78.1999969 L2578.01482,78.1999969 L2578.01482,50.1199969 L2577.89782,48.8329969 C2577.89782,45.9079969 2576.96182,45.0889969 2574.15382,45.0889969 L2573.33482,45.0889969 L2573.33482,78.1999969 L2559.99682,78.1999969 Z M2573.33482,10.6909969 L2573.33482,34.5589969 L2575.32382,34.5589969 C2577.07882,34.4419969 2578.01482,33.5059969 2578.01482,31.3999969 L2578.01482,13.6159969 C2578.01482,11.5099969 2577.19582,10.6909969 2575.08982,10.6909969 L2573.33482,10.6909969 Z M2601.91863,78.1999969 L2615.13963,78.1999969 L2615.13963,46.9609969 L2624.49963,0.160996948 L2612.09763,0.160996948 L2608.58763,30.4639969 L2605.07763,0.160996948 L2591.73963,0.160996948 L2601.91863,46.9609969 L2601.91863,78.1999969 Z M2626.52445,78.1999969 L2638.22445,78.1999969 L2638.22445,39.0049969 L2645.71245,78.1999969 L2659.28445,78.1999969 L2659.28445,0.160996948 L2647.58445,0.160996948 L2647.58445,36.7819969 L2640.21345,0.160996948 L2626.52445,0.160996948 L2626.52445,78.1999969 Z M2664.46826,11.2759969 L2664.46826,66.9679969 C2664.46826,71.8819969 2665.87226,74.8069969 2669.14826,76.6789969 C2671.48826,78.0829969 2673.71126,78.4339969 2680.02926,78.4339969 C2684.47526,78.4339969 2686.81526,78.1999969 2688.45326,77.7319969 C2691.37826,77.0299969 2693.83526,74.9239969 2694.88826,72.2329969 C2695.59026,70.5949969 2695.70726,69.4249969 2695.70726,64.1599969 L2695.70726,45.7909969 L2682.36926,45.7909969 L2682.36926,63.8089969 C2682.36926,66.6169969 2681.66726,67.9039969 2680.02926,67.9039969 C2678.97626,67.9039969 2678.27426,67.2019969 2677.92326,66.0319969 C2677.80626,65.4469969 2677.68926,64.7449969 2677.68926,62.2879969 L2677.68926,14.4349969 C2677.68926,11.7439969 2678.50826,10.5739969 2680.02926,10.5739969 C2681.66726,10.5739969 2682.36926,11.7439969 2682.36926,14.6689969 L2682.36926,27.0709969 L2695.70726,27.0709969 L2695.70726,14.3179969 C2695.70726,11.1589969 2695.70726,10.4569969 2695.59026,9.28699695 C2695.23926,6.47899695 2694.30326,4.37299695 2692.54826,2.85199695 C2689.97426,0.628996948 2687.63426,0.0439969482 2680.49726,0.0439969482 C2673.71126,0.0439969482 2671.37126,0.277996948 2669.14826,1.68199695 C2665.98926,3.55399695 2664.46826,6.47899695 2664.46826,11.2759969 Z M2700.54008,78.1999969 L2722.41908,78.1999969 L2722.41908,67.6699969 L2713.87808,67.6699969 L2713.87808,40.7599969 L2722.41908,40.7599969 L2722.41908,30.2299969 L2713.87808,30.2299969 L2713.87808,10.6909969 L2722.41908,10.6909969 L2722.41908,0.160996948 L2700.54008,0.160996948 L2700.54008,78.1999969 Z M2743.55071,78.1999969 L2755.71871,78.1999969 L2755.71871,33.9739969 L2761.56871,78.1999969 L2770.10971,78.1999969 L2775.95971,33.9739969 L2775.95971,78.1999969 L2788.01071,78.1999969 L2788.01071,0.160996948 L2769.29071,0.160996948 L2765.78071,37.6009969 L2762.27071,0.160996948 L2743.55071,0.160996948 L2743.55071,78.1999969 Z M2793.54553,78.1999969 L2806.88353,78.1999969 L2806.88353,0.160996948 L2793.54553,0.160996948 L2793.54553,78.1999969 Z M2812.30134,78.1999969 L2824.00134,78.1999969 L2824.00134,39.0049969 L2831.48934,78.1999969 L2845.06134,78.1999969 L2845.06134,0.160996948 L2833.36134,0.160996948 L2833.36134,36.7819969 L2825.99034,0.160996948 L2812.30134,0.160996948 L2812.30134,78.1999969 Z M2850.59616,78.1999969 L2863.93416,78.1999969 L2863.93416,0.160996948 L2850.59616,0.160996948 L2850.59616,78.1999969 Z" id="PRYNCE-MINI" fill="#FFFFFF"></path>
            <path d="M2986.51,11.2759969 L2986.51,66.9679969 C2986.51,71.8819969 2987.914,74.8069969 2991.19,76.6789969 C2993.53,78.0829969 2995.753,78.4339969 3002.071,78.4339969 C3006.517,78.4339969 3008.857,78.1999969 3010.495,77.7319969 C3013.42,77.0299969 3015.877,74.9239969 3016.93,72.2329969 C3017.632,70.5949969 3017.749,69.4249969 3017.749,64.1599969 L3017.749,45.7909969 L3004.411,45.7909969 L3004.411,63.8089969 C3004.411,66.6169969 3003.709,67.9039969 3002.071,67.9039969 C3001.018,67.9039969 3000.316,67.2019969 2999.965,66.0319969 C2999.848,65.4469969 2999.731,64.7449969 2999.731,62.2879969 L2999.731,14.4349969 C2999.731,11.7439969 3000.55,10.5739969 3002.071,10.5739969 C3003.709,10.5739969 3004.411,11.7439969 3004.411,14.6689969 L3004.411,27.0709969 L3017.749,27.0709969 L3017.749,14.3179969 C3017.749,11.1589969 3017.749,10.4569969 3017.632,9.28699695 C3017.281,6.47899695 3016.345,4.37299695 3014.59,2.85199695 C3012.016,0.628996948 3009.676,0.0439969482 3002.539,0.0439969482 C2995.753,0.0439969482 2993.413,0.277996948 2991.19,1.68199695 C2988.031,3.55399695 2986.51,6.47899695 2986.51,11.2759969 Z M3019.53982,78.1999969 L3026.67682,0.160996948 L3044.69482,0.160996948 L3052.53382,78.1999969 L3039.31282,78.1999969 L3038.37682,61.8199969 L3032.40982,61.8199969 L3031.23982,78.1999969 L3019.53982,78.1999969 Z M3033.11182,51.2899969 L3037.79182,51.2899969 L3035.91982,23.3269969 C3035.91982,23.0929969 3035.91982,22.9759969 3035.80282,22.7419969 L3035.68582,19.8169969 C3035.56882,18.8809969 3035.45182,18.0619969 3035.45182,17.4769969 L3035.33482,16.6579969 L3035.33482,17.4769969 C3035.21782,18.4129969 3035.10082,19.3489969 3035.10082,20.1679969 C3034.98382,21.5719969 3034.86682,22.6249969 3034.86682,22.7419969 L3034.86682,23.3269969 L3033.11182,51.2899969 Z M3054.79263,78.1999969 L3054.79263,0.160996948 L3074.09763,0.160996948 C3082.28763,0.277996948 3086.03163,3.78799695 3086.03163,11.3929969 L3086.03163,66.2659969 C3086.03163,74.8069969 3082.40463,78.1999969 3073.86363,78.1999969 L3054.79263,78.1999969 Z M3068.13063,67.6699969 L3069.41763,67.6699969 C3072.22563,67.6699969 3072.81063,66.9679969 3072.81063,63.6919969 L3072.81063,14.7859969 C3072.81063,11.3929969 3072.34263,10.6909969 3070.11963,10.6909969 L3068.13063,10.6909969 L3068.13063,67.6699969 Z M3091.09845,78.1999969 L3112.97745,78.1999969 L3112.97745,67.6699969 L3104.43645,67.6699969 L3104.43645,40.7599969 L3112.97745,40.7599969 L3112.97745,30.2299969 L3104.43645,30.2299969 L3104.43645,10.6909969 L3112.97745,10.6909969 L3112.97745,0.160996948 L3091.09845,0.160996948 L3091.09845,78.1999969 Z M3117.69326,78.1999969 L3129.39326,78.1999969 L3129.39326,39.0049969 L3136.88126,78.1999969 L3150.45326,78.1999969 L3150.45326,0.160996948 L3138.75326,0.160996948 L3138.75326,36.7819969 L3131.38226,0.160996948 L3117.69326,0.160996948 L3117.69326,78.1999969 Z M3154.11608,78.1999969 L3181.02608,78.1999969 L3181.02608,67.6699969 L3167.33708,67.6699969 L3181.02608,9.98899695 L3181.02608,0.160996948 L3155.28608,0.160996948 L3155.28608,10.6909969 L3167.68808,10.6909969 L3154.11608,68.4889969 L3154.11608,78.1999969 Z M3181.4129,78.1999969 L3188.5499,0.160996948 L3206.5679,0.160996948 L3214.4069,78.1999969 L3201.1859,78.1999969 L3200.2499,61.8199969 L3194.2829,61.8199969 L3193.1129,78.1999969 L3181.4129,78.1999969 Z M3194.9849,51.2899969 L3199.6649,51.2899969 L3197.7929,23.3269969 C3197.7929,23.0929969 3197.7929,22.9759969 3197.6759,22.7419969 L3197.5589,19.8169969 C3197.4419,18.8809969 3197.3249,18.0619969 3197.3249,17.4769969 L3197.2079,16.6579969 L3197.2079,17.4769969 C3197.0909,18.4129969 3196.9739,19.3489969 3196.9739,20.1679969 C3196.8569,21.5719969 3196.7399,22.6249969 3196.7399,22.7419969 L3196.7399,23.3269969 L3194.9849,51.2899969 Z" id="CADENZA" fill="#FFFFFF"></path>
            <path d="M3331.989,78.1999969 L3358.899,78.1999969 L3358.899,67.6699969 L3345.21,67.6699969 L3358.899,9.98899695 L3358.899,0.160996948 L3333.159,0.160996948 L3333.159,10.6909969 L3345.561,10.6909969 L3331.989,68.4889969 L3331.989,78.1999969 Z M3361.97682,11.3929969 C3361.97682,6.47899695 3363.38082,3.55399695 3366.65682,1.68199695 C3368.99682,0.394996948 3371.21982,0.0439969482 3377.53782,0.0439969482 C3385.25982,0.0439969482 3387.71682,0.628996948 3390.29082,2.96899695 C3391.92882,4.60699695 3392.74782,6.47899695 3393.09882,9.16999695 C3393.21582,10.3399969 3393.21582,10.8079969 3393.21582,14.3179969 L3393.21582,64.1599969 C3393.21582,69.4249969 3393.09882,70.5949969 3392.39682,72.2329969 C3391.34382,74.9239969 3388.88682,77.0299969 3385.96182,77.7319969 C3384.32382,78.1999969 3381.98382,78.4339969 3377.53782,78.4339969 C3371.21982,78.4339969 3368.99682,78.0829969 3366.65682,76.6789969 C3363.38082,74.8069969 3361.97682,71.8819969 3361.97682,66.9679969 L3361.97682,11.3929969 Z M3379.87782,14.5519969 C3379.87782,11.6269969 3379.17582,10.5739969 3377.53782,10.5739969 C3376.36782,10.5739969 3375.66582,11.2759969 3375.43182,12.5629969 C3375.31482,13.1479969 3375.19782,13.9669969 3375.19782,16.1899969 L3375.19782,62.1709969 C3375.19782,64.7449969 3375.31482,65.4469969 3375.43182,66.0319969 C3375.78282,67.2019969 3376.48482,67.9039969 3377.53782,67.9039969 C3379.17582,67.9039969 3379.87782,66.6169969 3379.87782,63.8089969 L3379.87782,14.5519969 Z M3398.28263,78.1999969 L3409.98263,78.1999969 L3409.98263,39.0049969 L3417.47063,78.1999969 L3431.04263,78.1999969 L3431.04263,0.160996948 L3419.34263,0.160996948 L3419.34263,36.7819969 L3411.97163,0.160996948 L3398.28263,0.160996948 L3398.28263,78.1999969 Z M3436.57745,78.1999969 L3458.45645,78.1999969 L3458.45645,67.6699969 L3449.91545,67.6699969 L3449.91545,40.7599969 L3458.45645,40.7599969 L3458.45645,30.2299969 L3449.91545,30.2299969 L3449.91545,10.6909969 L3458.45645,10.6909969 L3458.45645,0.160996948 L3436.57745,0.160996948 L3436.57745,78.1999969 Z M3479.58808,78.1999969 L3492.92608,78.1999969 L3492.92608,0.160996948 L3479.58808,0.160996948 L3479.58808,78.1999969 Z M3498.3439,78.1999969 L3511.6819,78.1999969 L3511.6819,0.160996948 L3498.3439,0.160996948 L3498.3439,78.1999969 Z" id="ZONE-II" fill="#FFFFFF"></path>
            <path d="M1255.31574,45.7909969 L1255.31574,66.6169969 C1255.31574,71.9989969 1256.71974,74.9239969 1260.34674,76.9129969 C1262.56974,78.0829969 1264.55874,78.4339969 1270.52574,78.4339969 C1278.36474,78.4339969 1281.05574,77.8489969 1283.39574,75.6259969 C1285.85274,73.4029969 1286.55474,71.0629969 1286.55474,65.4469969 L1286.55474,47.4289969 C1286.55474,41.2279969 1285.50174,39.1219969 1281.28974,36.4309969 L1270.40874,29.7619969 C1268.77074,28.7089969 1268.65374,28.4749969 1268.65374,25.7839969 L1268.65374,14.7859969 C1268.65374,11.5099969 1269.23874,10.4569969 1270.99374,10.4569969 C1272.74874,10.4569969 1273.33374,11.3929969 1273.33374,15.1369969 L1273.33374,27.0709969 L1286.55474,27.0709969 L1286.55474,11.9779969 C1286.55474,6.94699695 1285.50174,4.25599695 1282.57674,2.14999695 C1280.11974,0.394996948 1278.01374,0.0439969482 1271.69574,0.0439969482 C1264.55874,0.0439969482 1262.33574,0.394996948 1259.87874,1.79899695 C1256.48574,3.78799695 1255.31574,6.47899695 1255.31574,12.2119969 L1255.31574,25.5499969 C1255.31574,32.6869969 1256.48574,34.7929969 1262.10174,38.0689969 L1269.82374,42.6319969 L1270.52574,43.0999969 C1273.09974,44.6209969 1273.33374,44.9719969 1273.33374,49.1839969 L1273.33374,63.5749969 C1273.33374,66.4999969 1272.63174,67.7869969 1270.99374,67.7869969 C1269.35574,67.7869969 1268.65374,66.4999969 1268.65374,63.8089969 L1268.65374,45.7909969 L1255.31574,45.7909969 Z M1291.38755,78.1999969 L1304.72555,78.1999969 L1304.72555,40.7599969 L1309.40555,40.7599969 L1309.40555,78.1999969 L1322.62655,78.1999969 L1322.62655,0.160996948 L1309.40555,0.160996948 L1309.40555,30.2299969 L1304.72555,30.2299969 L1304.72555,0.160996948 L1291.38755,0.160996948 L1291.38755,78.1999969 Z M1328.04437,78.1999969 L1349.92337,78.1999969 L1349.92337,67.6699969 L1341.38237,67.6699969 L1341.38237,40.7599969 L1349.92337,40.7599969 L1349.92337,30.2299969 L1341.38237,30.2299969 L1341.38237,10.6909969 L1349.92337,10.6909969 L1349.92337,0.160996948 L1328.04437,0.160996948 L1328.04437,78.1999969 Z M1354.63918,78.1999969 L1366.33918,78.1999969 L1366.33918,39.0049969 L1373.82718,78.1999969 L1387.39918,78.1999969 L1387.39918,0.160996948 L1375.69918,0.160996948 L1375.69918,36.7819969 L1368.32818,0.160996948 L1354.63918,0.160996948 L1354.63918,78.1999969 Z M1392.349,45.7909969 L1392.349,66.6169969 C1392.349,71.9989969 1393.753,74.9239969 1397.38,76.9129969 C1399.603,78.0829969 1401.592,78.4339969 1407.559,78.4339969 C1415.398,78.4339969 1418.089,77.8489969 1420.429,75.6259969 C1422.886,73.4029969 1423.588,71.0629969 1423.588,65.4469969 L1423.588,47.4289969 C1423.588,41.2279969 1422.535,39.1219969 1418.323,36.4309969 L1407.442,29.7619969 C1405.804,28.7089969 1405.687,28.4749969 1405.687,25.7839969 L1405.687,14.7859969 C1405.687,11.5099969 1406.272,10.4569969 1408.027,10.4569969 C1409.782,10.4569969 1410.367,11.3929969 1410.367,15.1369969 L1410.367,27.0709969 L1423.588,27.0709969 L1423.588,11.9779969 C1423.588,6.94699695 1422.535,4.25599695 1419.61,2.14999695 C1417.153,0.394996948 1415.047,0.0439969482 1408.729,0.0439969482 C1401.592,0.0439969482 1399.369,0.394996948 1396.912,1.79899695 C1393.519,3.78799695 1392.349,6.47899695 1392.349,12.2119969 L1392.349,25.5499969 C1392.349,32.6869969 1393.519,34.7929969 1399.135,38.0689969 L1406.857,42.6319969 L1407.559,43.0999969 C1410.133,44.6209969 1410.367,44.9719969 1410.367,49.1839969 L1410.367,63.5749969 C1410.367,66.4999969 1409.665,67.7869969 1408.027,67.7869969 C1406.389,67.7869969 1405.687,66.4999969 1405.687,63.8089969 L1405.687,45.7909969 L1392.349,45.7909969 Z M1428.42082,78.1999969 L1450.29982,78.1999969 L1450.29982,67.6699969 L1441.75882,67.6699969 L1441.75882,40.7599969 L1450.29982,40.7599969 L1450.29982,30.2299969 L1441.75882,30.2299969 L1441.75882,10.6909969 L1450.29982,10.6909969 L1450.29982,0.160996948 L1428.42082,0.160996948 L1428.42082,78.1999969 Z M1455.01563,78.1999969 L1476.89463,78.1999969 L1476.89463,67.6699969 L1468.35363,67.6699969 L1468.35363,40.7599969 L1476.89463,40.7599969 L1476.89463,30.2299969 L1468.35363,30.2299969 L1468.35363,10.6909969 L1476.89463,10.6909969 L1476.89463,0.160996948 L1455.01563,0.160996948 L1455.01563,78.1999969 Z M1478.56845,78.1999969 L1485.70545,0.160996948 L1503.72345,0.160996948 L1511.56245,78.1999969 L1498.34145,78.1999969 L1497.40545,61.8199969 L1491.43845,61.8199969 L1490.26845,78.1999969 L1478.56845,78.1999969 Z M1492.14045,51.2899969 L1496.82045,51.2899969 L1494.94845,23.3269969 C1494.94845,23.0929969 1494.94845,22.9759969 1494.83145,22.7419969 L1494.71445,19.8169969 C1494.59745,18.8809969 1494.48045,18.0619969 1494.48045,17.4769969 L1494.36345,16.6579969 L1494.36345,17.4769969 C1494.24645,18.4129969 1494.12945,19.3489969 1494.12945,20.1679969 C1494.01245,21.5719969 1493.89545,22.6249969 1493.89545,22.7419969 L1493.89545,23.3269969 L1492.14045,51.2899969 Z" id="SHENSEEA" fill="#FFFFFF"></path>
            <path d="M0.904999428,81.1999969 L13.0729994,81.1999969 L13.0729994,36.9739969 L18.9229994,81.1999969 L27.4639994,81.1999969 L33.3139994,36.9739969 L33.3139994,81.1999969 L45.3649994,81.1999969 L45.3649994,3.16099695 L26.6449994,3.16099695 L23.1349994,40.6009969 L19.6249994,3.16099695 L0.904999428,3.16099695 L0.904999428,81.1999969 Z M50.9039995,81.1999969 L64.2419995,81.1999969 L64.2419995,3.16099695 L50.9039995,3.16099695 L50.9039995,81.1999969 Z M66.9729995,81.1999969 L79.0239995,81.1999969 L82.7679995,47.0359969 L86.0439995,81.1999969 L99.3819995,81.1999969 L93.6489995,40.1329969 L99.4989995,3.16099695 L87.4479995,3.16099695 L84.4059995,31.2409969 L81.2469995,3.16099695 L67.9089995,3.16099695 L73.1739995,40.1329969 L66.9729995,81.1999969 Z M102.23,81.1999969 L102.23,3.16099695 L123.173,3.16099695 C127.385,3.39499695 130.544,5.14999695 132.299,8.30899695 C133.235,9.94699695 133.469,11.8189969 133.469,16.2649969 L133.469,41.6539969 C133.469,45.8659969 133.001,47.8549969 131.714,49.7269969 C129.725,52.7689969 127.151,53.9389969 122.003,53.9389969 L115.568,53.9389969 L115.568,81.1999969 L102.23,81.1999969 Z M115.568,43.4089969 L117.557,43.4089969 C119.312,43.2919969 120.248,42.3559969 120.248,40.2499969 L120.248,16.6159969 C120.248,14.5099969 119.429,13.6909969 117.323,13.6909969 L115.568,13.6909969 L115.568,43.4089969 Z M133.158,81.1999969 L140.295,3.16099695 L158.313,3.16099695 L166.152,81.1999969 L152.931,81.1999969 L151.995,64.8199969 L146.028,64.8199969 L144.858,81.1999969 L133.158,81.1999969 Z M146.73,54.2899969 L151.41,54.2899969 L149.538,26.3269969 C149.538,26.0929969 149.538,25.9759969 149.421,25.7419969 L149.304,22.8169969 C149.187,21.8809969 149.07,21.0619969 149.07,20.4769969 L148.953,19.6579969 L148.953,20.4769969 C148.836,21.4129969 148.719,22.3489969 148.719,23.1679969 C148.602,24.5719969 148.485,25.6249969 148.485,25.7419969 L148.485,26.3269969 L146.73,54.2899969 Z M168.532,81.1999969 L181.753,81.1999969 L181.753,44.8129969 L187.603,81.1999969 L200.473,81.1999969 L191.932,36.8569969 L198.835,3.16099695 L186.784,3.16099695 L181.753,32.7619969 L181.753,3.16099695 L168.532,3.16099695 L168.532,81.1999969 Z M218.571,48.7909969 L218.571,69.6169969 C218.571,74.9989969 219.975,77.9239969 223.602,79.9129969 C225.825,81.0829969 227.814,81.4339969 233.781,81.4339969 C241.62,81.4339969 244.311,80.8489969 246.651,78.6259969 C249.108,76.4029969 249.81,74.0629969 249.81,68.4469969 L249.81,50.4289969 C249.81,44.2279969 248.757,42.1219969 244.545,39.4309969 L233.664,32.7619969 C232.026,31.7089969 231.909,31.4749969 231.909,28.7839969 L231.909,17.7859969 C231.909,14.5099969 232.494,13.4569969 234.249,13.4569969 C236.004,13.4569969 236.589,14.3929969 236.589,18.1369969 L236.589,30.0709969 L249.81,30.0709969 L249.81,14.9779969 C249.81,9.94699695 248.757,7.25599695 245.832,5.14999695 C243.375,3.39499695 241.269,3.04399695 234.951,3.04399695 C227.814,3.04399695 225.591,3.39499695 223.134,4.79899695 C219.741,6.78799695 218.571,9.47899695 218.571,15.2119969 L218.571,28.5499969 C218.571,35.6869969 219.741,37.7929969 225.357,41.0689969 L233.079,45.6319969 L233.781,46.0999969 C236.355,47.6209969 236.589,47.9719969 236.589,52.1839969 L236.589,66.5749969 C236.589,69.4999969 235.887,70.7869969 234.249,70.7869969 C232.611,70.7869969 231.909,69.4999969 231.909,66.8089969 L231.909,48.7909969 L218.571,48.7909969 Z M254.296,14.3929969 C254.296,9.47899695 255.7,6.55399695 258.976,4.68199695 C261.316,3.39499695 263.539,3.04399695 269.857,3.04399695 C277.579,3.04399695 280.036,3.62899695 282.61,5.96899695 C284.248,7.60699695 285.067,9.47899695 285.418,12.1699969 C285.535,13.3399969 285.535,13.8079969 285.535,17.3179969 L285.535,67.1599969 C285.535,72.4249969 285.418,73.5949969 284.716,75.2329969 C283.663,77.9239969 281.206,80.0299969 278.281,80.7319969 C276.643,81.1999969 274.303,81.4339969 269.857,81.4339969 C263.539,81.4339969 261.316,81.0829969 258.976,79.6789969 C255.7,77.8069969 254.296,74.8819969 254.296,69.9679969 L254.296,14.3929969 Z M272.197,17.5519969 C272.197,14.6269969 271.495,13.5739969 269.857,13.5739969 C268.687,13.5739969 267.985,14.2759969 267.751,15.5629969 C267.634,16.1479969 267.517,16.9669969 267.517,19.1899969 L267.517,65.1709969 C267.517,67.7449969 267.634,68.4469969 267.751,69.0319969 C268.102,70.2019969 268.804,70.9039969 269.857,70.9039969 C271.495,70.9039969 272.197,69.6169969 272.197,66.8089969 L272.197,17.5519969 Z M321.611,3.16099695 L308.39,3.16099695 L308.39,66.3409969 C308.39,69.6169969 307.805,70.9039969 306.05,70.9039969 C304.295,70.9039969 303.71,69.7339969 303.71,66.2239969 L303.71,3.16099695 L290.489,3.16099695 L290.489,68.4469969 C290.489,73.9459969 291.074,76.0519969 293.18,78.1579969 C295.637,80.7319969 298.328,81.4339969 305.231,81.4339969 C312.953,81.4339969 314.942,81.0829969 317.516,79.3279969 C320.558,77.2219969 321.611,74.6479969 321.611,69.6169969 L321.611,3.16099695 Z M326.916,81.1999969 L338.616,81.1999969 L338.616,42.0049969 L346.104,81.1999969 L359.676,81.1999969 L359.676,3.16099695 L347.976,3.16099695 L347.976,39.7819969 L340.605,3.16099695 L326.916,3.16099695 L326.916,81.1999969 Z M365.215,81.1999969 L365.215,3.16099695 L384.52,3.16099695 C392.71,3.27799695 396.454,6.78799695 396.454,14.3929969 L396.454,69.2659969 C396.454,77.8069969 392.827,81.1999969 384.286,81.1999969 L365.215,81.1999969 Z M378.553,70.6699969 L379.84,70.6699969 C382.648,70.6699969 383.233,69.9679969 383.233,66.6919969 L383.233,17.7859969 C383.233,14.3929969 382.765,13.6909969 380.542,13.6909969 L378.553,13.6909969 L378.553,70.6699969 Z M417.945,81.1999969 L431.283,81.1999969 L431.283,43.7599969 L439.473,43.7599969 L439.473,33.2299969 L431.283,33.2299969 L431.283,13.6909969 L439.473,13.6909969 L439.473,3.16099695 L417.945,3.16099695 L417.945,81.1999969 Z M447.235,81.1999969 L460.573,81.1999969 L460.573,13.6909969 L467.944,13.6909969 L467.944,3.16099695 L439.864,3.16099695 L439.864,13.6909969 L447.235,13.6909969 L447.235,81.1999969 Z M486.627,81.1999969 L486.627,3.16099695 L506.166,3.16099695 C510.846,3.27799695 513.537,4.33099695 515.643,6.78799695 C517.515,9.01099695 517.866,10.6489969 517.866,16.4989969 L517.866,32.4109969 C517.866,38.7289969 517.047,40.3669969 512.25,42.8239969 C516.228,44.2279969 517.866,46.8019969 517.866,51.8329969 L517.866,81.1999969 L504.645,81.1999969 L504.645,53.1199969 L504.528,51.8329969 C504.528,48.9079969 503.592,48.0889969 500.784,48.0889969 L499.965,48.0889969 L499.965,81.1999969 L486.627,81.1999969 Z M499.965,13.6909969 L499.965,37.5589969 L501.954,37.5589969 C503.709,37.4419969 504.645,36.5059969 504.645,34.3999969 L504.645,16.6159969 C504.645,14.5099969 503.826,13.6909969 501.72,13.6909969 L499.965,13.6909969 Z M522.703,81.1999969 L536.041,81.1999969 L536.041,3.16099695 L522.703,3.16099695 L522.703,81.1999969 Z M541.58,81.1999969 L554.801,81.1999969 L554.801,44.8129969 L560.651,81.1999969 L573.521,81.1999969 L564.98,36.8569969 L571.883,3.16099695 L559.832,3.16099695 L554.801,32.7619969 L554.801,3.16099695 L541.58,3.16099695 L541.58,81.1999969 Z M574.263,14.3929969 C574.263,9.47899695 575.667,6.55399695 578.943,4.68199695 C581.283,3.39499695 583.506,3.04399695 589.824,3.04399695 C597.546,3.04399695 600.003,3.62899695 602.577,5.96899695 C604.215,7.60699695 605.034,9.47899695 605.385,12.1699969 C605.502,13.3399969 605.502,13.8079969 605.502,17.3179969 L605.502,67.1599969 C605.502,72.4249969 605.385,73.5949969 604.683,75.2329969 C603.63,77.9239969 601.173,80.0299969 598.248,80.7319969 C596.61,81.1999969 594.27,81.4339969 589.824,81.4339969 C583.506,81.4339969 581.283,81.0829969 578.943,79.6789969 C575.667,77.8069969 574.263,74.8819969 574.263,69.9679969 L574.263,14.3929969 Z M592.164,17.5519969 C592.164,14.6269969 591.462,13.5739969 589.824,13.5739969 C588.654,13.5739969 587.952,14.2759969 587.718,15.5629969 C587.601,16.1479969 587.484,16.9669969 587.484,19.1899969 L587.484,65.1709969 C587.484,67.7449969 587.601,68.4469969 587.718,69.0319969 C588.069,70.2019969 588.771,70.9039969 589.824,70.9039969 C591.462,70.9039969 592.164,69.6169969 592.164,66.8089969 L592.164,17.5519969 Z M626.993,81.1999969 L626.993,3.16099695 L646.298,3.16099695 C654.488,3.27799695 658.232,6.78799695 658.232,14.3929969 L658.232,69.2659969 C658.232,77.8069969 654.605,81.1999969 646.064,81.1999969 L626.993,81.1999969 Z M640.331,70.6699969 L641.618,70.6699969 C644.426,70.6699969 645.011,69.9679969 645.011,66.6919969 L645.011,17.7859969 C645.011,14.3929969 644.543,13.6909969 642.32,13.6909969 L640.331,13.6909969 L640.331,70.6699969 Z M660.261,81.1999969 L667.398,3.16099695 L685.416,3.16099695 L693.255,81.1999969 L680.034,81.1999969 L679.098,64.8199969 L673.131,64.8199969 L671.961,81.1999969 L660.261,81.1999969 Z M673.833,54.2899969 L678.513,54.2899969 L676.641,26.3269969 C676.641,26.0929969 676.641,25.9759969 676.524,25.7419969 L676.407,22.8169969 C676.29,21.8809969 676.173,21.0619969 676.173,20.4769969 L676.056,19.6579969 L676.056,20.4769969 C675.939,21.4129969 675.822,22.3489969 675.822,23.1679969 C675.705,24.5719969 675.588,25.6249969 675.588,25.7419969 L675.588,26.3269969 L673.833,54.2899969 Z M695.518001,81.1999969 L707.218001,81.1999969 L707.218001,42.0049969 L714.706001,81.1999969 L728.278001,81.1999969 L728.278001,3.16099695 L716.578001,3.16099695 L716.578001,39.7819969 L709.207001,3.16099695 L695.518001,3.16099695 L695.518001,81.1999969 Z" id="MIXPAK-SOUND-FT-RIKO" fill="#FFFFFF"></path>
            <path d="M850.210328,78.1999969 L872.089328,78.1999969 L872.089328,67.6699969 L863.548328,67.6699969 L863.548328,40.7599969 L872.089328,40.7599969 L872.089328,30.2299969 L863.548328,30.2299969 L863.548328,10.6909969 L872.089328,10.6909969 L872.089328,0.160996948 L850.210328,0.160996948 L850.210328,78.1999969 Z M907.108144,79.0189969 L902.428144,87.0919969 C896.578144,85.5709969 892.366144,82.9969969 887.803144,78.3169969 C880.081144,77.9659969 876.454144,74.4559969 876.454144,66.9679969 L876.454144,11.3929969 C876.454144,6.47899695 877.858144,3.55399695 881.134144,1.68199695 C883.474144,0.394996948 885.697144,0.0439969482 892.015144,0.0439969482 C899.737144,0.0439969482 902.194144,0.628996948 904.768144,2.96899695 C906.406144,4.60699695 907.225144,6.47899695 907.576144,9.16999695 C907.693144,10.3399969 907.693144,10.8079969 907.693144,14.3179969 L907.693144,64.1599969 C907.693144,70.8289969 907.459144,71.9989969 905.704144,74.3389969 C903.949144,76.6789969 901.492144,77.8489969 897.982144,78.1999969 C900.088144,78.7849969 901.726144,79.0189969 904.768144,79.0189969 L907.108144,79.0189969 Z M894.355144,14.5519969 C894.355144,11.6269969 893.653144,10.5739969 892.015144,10.5739969 C890.845144,10.5739969 890.143144,11.2759969 889.909144,12.5629969 C889.792144,13.1479969 889.675144,13.9669969 889.675144,16.1899969 L889.675144,62.1709969 C889.675144,64.7449969 889.792144,65.4469969 889.909144,66.0319969 C890.260144,67.2019969 890.962144,67.9039969 892.015144,67.9039969 C893.653144,67.9039969 894.355144,66.6169969 894.355144,63.8089969 L894.355144,14.5519969 Z M943.76496,0.160996948 L930.54396,0.160996948 L930.54396,63.3409969 C930.54396,66.6169969 929.95896,67.9039969 928.20396,67.9039969 C926.44896,67.9039969 925.86396,66.7339969 925.86396,63.2239969 L925.86396,0.160996948 L912.64296,0.160996948 L912.64296,65.4469969 C912.64296,70.9459969 913.22796,73.0519969 915.33396,75.1579969 C917.79096,77.7319969 920.48196,78.4339969 927.38496,78.4339969 C935.10696,78.4339969 937.09596,78.0829969 939.66996,76.3279969 C942.71196,74.2219969 943.76496,71.6479969 943.76496,66.6169969 L943.76496,0.160996948 Z M949.065776,78.1999969 L962.403776,78.1999969 L962.403776,0.160996948 L949.065776,0.160996948 L949.065776,78.1999969 Z M967.938592,78.1999969 L981.159592,78.1999969 L981.159592,41.8129969 L987.009592,78.1999969 L999.879592,78.1999969 L991.338592,33.8569969 L998.241592,0.160996948 L986.190592,0.160996948 L981.159592,29.7619969 L981.159592,0.160996948 L967.938592,0.160996948 L967.938592,78.1999969 Z M1002.13841,78.1999969 L1013.83841,78.1999969 L1013.83841,39.0049969 L1021.32641,78.1999969 L1034.89841,78.1999969 L1034.89841,0.160996948 L1023.19841,0.160996948 L1023.19841,36.7819969 L1015.82741,0.160996948 L1002.13841,0.160996948 L1002.13841,78.1999969 Z M1040.08222,11.3929969 C1040.08222,6.47899695 1041.48622,3.55399695 1044.76222,1.68199695 C1047.10222,0.394996948 1049.32522,0.0439969482 1055.64322,0.0439969482 C1063.36522,0.0439969482 1065.82222,0.628996948 1068.39622,2.96899695 C1070.03422,4.60699695 1070.85322,6.47899695 1071.20422,9.16999695 C1071.32122,10.3399969 1071.32122,10.8079969 1071.32122,14.3179969 L1071.32122,64.1599969 C1071.32122,69.4249969 1071.20422,70.5949969 1070.50222,72.2329969 C1069.44922,74.9239969 1066.99222,77.0299969 1064.06722,77.7319969 C1062.42922,78.1999969 1060.08922,78.4339969 1055.64322,78.4339969 C1049.32522,78.4339969 1047.10222,78.0829969 1044.76222,76.6789969 C1041.48622,74.8069969 1040.08222,71.8819969 1040.08222,66.9679969 L1040.08222,11.3929969 Z M1057.98322,14.5519969 C1057.98322,11.6269969 1057.28122,10.5739969 1055.64322,10.5739969 C1054.47322,10.5739969 1053.77122,11.2759969 1053.53722,12.5629969 C1053.42022,13.1479969 1053.30322,13.9669969 1053.30322,16.1899969 L1053.30322,62.1709969 C1053.30322,64.7449969 1053.42022,65.4469969 1053.53722,66.0319969 C1053.88822,67.2019969 1054.59022,67.9039969 1055.64322,67.9039969 C1057.28122,67.9039969 1057.98322,66.6169969 1057.98322,63.8089969 L1057.98322,14.5519969 Z M1073.69704,78.1999969 L1085.74804,78.1999969 L1089.49204,44.0359969 L1092.76804,78.1999969 L1106.10604,78.1999969 L1100.37304,37.1329969 L1106.22304,0.160996948 L1094.17204,0.160996948 L1091.13004,28.2409969 L1087.97104,0.160996948 L1074.63304,0.160996948 L1079.89804,37.1329969 L1073.69704,78.1999969 Z M1106.25886,78.1999969 L1118.30986,78.1999969 L1122.05386,44.0359969 L1125.32986,78.1999969 L1138.66786,78.1999969 L1132.93486,37.1329969 L1138.78486,0.160996948 L1126.73386,0.160996948 L1123.69186,28.2409969 L1120.53286,0.160996948 L1107.19486,0.160996948 L1112.45986,37.1329969 L1106.25886,78.1999969 Z" id="EQUIKNOXX" fill="#FFFFFF"></path>
            <path d="M1197.76074,31.4526367 C1200.65529,25.5112008 1203.82591,21.0551906 1207.27271,18.0844727 C1210.7195,15.1137547 1214.44236,13.628418 1218.44141,13.628418 C1224.07815,13.628418 1228.84837,15.9802011 1232.7522,20.6838379 C1236.65603,25.3874747 1238.60791,31.1098296 1238.60791,37.8510742 C1238.60791,45.1636108 1236.49416,51.4762918 1232.2666,56.7893066 C1228.03904,62.1023215 1223.01175,64.7587891 1217.18457,64.7587891 C1213.68065,64.7587891 1210.06252,63.2258454 1206.33008,60.1599121 C1202.59764,57.0939788 1198.77004,52.4761051 1194.84717,46.3061523 C1191.91454,52.2475883 1188.72487,56.7035984 1185.27808,59.6743164 C1181.83128,62.6450344 1178.12746,64.1303711 1174.1665,64.1303711 C1168.56784,64.1303711 1163.80715,61.778588 1159.88428,57.0749512 C1155.96141,52.3713144 1154,46.6489595 1154,39.9077148 C1154,32.5951783 1156.11375,26.2824973 1160.34131,20.9694824 C1164.56887,15.6564676 1169.59616,13 1175.42334,13 C1178.88918,13 1182.48826,14.542465 1186.2207,17.6274414 C1189.95314,20.7124178 1193.79978,25.3207701 1197.76074,31.4526367 Z M1191.19092,41.3359375 L1189.87695,39.5078125 C1185.45896,33.5282904 1182.1836,29.5578711 1180.05078,27.5964355 C1177.91796,25.635 1175.80421,24.6542969 1173.70947,24.6542969 C1170.66258,24.6542969 1168.06324,26.2348475 1165.91138,29.3959961 C1163.75951,32.5571447 1162.68359,36.4037859 1162.68359,40.9360352 C1162.68359,45.2397676 1163.86425,48.8293313 1166.22559,51.704834 C1168.58693,54.5803366 1171.53856,56.0180664 1175.08057,56.0180664 C1177.7466,56.0180664 1180.42211,54.7993286 1183.10718,52.3618164 C1185.79225,49.9243042 1188.4868,46.249048 1191.19092,41.3359375 Z M1201.41699,36.4228516 L1202.78809,38.2509766 C1206.40627,43.2021732 1209.55785,46.915515 1212.24292,49.3911133 C1214.92799,51.8667116 1217.14648,53.1044922 1218.89844,53.1044922 C1221.98341,53.1044922 1224.59227,51.5239416 1226.7251,48.362793 C1228.85792,45.2016444 1229.92432,41.3550031 1229.92432,36.8227539 C1229.92432,32.5190215 1228.74366,28.9294577 1226.38232,26.0539551 C1224.02098,23.1784524 1221.06935,21.7407227 1217.52734,21.7407227 C1214.82323,21.7407227 1212.12868,22.9689819 1209.4436,25.4255371 C1206.75853,27.8820924 1204.08302,31.5478272 1201.41699,36.4228516 Z" id="∞-copy" fill="#FFFFFF"></path>
            <path d="M791.760742,31.4526367 C794.655288,25.5112008 797.825911,21.0551906 801.272705,18.0844727 C804.7195,15.1137547 808.442363,13.628418 812.441406,13.628418 C818.078153,13.628418 822.848369,15.9802011 826.752197,20.6838379 C830.656025,25.3874747 832.60791,31.1098296 832.60791,37.8510742 C832.60791,45.1636108 830.494162,51.4762918 826.266602,56.7893066 C822.039041,62.1023215 817.011748,64.7587891 811.18457,64.7587891 C807.680647,64.7587891 804.062519,63.2258454 800.330078,60.1599121 C796.597638,57.0939788 792.770039,52.4761051 788.847168,46.3061523 C785.914536,52.2475883 782.724871,56.7035984 779.278076,59.6743164 C775.831282,62.6450344 772.127461,64.1303711 768.166504,64.1303711 C762.567843,64.1303711 757.807149,61.778588 753.884277,57.0749512 C749.961406,52.3713144 748,46.6489595 748,39.9077148 C748,32.5951783 750.113748,26.2824973 754.341309,20.9694824 C758.568869,15.6564676 763.596162,13 769.42334,13 C772.889177,13 776.488263,14.542465 780.220703,17.6274414 C783.953144,20.7124178 787.799785,25.3207701 791.760742,31.4526367 Z M785.190918,41.3359375 L783.876953,39.5078125 C779.458962,33.5282904 776.183604,29.5578711 774.050781,27.5964355 C771.917958,25.635 769.80421,24.6542969 767.709473,24.6542969 C764.662582,24.6542969 762.063243,26.2348475 759.911377,29.3959961 C757.759511,32.5571447 756.683594,36.4037859 756.683594,40.9360352 C756.683594,45.2397676 757.864246,48.8293313 760.225586,51.704834 C762.586926,54.5803366 765.538557,56.0180664 769.080566,56.0180664 C771.746595,56.0180664 774.422106,54.7993286 777.107178,52.3618164 C779.79225,49.9243042 782.486803,46.249048 785.190918,41.3359375 Z M795.416992,36.4228516 L796.788086,38.2509766 C800.406268,43.2021732 803.557848,46.915515 806.24292,49.3911133 C808.927992,51.8667116 811.146476,53.1044922 812.898438,53.1044922 C815.983414,53.1044922 818.592274,51.5239416 820.725098,48.362793 C822.857921,45.2016444 823.924316,41.3550031 823.924316,36.8227539 C823.924316,32.5190215 822.743664,28.9294577 820.382324,26.0539551 C818.020984,23.1784524 815.069354,21.7407227 811.527344,21.7407227 C808.823229,21.7407227 806.128676,22.9689819 803.443604,25.4255371 C800.758531,27.8820924 798.083021,31.5478272 795.416992,36.4228516 Z" id="∞-copy-8" fill="#FFFFFF"></path>
            <path d="M1568.60888,31.0671844 C1571.50342,25.1257485 1574.67405,20.6697384 1578.12084,17.6990204 C1581.56764,14.7283024 1585.2905,13.2429657 1589.28954,13.2429657 C1594.92629,13.2429657 1599.69651,15.5947488 1603.60033,20.2983856 C1607.50416,25.0020224 1609.45605,30.7243773 1609.45605,37.4656219 C1609.45605,44.7781585 1607.3423,51.0908395 1603.11474,56.4038544 C1598.88718,61.7168692 1593.85988,64.3733368 1588.03271,64.3733368 C1584.52878,64.3733368 1580.91066,62.8403931 1577.17822,59.7744598 C1573.44577,56.7085265 1569.61818,52.0906528 1565.6953,45.9207001 C1562.76267,51.862136 1559.57301,56.3181462 1556.12621,59.2888641 C1552.67942,62.2595821 1548.9756,63.7449188 1545.01464,63.7449188 C1539.41598,63.7449188 1534.65529,61.3931357 1530.73241,56.6894989 C1526.80954,51.9858621 1524.84814,46.2635072 1524.84814,39.5222626 C1524.84814,32.209726 1526.96189,25.897045 1531.18945,20.5840302 C1535.41701,15.2710153 1540.4443,12.6145477 1546.27148,12.6145477 C1549.73731,12.6145477 1553.3364,14.1570128 1557.06884,17.2419891 C1560.80128,20.3269655 1564.64792,24.9353179 1568.60888,31.0671844 Z M1562.03905,40.9504852 L1560.72509,39.1223602 C1556.3071,33.1428381 1553.03174,29.1724189 1550.89892,27.2109833 C1548.76609,25.2495477 1546.65235,24.2688446 1544.55761,24.2688446 C1541.51072,24.2688446 1538.91138,25.8493952 1536.75951,29.0105438 C1534.60765,32.1716924 1533.53173,36.0183337 1533.53173,40.5505829 C1533.53173,44.8543153 1534.71238,48.4438791 1537.07372,51.3193817 C1539.43506,54.1948844 1542.38669,55.6326141 1545.9287,55.6326141 C1548.59473,55.6326141 1551.27024,54.4138763 1553.95531,51.9763641 C1556.64039,49.5388519 1559.33494,45.8635957 1562.03905,40.9504852 Z M1572.26513,36.0373993 L1573.63622,37.8655243 C1577.2544,42.8167209 1580.40598,46.5300627 1583.09106,49.005661 C1585.77613,51.4812593 1587.99461,52.7190399 1589.74657,52.7190399 C1592.83155,52.7190399 1595.44041,51.1384893 1597.57323,47.9773407 C1599.70606,44.8161921 1600.77245,40.9695509 1600.77245,36.4373016 C1600.77245,32.1335692 1599.5918,28.5440055 1597.23046,25.6685028 C1594.86912,22.7930001 1591.91749,21.3552704 1588.37548,21.3552704 C1585.67137,21.3552704 1582.97681,22.5835296 1580.29174,25.0400848 C1577.60667,27.4966401 1574.93116,31.1623749 1572.26513,36.0373993 Z" id="∞-copy-2" fill="#FFFFFF"></path>
            <path d="M2019.60888,31.0671844 C2022.50342,25.1257485 2025.67405,20.6697384 2029.12084,17.6990204 C2032.56764,14.7283024 2036.2905,13.2429657 2040.28954,13.2429657 C2045.92629,13.2429657 2050.69651,15.5947488 2054.60033,20.2983856 C2058.50416,25.0020224 2060.45605,30.7243773 2060.45605,37.4656219 C2060.45605,44.7781585 2058.3423,51.0908395 2054.11474,56.4038544 C2049.88718,61.7168692 2044.85988,64.3733368 2039.03271,64.3733368 C2035.52878,64.3733368 2031.91066,62.8403931 2028.17822,59.7744598 C2024.44577,56.7085265 2020.61818,52.0906528 2016.6953,45.9207001 C2013.76267,51.862136 2010.57301,56.3181462 2007.12621,59.2888641 C2003.67942,62.2595821 1999.9756,63.7449188 1996.01464,63.7449188 C1990.41598,63.7449188 1985.65529,61.3931357 1981.73241,56.6894989 C1977.80954,51.9858621 1975.84814,46.2635072 1975.84814,39.5222626 C1975.84814,32.209726 1977.96189,25.897045 1982.18945,20.5840302 C1986.41701,15.2710153 1991.4443,12.6145477 1997.27148,12.6145477 C2000.73731,12.6145477 2004.3364,14.1570128 2008.06884,17.2419891 C2011.80128,20.3269655 2015.64792,24.9353179 2019.60888,31.0671844 Z M2013.03905,40.9504852 L2011.72509,39.1223602 C2007.3071,33.1428381 2004.03174,29.1724189 2001.89892,27.2109833 C1999.76609,25.2495477 1997.65235,24.2688446 1995.55761,24.2688446 C1992.51072,24.2688446 1989.91138,25.8493952 1987.75951,29.0105438 C1985.60765,32.1716924 1984.53173,36.0183337 1984.53173,40.5505829 C1984.53173,44.8543153 1985.71238,48.4438791 1988.07372,51.3193817 C1990.43506,54.1948844 1993.38669,55.6326141 1996.9287,55.6326141 C1999.59473,55.6326141 2002.27024,54.4138763 2004.95531,51.9763641 C2007.64039,49.5388519 2010.33494,45.8635957 2013.03905,40.9504852 Z M2023.26513,36.0373993 L2024.63622,37.8655243 C2028.2544,42.8167209 2031.40598,46.5300627 2034.09106,49.005661 C2036.77613,51.4812593 2038.99461,52.7190399 2040.74657,52.7190399 C2043.83155,52.7190399 2046.44041,51.1384893 2048.57323,47.9773407 C2050.70606,44.8161921 2051.77245,40.9695509 2051.77245,36.4373016 C2051.77245,32.1335692 2050.5918,28.5440055 2048.23046,25.6685028 C2045.86912,22.7930001 2042.91749,21.3552704 2039.37548,21.3552704 C2036.67137,21.3552704 2033.97681,22.5835296 2031.29174,25.0400848 C2028.60667,27.4966401 2025.93116,31.1623749 2023.26513,36.0373993 Z" id="∞-copy-4" fill="#FFFFFF"></path>
            <path d="M2466.60888,31.0671844 C2469.50342,25.1257485 2472.67405,20.6697384 2476.12084,17.6990204 C2479.56764,14.7283024 2483.2905,13.2429657 2487.28954,13.2429657 C2492.92629,13.2429657 2497.69651,15.5947488 2501.60033,20.2983856 C2505.50416,25.0020224 2507.45605,30.7243773 2507.45605,37.4656219 C2507.45605,44.7781585 2505.3423,51.0908395 2501.11474,56.4038544 C2496.88718,61.7168692 2491.85988,64.3733368 2486.03271,64.3733368 C2482.52878,64.3733368 2478.91066,62.8403931 2475.17822,59.7744598 C2471.44577,56.7085265 2467.61818,52.0906528 2463.6953,45.9207001 C2460.76267,51.862136 2457.57301,56.3181462 2454.12621,59.2888641 C2450.67942,62.2595821 2446.9756,63.7449188 2443.01464,63.7449188 C2437.41598,63.7449188 2432.65529,61.3931357 2428.73241,56.6894989 C2424.80954,51.9858621 2422.84814,46.2635072 2422.84814,39.5222626 C2422.84814,32.209726 2424.96189,25.897045 2429.18945,20.5840302 C2433.41701,15.2710153 2438.4443,12.6145477 2444.27148,12.6145477 C2447.73731,12.6145477 2451.3364,14.1570128 2455.06884,17.2419891 C2458.80128,20.3269655 2462.64792,24.9353179 2466.60888,31.0671844 Z M2460.03905,40.9504852 L2458.72509,39.1223602 C2454.3071,33.1428381 2451.03174,29.1724189 2448.89892,27.2109833 C2446.76609,25.2495477 2444.65235,24.2688446 2442.55761,24.2688446 C2439.51072,24.2688446 2436.91138,25.8493952 2434.75951,29.0105438 C2432.60765,32.1716924 2431.53173,36.0183337 2431.53173,40.5505829 C2431.53173,44.8543153 2432.71238,48.4438791 2435.07372,51.3193817 C2437.43506,54.1948844 2440.38669,55.6326141 2443.9287,55.6326141 C2446.59473,55.6326141 2449.27024,54.4138763 2451.95531,51.9763641 C2454.64039,49.5388519 2457.33494,45.8635957 2460.03905,40.9504852 Z M2470.26513,36.0373993 L2471.63622,37.8655243 C2475.2544,42.8167209 2478.40598,46.5300627 2481.09106,49.005661 C2483.77613,51.4812593 2485.99461,52.7190399 2487.74657,52.7190399 C2490.83155,52.7190399 2493.44041,51.1384893 2495.57323,47.9773407 C2497.70606,44.8161921 2498.77245,40.9695509 2498.77245,36.4373016 C2498.77245,32.1335692 2497.5918,28.5440055 2495.23046,25.6685028 C2492.86912,22.7930001 2489.91749,21.3552704 2486.37548,21.3552704 C2483.67137,21.3552704 2480.97681,22.5835296 2478.29174,25.0400848 C2475.60667,27.4966401 2472.93116,31.1623749 2470.26513,36.0373993 Z" id="∞-copy-5" fill="#FFFFFF"></path>
            <path d="M2928.60888,31.0671844 C2931.50342,25.1257485 2934.67405,20.6697384 2938.12084,17.6990204 C2941.56764,14.7283024 2945.2905,13.2429657 2949.28954,13.2429657 C2954.92629,13.2429657 2959.69651,15.5947488 2963.60033,20.2983856 C2967.50416,25.0020224 2969.45605,30.7243773 2969.45605,37.4656219 C2969.45605,44.7781585 2967.3423,51.0908395 2963.11474,56.4038544 C2958.88718,61.7168692 2953.85988,64.3733368 2948.03271,64.3733368 C2944.52878,64.3733368 2940.91066,62.8403931 2937.17822,59.7744598 C2933.44577,56.7085265 2929.61818,52.0906528 2925.6953,45.9207001 C2922.76267,51.862136 2919.57301,56.3181462 2916.12621,59.2888641 C2912.67942,62.2595821 2908.9756,63.7449188 2905.01464,63.7449188 C2899.41598,63.7449188 2894.65529,61.3931357 2890.73241,56.6894989 C2886.80954,51.9858621 2884.84814,46.2635072 2884.84814,39.5222626 C2884.84814,32.209726 2886.96189,25.897045 2891.18945,20.5840302 C2895.41701,15.2710153 2900.4443,12.6145477 2906.27148,12.6145477 C2909.73731,12.6145477 2913.3364,14.1570128 2917.06884,17.2419891 C2920.80128,20.3269655 2924.64792,24.9353179 2928.60888,31.0671844 Z M2922.03905,40.9504852 L2920.72509,39.1223602 C2916.3071,33.1428381 2913.03174,29.1724189 2910.89892,27.2109833 C2908.76609,25.2495477 2906.65235,24.2688446 2904.55761,24.2688446 C2901.51072,24.2688446 2898.91138,25.8493952 2896.75951,29.0105438 C2894.60765,32.1716924 2893.53173,36.0183337 2893.53173,40.5505829 C2893.53173,44.8543153 2894.71238,48.4438791 2897.07372,51.3193817 C2899.43506,54.1948844 2902.38669,55.6326141 2905.9287,55.6326141 C2908.59473,55.6326141 2911.27024,54.4138763 2913.95531,51.9763641 C2916.64039,49.5388519 2919.33494,45.8635957 2922.03905,40.9504852 Z M2932.26513,36.0373993 L2933.63622,37.8655243 C2937.2544,42.8167209 2940.40598,46.5300627 2943.09106,49.005661 C2945.77613,51.4812593 2947.99461,52.7190399 2949.74657,52.7190399 C2952.83155,52.7190399 2955.44041,51.1384893 2957.57323,47.9773407 C2959.70606,44.8161921 2960.77245,40.9695509 2960.77245,36.4373016 C2960.77245,32.1335692 2959.5918,28.5440055 2957.23046,25.6685028 C2954.86912,22.7930001 2951.91749,21.3552704 2948.37548,21.3552704 C2945.67137,21.3552704 2942.97681,22.5835296 2940.29174,25.0400848 C2937.60667,27.4966401 2934.93116,31.1623749 2932.26513,36.0373993 Z" id="∞-copy-6" fill="#FFFFFF"></path>
            <path d="M3275.76074,31.4526367 C3278.65529,25.5112008 3281.82591,21.0551906 3285.27271,18.0844727 C3288.7195,15.1137547 3292.44236,13.628418 3296.44141,13.628418 C3302.07815,13.628418 3306.84837,15.9802011 3310.7522,20.6838379 C3314.65603,25.3874747 3316.60791,31.1098296 3316.60791,37.8510742 C3316.60791,45.1636108 3314.49416,51.4762918 3310.2666,56.7893066 C3306.03904,62.1023215 3301.01175,64.7587891 3295.18457,64.7587891 C3291.68065,64.7587891 3288.06252,63.2258454 3284.33008,60.1599121 C3280.59764,57.0939788 3276.77004,52.4761051 3272.84717,46.3061523 C3269.91454,52.2475883 3266.72487,56.7035984 3263.27808,59.6743164 C3259.83128,62.6450344 3256.12746,64.1303711 3252.1665,64.1303711 C3246.56784,64.1303711 3241.80715,61.778588 3237.88428,57.0749512 C3233.96141,52.3713144 3232,46.6489595 3232,39.9077148 C3232,32.5951783 3234.11375,26.2824973 3238.34131,20.9694824 C3242.56887,15.6564676 3247.59616,13 3253.42334,13 C3256.88918,13 3260.48826,14.542465 3264.2207,17.6274414 C3267.95314,20.7124178 3271.79978,25.3207701 3275.76074,31.4526367 Z M3269.19092,41.3359375 L3267.87695,39.5078125 C3263.45896,33.5282904 3260.1836,29.5578711 3258.05078,27.5964355 C3255.91796,25.635 3253.80421,24.6542969 3251.70947,24.6542969 C3248.66258,24.6542969 3246.06324,26.2348475 3243.91138,29.3959961 C3241.75951,32.5571447 3240.68359,36.4037859 3240.68359,40.9360352 C3240.68359,45.2397676 3241.86425,48.8293313 3244.22559,51.704834 C3246.58693,54.5803366 3249.53856,56.0180664 3253.08057,56.0180664 C3255.7466,56.0180664 3258.42211,54.7993286 3261.10718,52.3618164 C3263.79225,49.9243042 3266.4868,46.249048 3269.19092,41.3359375 Z M3279.41699,36.4228516 L3280.78809,38.2509766 C3284.40627,43.2021732 3287.55785,46.915515 3290.24292,49.3911133 C3292.92799,51.8667116 3295.14648,53.1044922 3296.89844,53.1044922 C3299.98341,53.1044922 3302.59227,51.5239416 3304.7251,48.362793 C3306.85792,45.2016444 3307.92432,41.3550031 3307.92432,36.8227539 C3307.92432,32.5190215 3306.74366,28.9294577 3304.38232,26.0539551 C3302.02098,23.1784524 3299.06935,21.7407227 3295.52734,21.7407227 C3292.82323,21.7407227 3290.12868,22.9689819 3287.4436,25.4255371 C3284.75853,27.8820924 3282.08302,31.5478272 3279.41699,36.4228516 Z" id="∞-copy-7" fill="#FFFFFF"></path>
            <path d="M3575.44264,31.4526367 C3578.33718,25.5112008 3581.50781,21.0551906 3584.9546,18.0844727 C3588.4014,15.1137547 3592.12426,13.628418 3596.1233,13.628418 C3601.76005,13.628418 3606.53027,15.9802011 3610.43409,20.6838379 C3614.33792,25.3874747 3616.28981,31.1098296 3616.28981,37.8510742 C3616.28981,45.1636108 3614.17606,51.4762918 3609.9485,56.7893066 C3605.72094,62.1023215 3600.69364,64.7587891 3594.86647,64.7587891 C3591.36254,64.7587891 3587.74441,63.2258454 3584.01197,60.1599121 C3580.27953,57.0939788 3576.45194,52.4761051 3572.52906,46.3061523 C3569.59643,52.2475883 3566.40677,56.7035984 3562.95997,59.6743164 C3559.51318,62.6450344 3555.80936,64.1303711 3551.8484,64.1303711 C3546.24974,64.1303711 3541.48904,61.778588 3537.56617,57.0749512 C3533.6433,52.3713144 3531.6819,46.6489595 3531.6819,39.9077148 C3531.6819,32.5951783 3533.79564,26.2824973 3538.0232,20.9694824 C3542.25077,15.6564676 3547.27806,13 3553.10524,13 C3556.57107,13 3560.17016,14.542465 3563.9026,17.6274414 C3567.63504,20.7124178 3571.48168,25.3207701 3575.44264,31.4526367 Z M3568.87281,41.3359375 L3567.55885,39.5078125 C3563.14086,33.5282904 3559.8655,29.5578711 3557.73268,27.5964355 C3555.59985,25.635 3553.48611,24.6542969 3551.39137,24.6542969 C3548.34448,24.6542969 3545.74514,26.2348475 3543.59327,29.3959961 C3541.44141,32.5571447 3540.36549,36.4037859 3540.36549,40.9360352 C3540.36549,45.2397676 3541.54614,48.8293313 3543.90748,51.704834 C3546.26882,54.5803366 3549.22045,56.0180664 3552.76246,56.0180664 C3555.42849,56.0180664 3558.104,54.7993286 3560.78907,52.3618164 C3563.47415,49.9243042 3566.1687,46.249048 3568.87281,41.3359375 Z M3579.09889,36.4228516 L3580.46998,38.2509766 C3584.08816,43.2021732 3587.23974,46.915515 3589.92482,49.3911133 C3592.60989,51.8667116 3594.82837,53.1044922 3596.58033,53.1044922 C3599.66531,53.1044922 3602.27417,51.5239416 3604.40699,48.362793 C3606.53982,45.2016444 3607.60621,41.3550031 3607.60621,36.8227539 C3607.60621,32.5190215 3606.42556,28.9294577 3604.06422,26.0539551 C3601.70288,23.1784524 3598.75125,21.7407227 3595.20924,21.7407227 C3592.50512,21.7407227 3589.81057,22.9689819 3587.1255,25.4255371 C3584.44043,27.8820924 3581.76492,31.5478272 3579.09889,36.4228516 Z" id="∞-copy-9" fill="#FFFFFF"></path>
            <rect id="Rectangle-2" x="3616" y="0" width="20" height="88"></rect>
        </g>
    </g>
</svg>