<?xml version="1.0" encoding="UTF-8"?>
<svg width="86px" height="53px" viewBox="0 0 86 53" version="1.1" xmlns="http://www.w3.org/2000/svg" xmlns:xlink="http://www.w3.org/1999/xlink">
    <!-- Generator: Sketch 45.1 (43504) - http://www.bohemiancoding.com/sketch -->
    <title>∞</title>
    <desc>Created with Sketch.</desc>
    <defs></defs>
    <g id="Page-1" stroke="none" stroke-width="1" fill="none" fill-rule="evenodd">
        <g id="Artboard-Copy-21" transform="translate(-396.000000, -723.000000)" fill="#FFFFFF">
            <g id="Group-3" transform="translate(-36.000000, 700.000000)">
                <path d="M476.608879,42.0671844 C479.503425,36.1257485 482.674047,31.6697384 486.120842,28.6990204 C489.567637,25.7283024 493.2905,24.2429657 497.289543,24.2429657 C502.92629,24.2429657 507.696506,26.5947488 511.600334,31.2983856 C515.504162,36.0020224 517.456047,41.7243773 517.456047,48.4656219 C517.456047,55.7781585 515.342299,62.0908395 511.114738,67.4038544 C506.887178,72.7168692 501.859885,75.3733368 496.032707,75.3733368 C492.528783,75.3733368 488.910656,73.8403931 485.178215,70.7744598 C481.445774,67.7085265 477.618176,63.0906528 473.695305,56.9207001 C470.762673,62.862136 467.573008,67.3181462 464.126213,70.2888641 C460.679418,73.2595821 456.975598,74.7449188 453.014641,74.7449188 C447.41598,74.7449188 442.655285,72.3931357 438.732414,67.6894989 C434.809543,62.9858621 432.848137,57.2635072 432.848137,50.5222626 C432.848137,43.209726 434.961885,36.897045 439.189445,31.5840302 C443.417006,26.2710153 448.444299,23.6145477 454.271477,23.6145477 C457.737314,23.6145477 461.336399,25.1570128 465.06884,28.2419891 C468.801281,31.3269655 472.647922,35.9353179 476.608879,42.0671844 Z M470.039055,51.9504852 L468.72509,50.1223602 C464.307099,44.1428381 461.031741,40.1724189 458.898918,38.2109833 C456.766095,36.2495477 454.652347,35.2688446 452.55761,35.2688446 C449.510719,35.2688446 446.91138,36.8493952 444.759514,40.0105438 C442.607648,43.1716924 441.531731,47.0183337 441.531731,51.5505829 C441.531731,55.8543153 442.712383,59.4438791 445.073723,62.3193817 C447.435063,65.1948844 450.386693,66.6326141 453.928703,66.6326141 C456.594732,66.6326141 459.270243,65.4138763 461.955315,62.9763641 C464.640387,60.5388519 467.33494,56.8635957 470.039055,51.9504852 Z M480.265129,47.0373993 L481.636223,48.8655243 C485.254405,53.8167209 488.405985,57.5300627 491.091057,60.005661 C493.776129,62.4812593 495.994613,63.7190399 497.746574,63.7190399 C500.831551,63.7190399 503.440411,62.1384893 505.573235,58.9773407 C507.706058,55.8161921 508.772453,51.9695509 508.772453,47.4373016 C508.772453,43.1335692 507.591801,39.5440055 505.230461,36.6685028 C502.869121,33.7930001 499.917491,32.3552704 496.375481,32.3552704 C493.671366,32.3552704 490.976812,33.5835296 488.29174,36.0400848 C485.606668,38.4966401 482.931158,42.1623749 480.265129,47.0373993 Z" id="∞"></path>
            </g>
        </g>
    </g>
</svg>