<?xml version="1.0" encoding="UTF-8"?>
<svg width="400px" height="195px" viewBox="0 0 400 195" version="1.1" xmlns="http://www.w3.org/2000/svg" xmlns:xlink="http://www.w3.org/1999/xlink">
    <!-- Generator: Sketch 45.1 (43504) - http://www.bohemiancoding.com/sketch -->
    <title>Group 11</title>
    <desc>Created with Sketch.</desc>
    <defs></defs>
    <g id="Page-1" stroke="none" stroke-width="1" fill="none" fill-rule="evenodd">
        <g id="Artboard-Copy-21" transform="translate(-158.000000, -267.000000)" fill="#FFFFFF">
            <g id="Group-11" transform="translate(158.000000, 267.000000)">
                <path d="M116.36632,40.5653936 L116.36632,36.5010957 C116.36632,29.2437766 114.62079,26.6316064 110.547609,26.6316064 C107.638669,26.6316064 105.893139,28.3733298 105.311019,31.5663511 C105.019958,33.0176489 104.728898,35.0497979 104.728898,40.5653936 L104.728898,154.649521 C104.728898,161.036394 105.019958,162.777287 105.311019,164.229415 C106.183368,167.132011 107.928898,168.873734 110.547609,168.873734 C114.62079,168.873734 116.36632,165.680713 116.36632,158.713819 L116.36632,154.649521 L116.36632,40.5653936 Z M71.8548857,35.9202447 L71.8548857,28.6629255 C71.8548857,16.4708617 75.3459459,9.21437234 83.4914761,4.5692234 C89.3101871,1.37537234 94.8378378,0.505755319 110.547609,0.505755319 C129.748441,0.505755319 135.858212,1.95705319 142.259044,7.76307447 C146.331393,11.8265426 148.367983,16.4708617 149.241164,23.1481596 C149.531393,26.0507553 149.531393,27.2116277 149.531393,35.9202447 L149.531393,159.585096 C149.531393,172.647606 149.241164,175.551032 147.495634,179.6145 C144.876923,186.290968 138.767152,191.516968 131.493971,193.258691 C127.421622,194.419564 121.602911,194.999585 110.547609,194.999585 C94.8378378,194.999585 89.3101871,194.129138 83.4914761,190.645691 C75.3459459,186.001372 71.8548857,178.743223 71.8548857,166.551989 L71.8548857,159.585096 L71.8548857,35.9202447 Z" id="Fill-2"></path>
                <polygon id="Fill-1" points="2.90918919 0.795434043 2.90918919 26.9221149 33.7474428 26.9221149 0.000249480249 170.325115 0.000249480249 194.419647 66.9125156 194.419647 66.9125156 168.292966 32.874262 168.292966 66.9125156 25.1795617 66.9125156 0.795434043"></polygon>
                <polygon id="Fill-4" points="155.64 0.795517021 189.678254 0.795517021 208.006736 91.6563894 208.006736 0.795517021 237.100291 0.795517021 237.100291 194.41973 203.353098 194.41973 184.732723 97.1719851 184.732723 194.41973 155.64 194.41973"></polygon>
                <polygon id="Fill-6" points="243.205322 0.795517021 297.608649 0.795517021 297.608649 26.9213681 276.370395 26.9213681 276.370395 75.4000277 297.608649 75.4000277 297.608649 101.526709 276.370395 101.526709 276.370395 168.293049 297.608649 168.293049 297.608649 194.41973 243.205322 194.41973"></polygon>
                <polygon id="Fill-8" points="326.98711 194.419979 360.152183 194.419979 360.152183 0.795765957 326.98711 0.795765957"></polygon>
                <polygon id="Fill-10" points="366.248649 194.419979 399.413721 194.419979 399.413721 0.795765957 366.248649 0.795765957"></polygon>
            </g>
        </g>
    </g>
</svg>