<svg xmlns="http://www.w3.org/2000/svg" viewBox="0 0 494.91 241.92"><defs><style>.cls-1{fill:#231f20;}</style></defs><title>logoAsset 3</title><g id="Layer_2" data-name="Layer 2"><g id="Layer_1-2" data-name="Layer 1"><polygon class="cls-1" points="3.6 0.36 3.6 32.86 41.82 32.86 0 211.23 0 241.2 82.91 241.2 82.91 208.7 40.73 208.7 82.91 30.69 82.91 0.36 3.6 0.36"/><path class="cls-1" d="M144.19,49.83V44.77c0-9-2.16-12.27-7.21-12.27-3.6,0-5.77,2.17-6.49,6.14-.36,1.81-.72,4.33-.72,11.19v141.9c0,7.95.36,10.11.72,11.92,1.08,3.61,3.24,5.78,6.49,5.78,5,0,7.21-4,7.21-12.64v-147ZM89,44.05V35c0-15.17,4.33-24.19,14.42-30C110.66,1.08,117.51,0,137,0c23.79,0,31.36,1.81,39.29,9,5,5.06,7.57,10.83,8.65,19.14.36,3.61.36,5.05.36,15.89V197.87c0,16.25-.36,19.86-2.52,24.91a28.56,28.56,0,0,1-19.83,17c-5,1.44-12.26,2.17-26,2.17-19.47,0-26.32-1.08-33.53-5.42C93.36,230.73,89,221.7,89,206.54V44.05Z"/><polygon class="cls-1" points="257.74 0.36 257.74 113.38 235.03 0.36 192.85 0.36 192.85 241.2 228.9 241.2 228.9 120.24 251.97 241.2 293.78 241.2 293.78 0.36 257.74 0.36"/><polygon class="cls-1" points="301.35 0.36 301.35 241.2 368.76 241.2 368.76 208.7 342.44 208.7 342.44 125.66 368.76 125.66 368.76 93.16 342.44 93.16 342.44 32.86 368.76 32.86 368.76 0.36 301.35 0.36"/><rect class="cls-1" x="405.16" y="0.36" width="41.09" height="240.84"/><rect class="cls-1" x="453.81" y="0.36" width="41.1" height="240.84"/></g></g></svg>