<svg xmlns="http://www.w3.org/2000/svg" viewBox="0 0 98.6 406.85"><defs><style>.cls-1{fill:#007ac2;}</style></defs><title>originalsLogoAsset 2</title><g id="Layer_2" data-name="Layer 2"><g id="Layer_1-2" data-name="Layer 1"><path d="M18.7,346.73c0,17.79,13.49,30.83,30.15,30.83,16.88,0,30.15-12.92,30.15-30.83S65.51,315.9,48.85,315.9s-30.15,13-30.15,30.83m12.92,0c0-9.52,7.14-16.66,17.22-16.66a16.87,16.87,0,0,1,17.34,17.12c0,9.51-7.25,16.2-17.34,16.2s-17.22-7.14-17.22-16.66m-12.7-67.88a20.2,20.2,0,0,0,9.18,17.22H19.72v14.17H77.64V295.95H50.43c-10.41,0-17.1-5.66-17.1-17.11Zm-4.87-6.23V258.33H0v14.28Zm63.58,0V258.33H19.72v14.28Zm-4-66.3c8.85,0,12.92,6,12.92,16.09,0,8-3.52,13.82-8.62,17.34l6.47,10.88c9.06-6,14.16-15.08,14.16-28.45,0-19.16-11.67-30-26.29-30H19.72v14.17h4s-5,6.12-5,17.33a29.24,29.24,0,0,0,58.48,0c0-11.67-5.33-17.33-5.33-17.33ZM31.73,222.86a16.43,16.43,0,0,1,16.32-16.78c9.17,0,16.43,7,16.43,16.78a16.38,16.38,0,0,1-32.75,0M14.05,185.35V171.06H0v14.28Zm63.58,0V171.06H19.72v14.28ZM19.72,150.21v14H77.64V150.1H45.56c-8.49,0-13.72-5.55-13.72-13.94,0-7,4.88-11.34,12.25-11.34H77.64V110.66H42C28,110.66,18.7,119.5,18.7,133.1c0,11.67,6.92,17.11,6.92,17.11ZM77.64,58.07V43.8H19.72V58.07h4.42A31.18,31.18,0,0,0,19,75.52C19,91.39,32.3,105,49,105A29.58,29.58,0,0,0,78.54,75.52c0-11.56-5.1-17.45-5.1-17.45ZM32.3,74.85A16.69,16.69,0,0,1,49,57.85c9.3,0,16.66,7.14,16.66,17A16.3,16.3,0,0,1,49,91.05,16.37,16.37,0,0,1,32.3,74.85M77.64,37V22.71H0V37Z"/><path class="cls-1" d="M61,2.91,59.57,4.36,61,5.8,59.57,7.25,61,8.7l-1.45,1.44L61,11.59,59.57,13,61,14.48l-1.45,1.45L61,17.36l-1.45,1.45L61,20.25,59.57,21.7,61,23.15l-1.45,1.44L61,26l-1.45,1.45L61,28.93l-1.45,1.44L61,31.81l-1.45,1.45L61,34.71l-1.45,1.44L61,37.6,59.57,39,61,40.48l-1.45,1.45L61,43.38l-1.45,1.44L61,46.26l-1.45,1.45L61,49.16,59.57,50.6,61,52l-1.45,1.44L61,54.93l-1.45,1.45L61,57.83l-1.45,1.44L61,60.71l-1.45,1.44L61,63.61l-1.45,1.44L61,66.49l-1.45,1.45L61,69.39l-1.45,1.44L61,72.27l-1.45,1.45L61,75.16l-1.45,1.45L61,78.06,59.57,79.5,61,80.95l-1.45,1.45L61,83.84l-1.45,1.45L61,86.73l-1.45,1.44L61,89.62l-1.45,1.45L61,92.51,59.57,94,61,95.4l-1.45,1.46L61,98.29l-1.45,1.44L61,101.18l-1.45,1.44L61,104.07l-1.45,1.44L61,107l-1.45,1.45L61,109.85l-1.45,1.45L61,112.74l-1.45,1.44L61,115.63l-1.45,1.44L61,118.52,59.57,120,61,121.41l-1.45,1.45L61,124.3l-1.45,1.45L61,127.19l-1.45,1.44L61,130.08l-1.45,1.44L61,133l-1.45,1.45L61,135.86l-1.45,1.45L61,138.76l-1.45,1.44L61,141.64l-1.45,1.44L61,144.53,59.57,146,61,147.42l-1.45,1.45L61,150.31l-1.45,1.45L61,153.2l-1.45,1.44L61,156.09l-1.45,1.44L61,159l-1.45,1.46L61,161.87l-1.45,1.45L61,164.76l-1.45,1.44L61,167.65l-1.45,1.44L61,170.54,59.57,172,61,173.42l-1.45,1.45L61,176.32l-1.45,1.45L61,179.2l-1.45,1.46L61,182.1l-1.45,1.44L61,185l-1.45,1.45L61,187.88l-1.45,1.45L61,190.77l-1.45,1.44L61,193.66l-1.45,1.44L61,196.55,59.61,198h0l0,0L61,199.42l-1.43,1.42,0,0,0,0L61,202.31l-1.43,1.43,0,0,0,0L61,205.2l-1.43,1.43,0,0h0L61,208.07l-1.45,1.45L61,211l-1.45,1.44L61,213.85l-1.45,1.44L61,216.74l-1.45,1.45L61,219.64l-1.45,1.45L61,222.53,59.57,224,61,225.42l-1.45,1.44L61,228.31l-1.45,1.44L61,231.2l-1.45,1.45L61,234.09l-1.45,1.45L61,237l-1.45,1.45L61,239.87l-1.45,1.44L61,242.76l-1.45,1.44L61,245.65l-1.45,1.45L61,248.54,59.57,250,61,251.43l-1.45,1.45L61,254.32l-1.45,1.44L61,257.21l-1.45,1.44L61,260.1l-1.45,1.45L61,263l-1.45,1.44L61,265.88l-1.45,1.44L61,268.77l-1.45,1.45L61,271.65l-1.45,1.45L61,274.55,59.57,276,61,277.44l-1.45,1.44L61,280.34l-1.45,1.44L61,283.22l-1.45,1.44L61,286.1l-1.45,1.45L61,289l-1.45,1.44L61,291.89l-1.45,1.44L61,294.79l-1.45,1.44L61,297.66l-1.45,1.45L61,300.55,59.57,302,61,303.45l-1.45,1.44L61,306.34l-1.45,1.44L61,309.23l-1.45,1.44L61,312.11l-1.45,1.45L61,315l-1.45,1.45L61,317.9l-1.45,1.44L61,320.79l-1.45,1.45L61,323.68l-1.45,1.44L61,326.57,59.57,328,61,329.46l-1.45,1.44L61,332.35l-1.45,1.44L61,335.24l-1.45,1.45L61,338.13l-1.45,1.45L61,341l-1.45,1.45L61,343.91l-1.45,1.44L61,346.8l-1.45,1.44L61,349.69l-1.45,1.46L61,352.58,59.57,354,61,355.47l-1.45,1.45L61,358.36l-1.45,1.44L61,361.25l-1.45,1.44L61,364.14l-1.45,1.44L61,367l-1.45,1.45L61,369.92l-1.45,1.45L61,372.82l-1.45,1.44L61,375.71l-1.45,1.44L61,378.59,59.57,380,61,381.48l-1.45,1.45L61,384.37l-1.45,1.45L61,387.27l-1.45,1.44L61,390.15l-1.45,1.44L61,393l-1.45,1.45L61,395.93l-1.45,1.44L61,398.83l-1.45,1.44L61,401.72l-1.45,1.44L61,404.59l-1.45,1.46.81.8h8.5l.8-.8-1.44-1.46,1.44-1.44-1.44-1.44,1.44-1.45-1.44-1.44,1.44-1.46-1.44-1.44,1.44-1.44L68.24,393l1.44-1.45-1.44-1.44,1.44-1.44-1.44-1.44,1.44-1.45-1.44-1.45,1.44-1.44-1.44-1.45L69.68,380l-1.44-1.45,1.44-1.44-1.44-1.44,1.44-1.45-1.44-1.44,1.44-1.45-1.44-1.45,1.44-1.44L68.24,367l1.44-1.44-1.44-1.44,1.44-1.45-1.44-1.44,1.44-1.45-1.44-1.44,1.44-1.45-1.44-1.45L69.68,354l-1.44-1.45,1.44-1.44-1.44-1.45,1.44-1.44-1.44-1.44,1.44-1.45-1.44-1.44,1.44-1.45L68.24,341l1.44-1.44-1.44-1.45,1.44-1.44-1.44-1.45,1.44-1.45-1.44-1.44,1.44-1.45-1.44-1.44L69.68,328l-1.44-1.45,1.44-1.44-1.44-1.44,1.44-1.44-1.44-1.45,1.44-1.45-1.44-1.44,1.44-1.45L68.24,315l1.44-1.44-1.44-1.45,1.44-1.44-1.44-1.44,1.44-1.45-1.44-1.44,1.44-1.45-1.44-1.44L69.68,302l-1.44-1.46,1.44-1.44-1.44-1.45,1.44-1.44-1.44-1.44,1.44-1.46-1.44-1.44,1.44-1.45L68.24,289l1.44-1.44-1.44-1.45,1.44-1.44-1.44-1.44,1.44-1.45-1.44-1.44,1.44-1.45-1.44-1.44L69.68,276l-1.44-1.45,1.44-1.45-1.44-1.45,1.44-1.44-1.44-1.45,1.44-1.45-1.44-1.44,1.44-1.45L68.24,263l1.44-1.44-1.44-1.45,1.44-1.45-1.44-1.44,1.44-1.45-1.44-1.44,1.44-1.44-1.44-1.45L69.68,250l-1.44-1.45,1.44-1.44-1.44-1.45,1.44-1.45-1.44-1.44,1.44-1.44-1.44-1.44,1.44-1.45L68.24,237l1.44-1.44-1.44-1.45,1.44-1.44-1.44-1.45,1.44-1.45-1.44-1.44,1.44-1.45-1.44-1.44L69.68,224l-1.44-1.45,1.44-1.44-1.44-1.45,1.44-1.44-1.44-1.45,1.44-1.45-1.44-1.44,1.44-1.44L68.24,211l1.44-1.45-1.44-1.45,1.42-1.41h0l0,0-1.43-1.43,1.43-1.42,0,0,0,0-1.43-1.43,1.43-1.42,0,0,0,0-1.43-1.42L69.68,198l0,0h0l-1.42-1.41,1.44-1.45-1.44-1.44,1.44-1.45-1.44-1.44,1.44-1.44-1.44-1.45,1.44-1.45L68.24,185l1.44-1.44-1.44-1.44,1.44-1.44-1.44-1.46,1.44-1.44-1.44-1.45,1.44-1.44-1.44-1.45L69.68,172l-1.44-1.44,1.44-1.45-1.44-1.44,1.44-1.45-1.44-1.44,1.44-1.44-1.44-1.45,1.44-1.44L68.24,159l1.44-1.44-1.44-1.44,1.44-1.45-1.44-1.44,1.44-1.45-1.44-1.45,1.44-1.44-1.44-1.45L69.68,146l-1.44-1.45,1.44-1.45-1.44-1.44,1.44-1.45-1.44-1.44,1.44-1.45-1.44-1.45,1.44-1.44L68.24,133l1.44-1.45-1.44-1.44,1.44-1.45-1.44-1.44,1.44-1.44-1.44-1.45,1.44-1.44-1.44-1.45L69.68,120l-1.44-1.45,1.44-1.45-1.44-1.44,1.44-1.45-1.44-1.44,1.44-1.44-1.44-1.45,1.44-1.44L68.24,107l1.44-1.44-1.44-1.44,1.44-1.46-1.44-1.44,1.44-1.44-1.44-1.44,1.44-1.44L68.24,95.4,69.68,94l-1.44-1.45,1.44-1.44-1.44-1.45,1.44-1.45-1.44-1.44,1.44-1.44-1.44-1.45,1.44-1.44-1.44-1.45,1.44-1.44-1.44-1.44,1.44-1.45-1.44-1.45,1.44-1.44-1.44-1.45,1.44-1.44-1.44-1.44,1.44-1.45-1.44-1.45,1.44-1.44-1.44-1.44,1.44-1.45-1.44-1.44,1.44-1.44-1.44-1.44,1.44-1.44-1.44-1.46,1.44-1.44L68.24,52l1.44-1.45-1.44-1.44,1.44-1.45-1.44-1.45,1.44-1.44-1.44-1.44,1.44-1.45-1.44-1.45L69.68,39,68.24,37.6l1.44-1.45-1.44-1.44,1.44-1.45-1.44-1.45,1.44-1.44-1.44-1.44,1.44-1.44L68.24,26l1.44-1.45-1.44-1.44,1.44-1.45-1.44-1.45,1.44-1.44-1.44-1.45,1.44-1.44-1.44-1.44L69.68,13l-1.44-1.44,1.44-1.45L68.24,8.7l1.44-1.45L68.24,5.8l1.44-1.44L68.24,2.91l1.44-1.44L68.24,0l0,0H61l0,0L59.57,1.47Zm-16.13,0L43.44,4.36,44.88,5.8,43.44,7.25,44.88,8.7l-1.44,1.44,1.44,1.45L43.44,13l1.44,1.45-1.44,1.45,1.44,1.44-1.44,1.45,1.44,1.44L43.44,21.7l1.44,1.45-1.44,1.44L44.88,26l-1.44,1.45,1.44,1.44-1.44,1.44,1.44,1.44-1.44,1.45,1.44,1.45-1.44,1.44,1.44,1.45L43.44,39l1.44,1.44-1.44,1.45,1.44,1.45-1.44,1.44,1.44,1.44-1.44,1.45,1.44,1.45L43.44,50.6,44.88,52l-1.44,1.44,1.44,1.44-1.44,1.46,1.44,1.44-1.44,1.44,1.44,1.44-1.44,1.44,1.44,1.45-1.44,1.44,1.44,1.44-1.44,1.45,1.44,1.45-1.44,1.44,1.44,1.44-1.44,1.45,1.44,1.44-1.44,1.45,1.44,1.45L43.44,79.5l1.44,1.44-1.44,1.45,1.44,1.44-1.44,1.45,1.44,1.44-1.44,1.44,1.44,1.45-1.44,1.45,1.44,1.44L43.44,94l1.44,1.44-1.44,1.46,1.44,1.44-1.44,1.44,1.44,1.44-1.44,1.44,1.44,1.46-1.44,1.44L44.88,107l-1.44,1.45,1.44,1.44-1.44,1.45,1.44,1.44-1.44,1.44,1.44,1.45-1.44,1.44,1.44,1.45L43.44,120l1.44,1.44-1.44,1.45,1.44,1.44-1.44,1.45,1.44,1.44-1.44,1.44,1.44,1.45-1.44,1.44L44.88,133l-1.44,1.45,1.44,1.44-1.44,1.45,1.44,1.45-1.44,1.44,1.44,1.45-1.44,1.44,1.44,1.45L43.44,146l1.44,1.44-1.44,1.45,1.44,1.44-1.44,1.45,1.44,1.44-1.44,1.44,1.44,1.45-1.44,1.44L44.88,159l-1.44,1.46,1.44,1.44-1.44,1.45,1.44,1.44-1.44,1.44,1.44,1.45-1.44,1.44,1.44,1.45L43.44,172l1.44,1.44-1.44,1.45,1.44,1.44-1.44,1.45,1.44,1.44-1.44,1.46,1.44,1.44-1.44,1.44L44.88,185l-1.44,1.45,1.44,1.45-1.44,1.45,1.44,1.44-1.44,1.44,1.44,1.45-1.44,1.44,1.44,1.45L43.47,198h0l0,0,1.43,1.43-1.43,1.42,0,0,0,0,1.43,1.42-1.43,1.43,0,0,0,0,1.43,1.42-1.43,1.43,0,0h0l1.41,1.41-1.44,1.45L44.88,211l-1.44,1.44,1.44,1.44-1.44,1.44,1.44,1.45-1.44,1.45,1.44,1.44-1.44,1.45,1.44,1.44L43.44,224l1.44,1.44-1.44,1.44,1.44,1.45-1.44,1.44,1.44,1.45-1.44,1.45,1.44,1.44-1.44,1.45L44.88,237l-1.44,1.45,1.44,1.45-1.44,1.44,1.44,1.44-1.44,1.44,1.44,1.45-1.44,1.45,1.44,1.44L43.44,250l1.44,1.44-1.44,1.45,1.44,1.44-1.44,1.44,1.44,1.45-1.44,1.44,1.44,1.45-1.44,1.45L44.88,263l-1.44,1.44,1.44,1.45-1.44,1.45,1.44,1.44-1.44,1.45,1.44,1.44-1.44,1.45,1.44,1.45L43.44,276l1.44,1.44-1.44,1.44,1.44,1.45-1.44,1.44,1.44,1.45-1.44,1.44,1.44,1.44-1.44,1.45L44.88,289l-1.44,1.44,1.44,1.45-1.44,1.44,1.44,1.46-1.44,1.44,1.44,1.44-1.44,1.45,1.44,1.44L43.44,302l1.44,1.44-1.44,1.44,1.44,1.45-1.44,1.44,1.44,1.45-1.44,1.44,1.44,1.44-1.44,1.45L44.88,315l-1.44,1.45,1.44,1.45-1.44,1.44,1.44,1.45-1.44,1.45,1.44,1.44-1.44,1.44,1.44,1.44L43.44,328l1.44,1.45-1.44,1.44,1.44,1.45-1.44,1.44,1.44,1.45-1.44,1.45,1.44,1.44-1.44,1.45L44.88,341l-1.44,1.45,1.44,1.45-1.44,1.44,1.44,1.45-1.44,1.44,1.44,1.44-1.44,1.45,1.44,1.44L43.44,354l1.44,1.44-1.44,1.45,1.44,1.45-1.44,1.44,1.44,1.45-1.44,1.44,1.44,1.45-1.44,1.44L44.88,367l-1.44,1.45,1.44,1.44-1.44,1.45,1.44,1.45-1.44,1.44,1.44,1.45-1.44,1.44,1.44,1.44L43.44,380l1.44,1.44-1.44,1.45,1.44,1.44-1.44,1.45,1.44,1.45-1.44,1.44,1.44,1.44-1.44,1.44L44.88,393l-1.44,1.45,1.44,1.44-1.44,1.44,1.44,1.46-1.44,1.44,1.44,1.45-1.44,1.44,1.44,1.44-1.44,1.46.8.8h8.5l.82-.8-1.46-1.46,1.46-1.44-1.46-1.44,1.46-1.45-1.46-1.44,1.46-1.46-1.46-1.44,1.46-1.44L52.11,393l1.46-1.45-1.46-1.44,1.46-1.44-1.46-1.44,1.46-1.45-1.46-1.45,1.46-1.44-1.46-1.45L53.56,380l-1.46-1.45,1.46-1.44-1.46-1.44,1.46-1.45-1.46-1.44,1.46-1.45-1.46-1.45,1.46-1.44L52.11,367l1.46-1.44-1.46-1.44,1.46-1.45-1.46-1.44,1.46-1.45-1.46-1.44,1.46-1.45-1.46-1.45L53.56,354l-1.46-1.45,1.46-1.44-1.46-1.46,1.46-1.44-1.46-1.44,1.46-1.45-1.46-1.44,1.46-1.45L52.11,341l1.46-1.44-1.46-1.45,1.46-1.44-1.46-1.45,1.46-1.45-1.46-1.44,1.46-1.45-1.46-1.44L53.56,328l-1.46-1.45,1.46-1.44-1.46-1.44,1.46-1.44-1.46-1.45,1.46-1.45-1.46-1.44,1.46-1.45L52.11,315l1.46-1.44-1.46-1.45,1.46-1.44-1.46-1.44,1.46-1.45-1.46-1.44,1.46-1.45-1.46-1.44L53.56,302l-1.46-1.46,1.46-1.44-1.46-1.45,1.46-1.44-1.46-1.44,1.46-1.46-1.46-1.44,1.46-1.45L52.11,289l1.46-1.44-1.46-1.45,1.46-1.44-1.46-1.44,1.46-1.45-1.46-1.44,1.46-1.45-1.46-1.44L53.56,276l-1.46-1.45,1.46-1.45-1.46-1.45,1.46-1.44-1.46-1.44,1.46-1.44-1.46-1.45,1.46-1.45L52.11,263l1.46-1.44-1.46-1.45,1.46-1.45-1.46-1.44,1.46-1.45-1.46-1.44,1.46-1.44-1.46-1.45L53.56,250l-1.46-1.45,1.46-1.44-1.46-1.45,1.46-1.45-1.46-1.44,1.46-1.44-1.46-1.44,1.46-1.45L52.11,237l1.46-1.44-1.46-1.45,1.46-1.44-1.46-1.45,1.46-1.45-1.46-1.44,1.46-1.45-1.46-1.44L53.56,224l-1.46-1.45,1.46-1.44-1.46-1.45,1.46-1.44-1.46-1.45,1.46-1.45-1.46-1.44,1.46-1.44L52.11,211l1.46-1.45-1.46-1.45,1.42-1.41h0l0,0-1.43-1.43,1.43-1.42,0,0,0,0-1.43-1.43,1.43-1.42,0,0,0,0-1.43-1.42L53.56,198l0,0h0l-1.42-1.41,1.46-1.45-1.46-1.44,1.46-1.45-1.46-1.44,1.46-1.44-1.46-1.45,1.46-1.45L52.11,185l1.46-1.44-1.46-1.44,1.46-1.44-1.46-1.46,1.46-1.44-1.46-1.45,1.46-1.44-1.46-1.45L53.56,172l-1.46-1.44,1.46-1.45-1.46-1.44,1.46-1.45-1.46-1.44,1.46-1.44-1.46-1.45,1.46-1.44L52.11,159l1.46-1.44-1.46-1.44,1.46-1.45-1.46-1.44,1.46-1.44-1.46-1.45,1.46-1.44-1.46-1.45L53.56,146l-1.46-1.45,1.46-1.45-1.46-1.44,1.46-1.45-1.46-1.44,1.46-1.45-1.46-1.45,1.46-1.44L52.11,133l1.46-1.45-1.46-1.44,1.46-1.45-1.46-1.44,1.46-1.44-1.46-1.45,1.46-1.44-1.46-1.45L53.56,120l-1.46-1.45,1.46-1.45-1.46-1.44,1.46-1.45-1.46-1.44,1.46-1.44-1.46-1.45,1.46-1.44L52.11,107l1.46-1.44-1.46-1.44,1.46-1.46-1.46-1.44,1.46-1.44-1.46-1.44,1.46-1.44L52.11,95.4,53.56,94l-1.46-1.45,1.46-1.44-1.46-1.45,1.46-1.45-1.46-1.44,1.46-1.44-1.46-1.45,1.46-1.44-1.46-1.45,1.46-1.44-1.46-1.44,1.46-1.45-1.46-1.45,1.46-1.44-1.46-1.45,1.46-1.44-1.46-1.44,1.46-1.45-1.46-1.45,1.46-1.44-1.46-1.44,1.46-1.45-1.46-1.44,1.46-1.44-1.46-1.44,1.46-1.44-1.46-1.45,1.46-1.44L52.11,52l1.46-1.45-1.46-1.44,1.46-1.45-1.46-1.45,1.46-1.44-1.46-1.44,1.46-1.45-1.46-1.45L53.56,39,52.11,37.6l1.46-1.45-1.46-1.44,1.46-1.45-1.46-1.45,1.46-1.44-1.46-1.44,1.46-1.44L52.11,26l1.46-1.45-1.46-1.44,1.46-1.45-1.46-1.45,1.46-1.44-1.46-1.45,1.46-1.44-1.46-1.44L53.56,13l-1.46-1.44,1.46-1.45L52.11,8.7l1.46-1.45L52.11,5.8l1.46-1.44L52.11,2.91l1.46-1.44L52.11,0l0,0H44.85l0,0L43.44,1.47Zm-16.12,0L27.32,4.36,28.76,5.8,27.32,7.25,28.76,8.7l-1.44,1.44,1.44,1.45L27.32,13l1.44,1.45-1.44,1.45,1.44,1.44-1.44,1.45,1.44,1.44L27.32,21.7l1.44,1.45-1.44,1.44L28.76,26l-1.44,1.45,1.44,1.44-1.44,1.44,1.44,1.44-1.44,1.45,1.44,1.45-1.44,1.44,1.44,1.45L27.32,39l1.44,1.44-1.44,1.45,1.44,1.45-1.44,1.44,1.44,1.44-1.44,1.45,1.44,1.45L27.32,50.6,28.76,52l-1.44,1.44,1.44,1.44-1.44,1.45,1.44,1.44-1.44,1.44,1.44,1.44-1.44,1.44,1.44,1.45-1.44,1.44,1.44,1.44-1.44,1.45,1.44,1.45-1.44,1.44,1.44,1.44-1.44,1.45,1.44,1.44-1.44,1.45,1.44,1.45L27.32,79.5l1.44,1.44-1.44,1.45,1.44,1.44-1.44,1.45,1.44,1.44-1.44,1.44,1.44,1.45-1.44,1.45,1.44,1.44L27.32,94l1.44,1.44-1.44,1.46,1.44,1.44-1.44,1.44,1.44,1.44-1.44,1.44,1.44,1.46-1.44,1.44L28.76,107l-1.44,1.45,1.44,1.44-1.44,1.45,1.44,1.44-1.44,1.44,1.44,1.45-1.44,1.44,1.44,1.45L27.32,120l1.44,1.44-1.44,1.45,1.44,1.44-1.44,1.45,1.44,1.44-1.44,1.44,1.44,1.45-1.44,1.44L28.76,133l-1.44,1.45,1.44,1.44-1.44,1.45,1.44,1.45-1.44,1.44,1.44,1.45-1.44,1.44,1.44,1.45L27.32,146l1.44,1.44-1.44,1.45,1.44,1.44-1.44,1.45,1.44,1.44-1.44,1.44,1.44,1.45-1.44,1.44L28.76,159l-1.44,1.46,1.44,1.44-1.44,1.45,1.44,1.44-1.44,1.44,1.44,1.45-1.44,1.44,1.44,1.45L27.32,172l1.44,1.44-1.44,1.45,1.44,1.44-1.44,1.45,1.44,1.44-1.44,1.46,1.44,1.44-1.44,1.44L28.76,185l-1.44,1.45,1.44,1.45-1.44,1.45,1.44,1.44-1.44,1.44,1.44,1.45-1.44,1.44,1.44,1.45L27.35,198h0v0l1.42,1.43-1.42,1.42v0l1.42,1.42-1.42,1.43v0l1.42,1.42-1.42,1.43v0h0l1.41,1.41-1.44,1.45L28.76,211l-1.44,1.44,1.44,1.44-1.44,1.44,1.44,1.45-1.44,1.45,1.44,1.44-1.44,1.45,1.44,1.44L27.32,224l1.44,1.44-1.44,1.44,1.44,1.45-1.44,1.44,1.44,1.45-1.44,1.45,1.44,1.44-1.44,1.45L28.76,237l-1.44,1.45,1.44,1.45-1.44,1.44,1.44,1.44-1.44,1.44,1.44,1.45-1.44,1.45,1.44,1.44L27.32,250l1.44,1.44-1.44,1.45,1.44,1.44-1.44,1.44,1.44,1.45-1.44,1.44,1.44,1.45-1.44,1.45L28.76,263l-1.44,1.44,1.44,1.45-1.44,1.44,1.44,1.45-1.44,1.45,1.44,1.44-1.44,1.45,1.44,1.45L27.32,276l1.44,1.44-1.44,1.44,1.44,1.45-1.44,1.44,1.44,1.45-1.44,1.44,1.44,1.44-1.44,1.45L28.76,289l-1.44,1.44,1.44,1.45-1.44,1.44,1.44,1.46-1.44,1.44,1.44,1.44-1.44,1.45,1.44,1.44L27.32,302l1.44,1.44-1.44,1.44,1.44,1.45-1.44,1.44,1.44,1.45-1.44,1.44,1.44,1.44-1.44,1.45L28.76,315l-1.44,1.45,1.44,1.45-1.44,1.44,1.44,1.45-1.44,1.45,1.44,1.44-1.44,1.44,1.44,1.44L27.32,328l1.44,1.45-1.44,1.44,1.44,1.45-1.44,1.44,1.44,1.45-1.44,1.45,1.44,1.44-1.44,1.45L28.76,341l-1.44,1.45,1.44,1.45-1.44,1.44,1.44,1.45-1.44,1.44,1.44,1.44-1.44,1.45,1.44,1.44L27.32,354l1.44,1.44-1.44,1.45,1.44,1.45-1.44,1.44,1.44,1.45-1.44,1.44,1.44,1.45-1.44,1.44L28.76,367l-1.44,1.45,1.44,1.44-1.44,1.45,1.44,1.45-1.44,1.44,1.44,1.45-1.44,1.44,1.44,1.44L27.32,380l1.44,1.44-1.44,1.45,1.44,1.44-1.44,1.45,1.44,1.45-1.44,1.44,1.44,1.44-1.44,1.44L28.76,393l-1.44,1.44,1.44,1.44-1.44,1.44,1.44,1.46-1.44,1.44,1.44,1.45-1.44,1.44,1.44,1.44-1.44,1.46.8.8h8.5l.8-.8L36,404.6l1.44-1.44L36,401.72l1.44-1.45L36,398.83l1.44-1.46L36,395.93l1.44-1.44L36,393l1.44-1.45L36,390.15l1.44-1.44L36,387.27l1.44-1.45L36,384.37l1.44-1.44L36,381.48,37.43,380,36,378.59l1.44-1.44L36,375.71l1.44-1.45L36,372.82l1.44-1.45L36,369.92l1.44-1.44L36,367l1.44-1.44L36,364.14l1.44-1.45L36,361.25l1.44-1.45L36,358.36l1.44-1.45L36,355.47,37.43,354,36,352.58l1.44-1.44L36,349.69l1.44-1.44L36,346.8l1.44-1.45L36,343.91l1.44-1.45L36,341l1.44-1.44L36,338.13l1.44-1.44L36,335.24l1.44-1.45L36,332.35l1.44-1.45L36,329.46,37.43,328,36,326.57l1.44-1.44L36,323.68l1.44-1.44L36,320.79l1.44-1.45L36,317.9l1.44-1.45L36,315l1.44-1.44L36,312.11l1.44-1.44L36,309.23l1.44-1.45L36,306.34l1.44-1.45L36,303.45,37.43,302,36,300.55l1.44-1.44L36,297.66l1.44-1.44L36,294.79l1.44-1.46L36,291.89l1.44-1.45L36,289l1.44-1.44L36,286.1l1.44-1.44L36,283.22l1.44-1.45L36,280.34l1.44-1.45L36,277.44,37.43,276,36,274.55l1.44-1.45L36,271.65l1.44-1.44L36,268.77l1.44-1.45L36,265.88l1.44-1.45L36,263l1.44-1.44L36,260.1l1.44-1.45L36,257.21l1.44-1.45L36,254.32l1.44-1.44L36,251.43,37.43,250,36,248.54l1.44-1.44L36,245.65l1.44-1.45L36,242.76l1.44-1.44L36,239.87l1.44-1.45L36,237l1.44-1.44L36,234.09l1.44-1.44L36,231.2l1.44-1.45L36,228.31l1.44-1.45L36,225.42,37.43,224,36,222.53l1.44-1.44L36,219.64l1.44-1.44L36,216.74l1.44-1.45L36,213.85l1.44-1.44L36,211l1.44-1.45L36,208.07l1.42-1.41h0v0L36,205.2l1.42-1.42v0L36,202.31l1.42-1.42v0L36,199.42,37.43,198v0h0L36,196.55l1.44-1.45L36,193.66l1.44-1.45L36,190.77l1.44-1.44L36,187.88l1.44-1.45L36,185l1.44-1.44L36,182.1l1.44-1.44L36,179.2l1.44-1.44L36,176.32l1.44-1.44L36,173.42,37.43,172,36,170.54l1.44-1.45L36,167.65l1.44-1.45L36,164.76l1.44-1.44L36,161.87l1.44-1.44L36,159l1.44-1.44L36,156.09l1.44-1.45L36,153.2l1.44-1.44L36,150.31l1.44-1.44L36,147.42,37.43,146,36,144.53l1.44-1.45L36,141.64l1.44-1.45L36,138.76l1.44-1.45L36,135.86l1.44-1.44L36,133l1.44-1.45L36,130.08l1.44-1.45L36,127.19l1.44-1.44L36,124.3l1.44-1.44L36,121.41,37.43,120,36,118.52l1.44-1.45L36,115.63l1.44-1.45L36,112.74l1.44-1.44L36,109.85l1.44-1.44L36,107l1.44-1.44L36,104.07l1.44-1.46L36,101.18l1.44-1.44L36,98.29l1.44-1.44L36,95.4,37.43,94,36,92.51l1.44-1.44L36,89.62l1.44-1.45L36,86.73l1.44-1.44L36,83.84l1.44-1.44L36,80.95l1.44-1.44L36,78.06l1.44-1.45L36,75.16l1.44-1.44L36,72.27l1.44-1.44L36,69.39l1.44-1.45L36,66.49l1.44-1.44L36,63.61l1.44-1.45L36,60.71l1.44-1.44L36,57.83l1.44-1.44L36,54.93l1.44-1.44L36,52l1.44-1.45L36,49.16l1.44-1.45L36,46.26l1.44-1.44L36,43.38l1.44-1.45L36,40.48,37.43,39,36,37.6l1.44-1.45L36,34.71l1.44-1.45L36,31.81l1.44-1.44L36,28.93l1.44-1.44L36,26l1.44-1.45L36,23.15l1.44-1.45L36,20.25l1.44-1.44L36,17.36l1.44-1.44L36,14.48,37.43,13,36,11.59l1.44-1.45L36,8.7l1.44-1.45L36,5.8l1.44-1.44L36,2.91l1.44-1.44L36,0l0,0H28.73l0,0L27.32,1.47Z"/></g></g></svg>